<svg xmlns="http://www.w3.org/2000/svg" xmlns:xlink="http://www.w3.org/1999/xlink" viewBox="0 0 404.03 446.66"><defs><style>.cls-1{fill:none;}.cls-2{fill:url(#linear-gradient);}.cls-3{fill:#9b9bea;}.cls-4{fill:#8888ea;}.cls-5{fill:#b0b0ff;}.cls-6{clip-path:url(#clip-path);}.cls-7{fill:#41378c;}.cls-8{fill:#ffa50a;}.cls-9{fill:#fab9af;}.cls-10{fill:#6469d4;}.cls-11{fill:#1e2d64;}.cls-12{fill:#0f1446;}.cls-13{fill:#fff;}.cls-14{fill:#5159bf;}.cls-15{fill:#ea9f96;}.cls-16{fill:#32285f;}.cls-17{fill:#fa968c;}.cls-18{fill:#c8e6eb;}.cls-19{fill:#fa870a;}.cls-20{fill:#434cb5;}.cls-21{fill:#25377a;}.cls-22{fill:#323e96;}.cls-23{fill:url(#linear-gradient-2);}.cls-24{fill:url(#linear-gradient-3);}.cls-25{fill:url(#linear-gradient-4);}.cls-26{fill:url(#linear-gradient-5);}.cls-27{fill:url(#linear-gradient-6);}</style><linearGradient id="linear-gradient" x1="100.36" y1="307.1" x2="457.86" y2="207.39" gradientUnits="userSpaceOnUse"><stop offset="0" stop-color="#2929d3"/><stop offset="0" stop-color="#2929d2"/><stop offset="0.18" stop-color="#1b1bb3"/><stop offset="0.36" stop-color="#11119b"/><stop offset="0.55" stop-color="#0a0a8a"/><stop offset="0.75" stop-color="#05057f"/><stop offset="1" stop-color="#04047c"/></linearGradient><clipPath id="clip-path" transform="translate(-51.97 -52.29)"><path class="cls-1" d="M413.74,123.83c-15.59-15.31-38.4-17.11-58.54-3.44-5.37,3.65-11.5,5-17.21,3.09a17.81,17.81,0,0,1-8.05-5.55c-14.54-17.27-36.51-22-57.44-10.1a152.26,152.26,0,0,0-36.09,28.63c-19,20.33-41.32,34.22-64.34,38.69q-2.55.49-5.06,1.12c-14.41,3.6-27.39,18.25-31.38,36.49a24.66,24.66,0,0,1-1.55,4.73c-3.09,7-9.22,11.44-15,10.89l-.67-.09C107,226.46,94.77,236.14,90,250.84c0,.14-.09.27-.13.4-18.51,57.92,9.52,119.07,62.59,136.6a94.17,94.17,0,0,0,57.63.41c20.21-6.23,40.6-6.47,58.85.78q3.07,1.22,6.25,2.27C343.91,414,420.68,366.41,446.68,285,466.25,223.81,451.5,160.9,413.74,123.83Z"/></clipPath><linearGradient id="linear-gradient-2" x1="92.08" y1="357.98" x2="458.82" y2="292.88" gradientUnits="userSpaceOnUse"><stop offset="0" stop-color="#2929d3"/><stop offset="0.38" stop-color="#1c1cb5"/><stop offset="1" stop-color="#04047c"/></linearGradient><linearGradient id="linear-gradient-3" x1="13.62" y1="23.92" x2="46.73" y2="11.28" gradientUnits="userSpaceOnUse"><stop offset="0" stop-color="#2929d3"/><stop offset="0.01" stop-color="#2828d1"/><stop offset="0.18" stop-color="#1b1bb2"/><stop offset="0.36" stop-color="#11119a"/><stop offset="0.55" stop-color="#0a0a89"/><stop offset="0.75" stop-color="#05057f"/><stop offset="1" stop-color="#04047c"/></linearGradient><linearGradient id="linear-gradient-4" x1="52.93" y1="155.49" x2="74.26" y2="148.93" xlink:href="#linear-gradient-3"/><linearGradient id="linear-gradient-5" x1="103.39" y1="135.78" x2="173.71" y2="112.75" gradientUnits="userSpaceOnUse"><stop offset="0" stop-color="#1818ea"/><stop offset="0.13" stop-color="#1414d4"/><stop offset="0.39" stop-color="#0d0dae"/><stop offset="0.63" stop-color="#080893"/><stop offset="0.84" stop-color="#050582"/><stop offset="1" stop-color="#04047c"/></linearGradient><linearGradient id="linear-gradient-6" x1="185.43" y1="437.29" x2="263.74" y2="419.91" gradientUnits="userSpaceOnUse"><stop offset="0" stop-color="#2929d3"/><stop offset="0.44" stop-color="#1515a5"/><stop offset="0.8" stop-color="#090987"/><stop offset="1" stop-color="#04047c"/></linearGradient></defs><g id="OBJECTS"><path class="cls-2" d="M413.74,123.83c-15.59-15.31-38.4-17.11-58.54-3.44-5.37,3.65-11.5,5-17.21,3.09a17.81,17.81,0,0,1-8.05-5.55c-14.54-17.27-36.51-22-57.44-10.1a152.26,152.26,0,0,0-36.09,28.63c-19,20.33-41.32,34.22-64.34,38.69q-2.55.49-5.06,1.12c-14.41,3.6-27.39,18.25-31.38,36.49a24.66,24.66,0,0,1-1.55,4.73c-3.09,7-9.22,11.44-15,10.89l-.67-.09C107,226.46,94.77,236.14,90,250.84c0,.14-.09.27-.13.4-18.51,57.92,9.52,119.07,62.59,136.6a94.17,94.17,0,0,0,57.63.41c20.21-6.23,40.6-6.47,58.85.78q3.07,1.22,6.25,2.27C343.91,414,420.68,366.41,446.68,285,466.25,223.81,451.5,160.9,413.74,123.83Z" transform="translate(-51.97 -52.29)"/><path class="cls-3" d="M419.63,235.73c11.89-24.48,9.67-50.28-5-57.62h0a21.87,21.87,0,0,1-11.89-17.55c-3.5-37.74-21.49-66.49-44.95-68.06-20-1.33-38.66,17.52-48.86,46.05a31.78,31.78,0,0,1-16.81,18.32h0C273,165.52,267.64,196,280.27,224.93a4.59,4.59,0,0,1-.93,5,36.67,36.67,0,0,0-2.47,48.51,34.64,34.64,0,0,1,7.47,23.81h0c-1.29,20,13.6,37.25,33.25,38.57a35.13,35.13,0,0,0,15.11-2.32,57.41,57.41,0,0,1,24.73-3.85h0c22.39,1.49,41.74-15.75,43.21-38.52.07-1.13.08-2.24.07-3.35a36.33,36.33,0,0,0,18.67-29.55,37,37,0,0,0-1.2-12,22.21,22.21,0,0,1,1.45-15.54Z" transform="translate(-51.97 -52.29)"/><path class="cls-4" d="M290.84,67.29c-.31,5.88-.51,11.32-.54,16.6s.14,10.33.57,15.12a101.39,101.39,0,0,0,2,13.51c.15,1.06.53,2.06.76,3.07a24.79,24.79,0,0,0,.84,2.93l.91,2.81,1.08,3.15,4.67,13.36c1.58,4.66,3.3,9.67,4.76,15.13a113.36,113.36,0,0,1,3.54,18.13c.17,1.73.35,3.34.4,5.16l.09,5.46a74.21,74.21,0,0,1-1.3,11.74c-.18,1-.4,2-.61,3s-.59,2-.9,3l-1,3-.51,1.51-.64,1.48q-1.32,2.94-2.76,5.81c-1.09,1.81-2.2,3.61-3.37,5.36L298,218c-.18.27-.21.3-.3.42l-.23.31L296.5,220c-.62.83-1.25,1.62-1.87,2.5L292.77,225l-1.83,2.66c-1.26,1.75-2.38,3.6-3.61,5.42s-2.29,3.71-3.5,5.57c-2.22,3.78-4.46,7.62-6.52,11.55a166.37,166.37,0,0,0-10.87,25l-.6,1.71-.47,1.7c-.34,1.15-.63,2.31-1,3.51a28.84,28.84,0,0,0-.87,3.59c-.24,1.21-.54,2.46-.84,3.73s-.36,2.5-.62,3.82l-.63,4c-.3,2.68-.45,5.44-.85,8.46a65.84,65.84,0,0,1-6.32-6.1,78.82,78.82,0,0,1-5.16-7.26c-.73-1.29-1.48-2.6-2.15-4a40.46,40.46,0,0,1-1.94-4.11c-.59-1.4-1.1-2.83-1.64-4.27-.27-.72-.53-1.45-.78-2.18l-.6-2.2a93.86,93.86,0,0,1-2.33-36.5c.27-3.08,1-6,1.47-9s1.4-5.89,2.18-8.84a125.81,125.81,0,0,1,6.35-17c1.2-2.79,2.67-5.48,4.12-8.19.68-1.37,1.54-2.68,2.34-4l1.22-2,.31-.5a2.21,2.21,0,0,0,.22-.4l.13-.35a7.23,7.23,0,0,1,.67-1.26,7.38,7.38,0,0,1,.42-1.28l.15-.3.08-.35c0-.23.11-.46.17-.69l.23-.68a7.35,7.35,0,0,1,.11-.82,29.41,29.41,0,0,0,.54-3.73c0-.77.06-1.55.11-2.33s-.05-1.76,0-2.63c-.05-3.68-.36-7.91-.86-12.71s-1-9.89-1.44-15.42c-.21-2.69-.36-5.62-.47-8.45,0-3-.15-5.83,0-8.93.06-1.54.09-3,.22-4.6l.5-5c.15-1.66.52-3.26.82-4.86s.62-3.19,1.08-4.72a76.92,76.92,0,0,1,7-17.23,75.74,75.74,0,0,1,10.3-14.43A57.3,57.3,0,0,1,290.84,67.29Z" transform="translate(-51.97 -52.29)"/><path class="cls-5" d="M278,105.91a80.34,80.34,0,0,0-.22,26.48c1.22,8.77,3.35,17.39,5.23,26.1s3.6,17.59,3.52,26.73a44.41,44.41,0,0,1-8.14,25.86,142.16,142.16,0,0,0-12.68,23,133.35,133.35,0,0,0-8.22,25,101.53,101.53,0,0,0-2.38,26.25,80.19,80.19,0,0,0,5.4,25.88,76.29,76.29,0,0,1-6.9-25.78,97.09,97.09,0,0,1,1.54-26.84,135.15,135.15,0,0,1,20.73-49.33c.66-.94,1.18-1.84,1.74-2.75s1.16-1.79,1.63-2.75a39,39,0,0,0,2.38-5.93,24.79,24.79,0,0,0,.87-3.09l.6-3.16c.21-1.06.22-2.15.34-3.22a27,27,0,0,0,.2-3.24l0-3.26c0-1.09-.12-2.19-.18-3.28-.06-2.18-.42-4.36-.63-6.55q-.93-6.54-2.19-13.09c-1.67-8.72-3.5-17.48-4.38-26.41A76.34,76.34,0,0,1,278,105.91Z" transform="translate(-51.97 -52.29)"/><path class="cls-3" d="M218.83,87.93a62.26,62.26,0,0,1,10.67,12.75,81.44,81.44,0,0,1,12.31,32.23c.28,1.49.37,3,.51,4.54s.3,3.07.27,4.63l0,4.7c0,1.52-.16,2.92-.26,4.39-.16,3-.57,5.7-.9,8.56s-.83,5.53-1.31,8.16c-1,5.35-2,10.4-3,15.19s-1.74,9.26-2.18,13.33a41.73,41.73,0,0,0-.09,10.57c0,.38.07.76.1,1.13l.25,1,.21,1,.1.51.19.48c.23.63.42,1.28.6,2a20.55,20.55,0,0,1,.91,1.89l.19.49c.07.18.32.62.47.91l1,2c.68,1.32,1.42,2.62,2,4,1.24,2.67,2.48,5.33,3.5,8.07A129.92,129.92,0,0,1,249.7,247c.62,2.86,1.26,5.68,1.73,8.56s.94,5.74,1.1,8.69a95.45,95.45,0,0,1-3,34.8l-.6,2.09-.75,2.07c-.52,1.36-1,2.73-1.56,4.06a37.67,37.67,0,0,1-1.84,3.92c-.64,1.29-1.33,2.55-2,3.79-1.43,2.46-3.19,4.76-4.8,7a76.89,76.89,0,0,1-5.78,6c.16-2.86.5-5.5.7-8.11L233,316c0-1.3.18-2.52.08-3.81s-.14-2.55-.17-3.78a30.45,30.45,0,0,0-.22-3.69c-.17-1.24-.25-2.45-.38-3.65l-.17-1.79-.33-1.8a141.79,141.79,0,0,0-7.17-27.18l-.57-1.63-.65-1.62-1.29-3.22c-.84-2.15-1.86-4.25-2.72-6.36-1-2.08-2-4.18-3-6.22s-2-4.1-3.17-6.08c-.56-1-1.07-2-1.64-3l-1.7-2.91c-.56-1-1.16-1.9-1.74-2.84l-.87-1.4-.48-.79-.7-1.23a54.58,54.58,0,0,1-7.18-21.39,68.32,68.32,0,0,1-.45-10.7l.42-5c.15-1.67.44-3.18.69-4.77A116.31,116.31,0,0,1,204,174c1.69-5.25,3.6-10.16,5.36-14.82l2.65-6.91,1.23-3.35c.43-1.12.84-2.22,1.19-3.31l1.14-3.28.93-3a29.57,29.57,0,0,0,.84-3.14c.23-1.07.59-2.14.74-3.25s.41-2.22.63-3.35l.47-3.45c.21-1.16.29-2.33.39-3.52s.21-2.39.27-3.6A189.53,189.53,0,0,0,218.83,87.93Z" transform="translate(-51.97 -52.29)"/><path class="cls-5" d="M230.37,109.76a77.66,77.66,0,0,1-.55,26.64c-1.61,8.79-4.15,17.35-6.45,25.93q-1.77,6.43-3.2,12.92c-.38,2.17-.9,4.33-1.14,6.52-.14,1.1-.3,2.19-.42,3.29l-.22,3.29a42.28,42.28,0,0,0,6.13,25.08,142.06,142.06,0,0,1,11.07,24.35,127.14,127.14,0,0,1,6.18,26,99.42,99.42,0,0,1-.13,26.75,77.28,77.28,0,0,1-8.33,25.27,79.11,79.11,0,0,0,7.58-25.37A98.73,98.73,0,0,0,240.6,264a138.68,138.68,0,0,0-17.4-49.76,44,44,0,0,1-6.2-25.95c.52-9,2.76-17.74,5.24-26.27s5.1-17,6.84-25.75A79.41,79.41,0,0,0,230.37,109.76Z" transform="translate(-51.97 -52.29)"/><path class="cls-3" d="M143,167.29a54.78,54.78,0,0,1,11.1,9.7,71.09,71.09,0,0,1,8.87,12.2,69.39,69.39,0,0,1,6.31,14.37c.45,1.26.74,2.59,1.07,3.91s.67,2.65.86,4l.62,4.12c.17,1.34.25,2.59.36,3.9.27,2.61.27,5.08.37,7.63s0,5,0,7.35c-.13,4.84-.36,9.42-.55,13.76s-.27,8.38-.1,12a36.37,36.37,0,0,0,1.35,9.29c.1.32.17.65.24,1l.36.86.33.88.15.44.23.39c.29.52.54,1.07.8,1.62s.72,1,1.05,1.54l.23.41c.09.14.37.49.54.73l1.19,1.58c.78,1.06,1.6,2.1,2.29,3.2,1.45,2.17,2.91,4.33,4.17,6.59a106.82,106.82,0,0,1,11.73,28.6,84.64,84.64,0,0,1,2.09,31c-1.35,10.26-4.94,20.28-11.29,27.84-.25-2.53-.31-4.9-.49-7.22-.33-2.36-.54-4.61-.9-6.82a98,98,0,0,0-3.1-12.74,126.64,126.64,0,0,0-10-22.86,161.62,161.62,0,0,0-13.41-20.46c-1.22-1.61-2.46-3.17-3.73-4.7-.62-.79-1.28-1.51-1.91-2.25l-1-1.11-.53-.62-.78-1a48.28,48.28,0,0,1-9.21-17.76,60.64,60.64,0,0,1-1.84-9.34l-.32-4.46c-.09-1.49,0-2.86,0-4.29a103.73,103.73,0,0,1,1.54-15.65c.77-4.84,1.78-9.42,2.69-13.76s1.86-8.55,2.61-12.63l.55-3,.41-2.8a24.86,24.86,0,0,0,.31-2.88c.05-1,.23-2,.21-3a90.87,90.87,0,0,0-.35-12.47A168,168,0,0,0,143,167.29Z" transform="translate(-51.97 -52.29)"/><path class="cls-5" d="M156.09,184.84a67.56,67.56,0,0,1,3.54,23.48c-.1,8-1.07,15.88-1.89,23.73q-.63,5.89-1,11.75c0,1.95-.18,3.91-.08,5.84,0,1,0,1.94.09,2.91l.27,2.87a36.75,36.75,0,0,0,8.62,20.7,119.58,119.58,0,0,1,22,42.18,86.36,86.36,0,0,1,3.28,23.7,67.55,67.55,0,0,1-4.3,23.35c4.57-15.24,3.33-31.5-1.27-46.36a118.71,118.71,0,0,0-9.14-21.5,124.41,124.41,0,0,0-12.91-19.38,39.57,39.57,0,0,1-9.13-22.37c-.73-8.12.11-16.13,1.19-24s2.3-15.64,2.76-23.5A71.8,71.8,0,0,0,156.09,184.84Z" transform="translate(-51.97 -52.29)"/><path class="cls-5" d="M366.14,209.58a100.5,100.5,0,0,0-9.85,5.93,3.1,3.1,0,0,1-4.71-3.4c1.72-6.7,3.59-14.51,4.13-19.05,1.62-11.58,1.49-24.4.49-36.2a194.34,194.34,0,0,0-3.43-23.68c-.13,18.44-.59,40.56-4,58.67-.72,4.25-3.2,12.77-6,22.8a3.08,3.08,0,0,1-5.89.2c-1.4-3.95-2.85-8-4.1-11.22-3.41-9.16-8.66-22-13.08-30.83,2.07,7.69,7.48,26.39,9.23,32.17,1.32,4.57,3.48,11.69,5.66,18.8a38.6,38.6,0,0,1,.77,19.7,273.56,273.56,0,0,0-5,29.44c-1.77,15.25-1.83,32.94,2.36,47.82-.66-13.59.18-27.84,3.91-46.86,2.2-11.41,4.47-21.17,7.32-32.3A38.09,38.09,0,0,1,357.23,221a130.65,130.65,0,0,1,11-7.63c9.49-6,22-12.21,32-16.91A153.7,153.7,0,0,0,366.14,209.58Z" transform="translate(-51.97 -52.29)"/><g class="cls-6"><path class="cls-7" d="M403.19,197.11c-.81-3.2-5.26-4.81-9.94-3.58a29.77,29.77,0,0,0-3.8,1.33,12,12,0,0,1-9.27.07,12.1,12.1,0,0,0-4.65-.94c-6.76,0-13.16,5.33-15.8,10.44-.71,1.38.12,2.83.08,4.31-.43,16.13,7.48,13.66,16.07,13.66s14.72-5.11,14.72-12.08c0-.3,0-.6,0-.9a3.53,3.53,0,0,1,3.11-3.86,18.59,18.59,0,0,0,2.51-.43C400.86,203.9,404,200.31,403.19,197.11Z" transform="translate(-51.97 -52.29)"/><path class="cls-8" d="M350.16,267.42a50,50,0,0,1,.49-12.28,18.17,18.17,0,0,0-4.25-14.57c-.35-.41-.69-.78-1-1.11a12.75,12.75,0,0,1-3.62-9.5,12.06,12.06,0,0,0-2.21-7.45,16.54,16.54,0,0,0-4.5-4.43,18.7,18.7,0,0,1-7.8-11.68c-1-4.45-4.08-8.87-12.2-9.26-2.86-3.31-6.27-5.5-10.5-4.51-5.14,1.19-9.21,8.39-11.9,13.44-2.86,5.38-5.94,16.12-.13,22.31,2.84,3,4.34,11,2.26,14.72-6.8,12,4.57,31.57,1.76,41.47-1.31,4.58-1.68,9.11.17,12.33a13.32,13.32,0,0,0,14.77,6.52,6.19,6.19,0,0,1,3.93.45h0c10.85,4.94,25-3.16,31.56-18.09A37.21,37.21,0,0,0,350.16,267.42Z" transform="translate(-51.97 -52.29)"/><path class="cls-9" d="M198.67,367.56c.89-2.27,1.53-4.64,2-5.5a13.27,13.27,0,0,1,1.18-1.42c.61-.73,1.68-1.77,1.82-2.73l.66-4c.28-1.94,1.42-3.27,3.33-3h0c2.07.31,2.75,2.25,2.2,4.3l-.41,2.81a12.29,12.29,0,0,0,.14,5c.51,3.42-.88,7.16-2.27,10.06-.88,1.81-3.44,2.62-6.9,3.5-1.7.43-4.47.58-3.15-1.22,1.1-1.52,6.26-3.2,5.58-8.59,0-.26-.16-.94-.48-1-1-.17-1.44,1.95-2.05,2.92-.85,1.38-1.95,1.82-2.55,1.57S198,369.17,198.67,367.56Z" transform="translate(-51.97 -52.29)"/><path class="cls-10" d="M200.59,237c10.21,15.11,27,46.41,23.48,69.9-2.41,16.06-14.13,50-14.13,50a21.82,21.82,0,0,1-3.2-.18,15.88,15.88,0,0,1-3.1-.88s8.74-46.89,7.28-55.26-21.23-48.1-22.7-56.46C186.52,234.31,194.87,228.49,200.59,237Z" transform="translate(-51.97 -52.29)"/><polygon class="cls-9" points="154.07 274.75 140.86 180.36 105.22 175.39 86.68 274.06 154.07 274.75"/><path class="cls-9" d="M178.49,473.28l0,10.64a23.41,23.41,0,0,1-.86,6.4l-.91,3.28a4.19,4.19,0,0,0,4,5.35c7.13,0,19.31,0,22.45,0a1,1,0,0,0,1.06-.87c.26-3.11-8.56-5.19-15.21-7.81-5.06-2-4.79-11.24-4.16-16.64a3.23,3.23,0,0,0-3.46-3.61h0A3.24,3.24,0,0,0,178.49,473.28Z" transform="translate(-51.97 -52.29)"/><path class="cls-9" d="M129.51,470.3l-3.61,12.17a5.47,5.47,0,0,1-.7,1.51l-2.56,3.86A4.42,4.42,0,0,0,125,494.5s5.15,1.84,10.46,3.62,12.28.3,12.28-1.16c0-3.24-3-.67-8-4.06-1.67-1.13-3.39-2.32-4.93-3.54-4.28-3.42-.54-12.08,2.08-17a3,3,0,0,0-2-4.34l-1.24-.27A3.57,3.57,0,0,0,129.51,470.3Z" transform="translate(-51.97 -52.29)"/><path class="cls-11" d="M166.34,328l39.49-3.37s4,29.23-6,82.13c-4.68,24.81-14.44,72.22-14.44,72.22a11,11,0,0,1-7.38.71s-.74-20.91-1.19-43.43c-.44-21.6-.56-44.68-1.91-52.23C172.15,368.56,166.34,328,166.34,328Z" transform="translate(-51.97 -52.29)"/><path class="cls-12" d="M177.83,474.39c.61-4.63,2.55-41.88,5.89-54.26,4.56-16.87-8.51-35.77-4.48-48,11.83-35.84,2.84-43.69,2.84-43.69L166.34,328s5.81,40.61,8.57,56c1.35,7.55,1.47,30.63,1.91,52.23C177.13,451.89,177.59,466.78,177.83,474.39Z" transform="translate(-51.97 -52.29)"/><path class="cls-11" d="M174.49,328.46c4.08,22.25,13.19,55.52-4.36,86.78s-36,63.75-36,63.75a9.9,9.9,0,0,1-6.53-2.32s3.08-14.17,7.53-30.72c5.08-18.93,11.53-41.19,9.69-52.8-3.44-21.75-7.39-50.73-6.19-64.8S172.34,316.76,174.49,328.46Z" transform="translate(-51.97 -52.29)"/><path class="cls-13" d="M205.5,328.38a3.56,3.56,0,0,0,1.91-3.75l-14.58-92-35.64-5L138,324.8a3.34,3.34,0,0,0,2.6,3.95,224.56,224.56,0,0,0,40.56,3.95C194.56,332.7,202.08,330.06,205.5,328.38Z" transform="translate(-51.97 -52.29)"/><path class="cls-10" d="M165.2,252c-4.35,12-11.26,35.56-7.3,56.3,5.59,29.23,12.78,41,3.47,47.86s-27.19-4.56-27.7-8.35,3.47-50.33,8-70.49,17.2-49.15,17.2-49.15l6.61.6S167.27,246.33,165.2,252Z" transform="translate(-51.97 -52.29)"/><path class="cls-14" d="M160.31,255.4a42.19,42.19,0,0,0,3.27-20.2h0a4.88,4.88,0,0,0-8.4,1.24c-3.94,9.92-10.46,27.34-13.51,40.92C137.14,297.52,157.86,260.94,160.31,255.4Z" transform="translate(-51.97 -52.29)"/><path class="cls-10" d="M186.58,231.78s2.76,13.11.6,32.62-7.15,79,10.32,87.92c5.53,2.84,18.16-11.81,18.16-14.41,0-4.67-4.21-20.3-8.21-34.51-3.21-11.41-6.45-49.54-7.6-64.11a7.1,7.1,0,0,0-6.06-6.5Z" transform="translate(-51.97 -52.29)"/><path class="cls-15" d="M133.44,301.92s-4.84,5.46-4.14,6.34,3.33-1.59,3.76-1.42-3.72,5.21-4.57,6.07-.36,1.45.52,1.74c.57.19.25,1.71.57,2.25s.85,1.53,2,1.31,6.77-7.55,6.61-10.5S135.86,301,133.44,301.92Z" transform="translate(-51.97 -52.29)"/><path class="cls-9" d="M139,300.21a25.58,25.58,0,0,1-2.76-1.74c-1.14-.85-2.73-2.05-4.61-3.44a3.22,3.22,0,0,0-5,1.77h0a3.29,3.29,0,0,0,1.73,3.84c2.43,1.18,4.41,2.14,5.56,2.72a4.23,4.23,0,0,1,2,1.8c.58,1,.64,1.71.6,4.43s-1.55,3.66-2.39,5c-1.54,2.44-4.29,3.61-2.81,4.4,1.19.65,4.05-.68,5.91-3.1a19.91,19.91,0,0,0,3-5.29C142.75,303.54,140.48,301.05,139,300.21Z" transform="translate(-51.97 -52.29)"/><path class="cls-16" d="M160.76,191.89s.67,5.46-2.57,9.45,1.47,7.72,2.57,10.44-.26,6.75,2.81,8.59,11.83,2.34,13.22-.91S170.64,190,160.76,191.89Z" transform="translate(-51.97 -52.29)"/><path class="cls-16" d="M196,199.08c.47,17.86-15.88,21.29-25.39,21.29s-9.89-21.41-9.89-29.13,7.47-8.93,17-8.93c7.49,0,14.58,5.9,17.5,11.56C196,195.4,196,197.44,196,199.08Z" transform="translate(-51.97 -52.29)"/><path class="cls-9" d="M178.18,189.21c-8,0-10.92,5.76-11.07,16.41-.06,4,1.71,7.94,3.13,10.46a8.05,8.05,0,0,1,.74,6.17l-1.75,6c-1.18,5.57,1.42,8.63,5.27,9.74a7.35,7.35,0,0,0,5.85-1c2-1.3,2.14-4.09,1.77-6.46l-.45-1.71a4.27,4.27,0,0,1,3-5.31c6.13-1.36,7-7.85,8.65-17.93C195,195.11,186.14,189.21,178.18,189.21Z" transform="translate(-51.97 -52.29)"/><path class="cls-16" d="M196.71,184.53l-4.56,1.41a8.94,8.94,0,0,1-5.15,0l-9.11-2.69c-5.52,0-14.63,3.17-13.48,11.26l1,5.73a5.09,5.09,0,0,0,4.56,4.19h0a1.78,1.78,0,0,0,3.51-.47h0a5.47,5.47,0,0,1,4.26-5.35,19.48,19.48,0,0,1,9.68.07c6.33,1.73,13-2.26,13.64-8.9,0-.42.06-.84.06-1.27C201.14,185.87,199,183.9,196.71,184.53Z" transform="translate(-51.97 -52.29)"/><path class="cls-9" d="M171.49,205.81c0,2.47-.9,4.47-3.24,4.47s-3.84-3.39-3.84-5.86,1.5-3.08,3.84-3.08S171.49,203.34,171.49,205.81Z" transform="translate(-51.97 -52.29)"/><path class="cls-17" d="M191,213.19a1.85,1.85,0,0,1-1.78,2.25h0a1.82,1.82,0,0,1-1.82-1.74v-7.88a1.15,1.15,0,0,1,.32-.79,1.1,1.1,0,0,1,.77-.32.87.87,0,0,1,.85.7Z" transform="translate(-51.97 -52.29)"/><path class="cls-10" d="M146.82,229.4c-14.22,7.86-27.39,18.93-48.54,44.78a4.87,4.87,0,0,0,.23,6.44c4.52,4.71,15,14,35.11,24a14.75,14.75,0,0,0,2.7-7.23S116.29,277,115.1,276c0,0,33.65-20.29,42-27.6S165,233,162.4,229.7,150.56,227.33,146.82,229.4Z" transform="translate(-51.97 -52.29)"/><path class="cls-18" d="M174.62,246a1.08,1.08,0,0,0-1,.77c-1.22,4-6.77,22.24-8,32.1-1,8,2.19,22.17,4,29.36a11.05,11.05,0,0,0,5,6.77l1.25.75a2.19,2.19,0,0,0,3-.82l1-1.79a5.29,5.29,0,0,0,.35-4.46c-2.16-5.7-7.44-20.83-7-30.88.16-3.54,3.53-25,4.39-30.53a1.09,1.09,0,0,0-1.07-1.27Z" transform="translate(-51.97 -52.29)"/><path class="cls-8" d="M175.83,243.3a1.08,1.08,0,0,0-1,.79c-1.14,4-6.28,22.39-7.3,32.27-.83,8.06,2.68,22.12,4.68,29.27a11,11,0,0,0,5.17,6.64l1.27.73a2.2,2.2,0,0,0,3-.89l1-1.82a5.24,5.24,0,0,0,.25-4.46c-2.27-5.65-7.9-20.66-7.67-30.72.08-3.53,3-25.12,3.72-30.61a1.1,1.1,0,0,0-1.1-1.25Z" transform="translate(-51.97 -52.29)"/><path class="cls-8" d="M178.8,243.84h-3.42a1.05,1.05,0,0,1-1-1.06V239.3a1.06,1.06,0,0,1,1-1.06l3.09-.34a1.73,1.73,0,0,1,1.37,1.4v3.48A1.05,1.05,0,0,1,178.8,243.84Z" transform="translate(-51.97 -52.29)"/><path class="cls-13" d="M169.45,227.52l-5.78,1s1.15,9.48,5.76,16.57a.85.85,0,0,0,1.41,0l4.1-5.79a2.1,2.1,0,0,0,.1-2.26Z" transform="translate(-51.97 -52.29)"/><path class="cls-13" d="M182,230l5.77,1.93s.18,5.86-4.26,12.6a.85.85,0,0,1-1.41,0l-3.35-5.29a2.14,2.14,0,0,1-.13-2Z" transform="translate(-51.97 -52.29)"/><path class="cls-19" d="M304.05,236.15c-1.92-9.74-25-6.4-6.09-32.13a1.64,1.64,0,0,1,2.09-.58c1.94,1,7.37.54,10.53,2.37,5.93,3.43,16.3,14.2,15.15,21-2.45,14.59,8.77,24,12.65,39,3.82,15.45-17.92,36.3-30.91,34.59a13,13,0,0,1-9.84-6.78,11.74,11.74,0,0,1-1.12-9.07l0-.05C299.34,274.67,310.48,268.65,304.05,236.15Z" transform="translate(-51.97 -52.29)"/><polygon class="cls-9" points="298 272.41 309.94 187.17 342.13 182.67 358.87 271.79 298 272.41"/><path class="cls-9" d="M343.25,359.21c-.49-2.15-.75-4.35-1-5.18a10.41,10.41,0,0,0-.86-1.43,6.43,6.43,0,0,1-1.27-2.68l-.06-3.67c0-1.77-.84-3.11-2.58-3.11h0c-1.89,0-2.75,1.63-2.53,3.54v2.57a11.29,11.29,0,0,1-.79,4.45c-.9,3-.15,6.52.71,9.3.54,1.74,4.64,1.4,7.86,1.11,2.16-.19,4.72-.88,4.25-1.87-.72-1.53-8.61.45-7.29-4.27.06-.23.27-.82.56-.83.87,0,1,1.94,1.44,2.89.58,1.34,1.51,1.89,2.07,1.74S343.6,360.74,343.25,359.21Z" transform="translate(-51.97 -52.29)"/><path class="cls-10" d="M356.54,241.75s-28,38.33-28,59.78c0,14.67,6.05,46.59,6.05,46.59a20.23,20.23,0,0,0,2.88.27,15,15,0,0,0,2.89-.36s-.19-40.8,2.21-48.07,25.78-42,26.24-49.63S361.27,235.57,356.54,241.75Z" transform="translate(-51.97 -52.29)"/><path class="cls-11" d="M385.83,325.53l-35.67-3s-3.59,26.4,5.42,74.18c4.23,22.41,13,65.23,13,65.23a10,10,0,0,0,6.67.65s.67-18.89,1.08-39.23c.39-19.51.49-40.36,1.72-47.18C380.58,362.2,385.83,325.53,385.83,325.53Z" transform="translate(-51.97 -52.29)"/><path class="cls-12" d="M362.48,323.53c-.59,6.14-1.75,12.17-2.66,18.28a103.47,103.47,0,0,0-.36,23.07l0,.2a118.27,118.27,0,0,0,6.77,31.22c1.21,3.37,2.48,7.31,3.88,12.48,3,11.19,4.77,44.83,5.32,49,.22-6.87.63-20.32.92-34.48.39-19.51.49-40.36,1.72-47.18,2.49-13.93,7.74-50.6,7.74-50.6Z" transform="translate(-51.97 -52.29)"/><path class="cls-11" d="M378.47,326c-3.69,20.09-11.91,50.14,3.94,78.37s32.49,57.58,32.49,57.58a9,9,0,0,0,5.9-2.09s-2.78-12.8-6.8-27.74c-4.59-17.1-10.41-37.21-8.76-47.69,3.11-19.65,6.68-45.82,5.6-58.53S380.4,315.42,378.47,326Z" transform="translate(-51.97 -52.29)"/><path class="cls-13" d="M348.74,322.53l13.16-83.07L394.1,235l17.3,87.72a3,3,0,0,1-2.35,3.56,203.37,203.37,0,0,1-36.63,3.57c-12.08,0-18.87-2.39-22-3.9A3.21,3.21,0,0,1,348.74,322.53Z" transform="translate(-51.97 -52.29)"/><path class="cls-10" d="M384,240.14a52.2,52.2,0,0,0,3.08,17.54c3.93,11,9.83,31.81,6.33,50.14-5.05,26.4-11.54,37.07-3.13,43.22s24.55-4.11,25-7.54-3.14-45.45-7.23-63.67-15.53-44.39-15.53-44.39l-4.85.53a4.17,4.17,0,0,0-3.69,4.17Z" transform="translate(-51.97 -52.29)"/><path class="cls-20" d="M406.06,316.63a51,51,0,0,0-5.24-15,83.24,83.24,0,0,1-8.07-23.35A138.26,138.26,0,0,0,387,257.4a51.26,51.26,0,0,1-3-17.35v-3.68l9-1.34s11,26.59,15.09,44.8,7.69,60.25,7.23,63.67c-.32,2.31-7.74,7.71-15.13,9.12C401.15,351.33,409.31,335,406.06,316.63Z" transform="translate(-51.97 -52.29)"/><path class="cls-10" d="M370.64,238.24s-5.59,12.27-3.64,29.89,6.46,71.3-9.32,79.41c-5,2.56-16.4-8.8-16.4-13s3.81-18.33,7.42-31.16c2.91-10.36,6.83-45.23,8.23-58.29.32-2.94.75-5.27,3.63-5.67Z" transform="translate(-51.97 -52.29)"/><path class="cls-7" d="M388.77,205.25a2.7,2.7,0,0,1,3.18,3.37,9.28,9.28,0,0,0,0,4.64c1,3.84-3.43,4.93-5,6.48s-1.92,4.81-4.64,5.12-9-2.17-9-4.89C373.29,217.77,382.06,207,388.77,205.25Z" transform="translate(-51.97 -52.29)"/><path class="cls-9" d="M375.13,200.22c7.19,0,9.87,5.2,10,14.82a19.85,19.85,0,0,1-2.82,9.45,7.18,7.18,0,0,0-.67,5.57l1.57,5.42c1.08,5-1.28,7.8-4.75,8.81a6.66,6.66,0,0,1-5.28-.88c-1.79-1.17-1.94-3.7-1.6-5.83L372,236a3.85,3.85,0,0,0-2.71-4.79c-5.53-1.23-6.32-7.1-7.81-16.2C359.92,205.55,368,200.22,375.13,200.22Z" transform="translate(-51.97 -52.29)"/><path class="cls-7" d="M360.21,201.64a5.41,5.41,0,0,1,4.51-4.9,25.75,25.75,0,0,0,2.88-.43l7.8-1.44c5,0,13.21,2.86,12.17,10.17l-.88,5a4.86,4.86,0,0,1-4.16,4h0a1,1,0,0,0-.88,0,1.06,1.06,0,0,0-.56.71l-.64,2.82c-.89,0-1.09-3.06-1.09-4a5,5,0,0,0-3.84-4.83c-2.75-.62-3.36-2.8-6.43-2l-2.3.79c-2.63.71-6-1.23-6-4C360.84,203.13,360.21,202.18,360.21,201.64Z" transform="translate(-51.97 -52.29)"/><path class="cls-9" d="M381.17,215.21c0,2.23.82,4,2.93,4s3.47-3.07,3.47-5.3-1.36-2.77-3.47-2.77S381.17,213,381.17,215.21Z" transform="translate(-51.97 -52.29)"/><path class="cls-17" d="M363.58,221.88a1.67,1.67,0,0,0,1.61,2h0a1.66,1.66,0,0,0,1.65-1.58v-7.11a1,1,0,0,0-.29-.71.94.94,0,0,0-.69-.29.79.79,0,0,0-.77.63Z" transform="translate(-51.97 -52.29)"/><path class="cls-7" d="M365.78,206.48c-2.78.76-4.37,5.46-4.47,7.33h-.07a1,1,0,0,1-1-1.05V209.7c0-.53,1.56-4,2.08-4Z" transform="translate(-51.97 -52.29)"/><path class="cls-9" d="M412.45,354.69c.5-2.15.76-4.35,1-5.18a12,12,0,0,1,.86-1.43,6.31,6.31,0,0,0,1.27-2.68l.06-3.67c0-1.77.85-3.12,2.59-3.12h0c1.89,0,2.74,1.64,2.53,3.55v2.57a11.1,11.1,0,0,0,.78,4.45c.91,3,.16,6.52-.7,9.29-.55,1.75-2.73,2.81-5.71,4.07-1.46.61-3.91,1.13-3-.66.79-1.5,5.17-3.71,3.86-8.43-.06-.23-.27-.82-.56-.83-.87,0-1,1.94-1.45,2.89-.58,1.34-1.5,1.88-2.07,1.74S412.1,356.22,412.45,354.69Z" transform="translate(-51.97 -52.29)"/><path class="cls-10" d="M399.17,237.23s28,38.32,28,59.78c0,14.67-6.05,46.58-6.05,46.58a19.75,19.75,0,0,1-2.89.28,14.42,14.42,0,0,1-2.88-.37s.19-40.79-2.22-48.07-25-42.05-26.23-49.62C385.63,237.8,392.24,231.19,399.17,237.23Z" transform="translate(-51.97 -52.29)"/><path class="cls-10" d="M311.88,236.61a29.86,29.86,0,0,0-10.49-1.39,8,8,0,0,0-2.48.09s-10.56-.06-38.38,21.15a3.21,3.21,0,0,1-2.61.61l-36.05-7.33A3.23,3.23,0,0,0,218,252.8s0,.1,0,.15a3.24,3.24,0,0,0,2,2.86c6.25,2.6,31.37,12.77,44.57,13.57,4.83.29,10.5-1.15,16.12-3.48a3.29,3.29,0,0,1,4.49,3.61c-1.29,8.06-2.83,16.56-4.42,22.83-4.08,16.2-19.23,53.07-15.14,56.27s27.89,2.68,30.77-.48S321,239.4,311.88,236.61Z" transform="translate(-51.97 -52.29)"/><path class="cls-11" d="M296.77,304.67A14.64,14.64,0,0,0,284,317a234.63,234.63,0,0,0,1.14,75.84l9.62,73.65a6.89,6.89,0,0,0,5.38-.64S307.45,358.35,311.77,336s.4-32.74.4-32.74Z" transform="translate(-51.97 -52.29)"/><path class="cls-12" d="M296.11,392.88c2-29.94,14.41-48.79,9.36-88.49,0-.23,0-.45,0-.67l6.72-.51s3.93,10.34-.4,32.74c-3.61,18.74-9.34,97-11.12,122.12C299.75,421.71,295.17,407.26,296.11,392.88Z" transform="translate(-51.97 -52.29)"/><path class="cls-11" d="M317.46,302.76a16.14,16.14,0,0,1,16.17,11.6c3.17,10.71,6.22,28.75,3.37,55,0,0-2.2,14.29,0,23.48s15.89,71.24,15.89,71.24a6.43,6.43,0,0,1-4.73,2.41s-24.49-50.69-30.62-69-16.81-77-14.66-93.51Z" transform="translate(-51.97 -52.29)"/><path class="cls-12" d="M330.77,367.89c1.87,4.46,3.65,9,5.26,13.6a99,99,0,0,1,1-12.09c2.85-26.29-.2-44.33-3.37-55a16.14,16.14,0,0,0-16.17-11.6l-5.29.45h0l-9.29.79a.28.28,0,0,1,0,.09l-6.1.58A14.64,14.64,0,0,0,284,317c-.37,2.37-.74,5.12-1.08,8.14C307,324.26,321.94,346.86,330.77,367.89Z" transform="translate(-51.97 -52.29)"/><path class="cls-13" d="M286.15,264.69c.23-3.69,4.19-13.72,7.29-18.23,0,0,5.71-9,11.79-10a56.57,56.57,0,0,1,20.8.1l6,1.18c5,1.53,2.58,7.3,1.68,12.49l-5.14,58.07c-9.25,6.64-27.08,8.68-43,7.07a2.74,2.74,0,0,1-2.34-3.5l8.34-29c1.85-7-.57-8.48-3.28-11.65A9.17,9.17,0,0,1,286.15,264.69Z" transform="translate(-51.97 -52.29)"/><path class="cls-9" d="M313.39,198.89c7.69.49,10.22,6.24,9.74,16.55-.18,3.86-2.12,7.58-3.65,9.93a7.77,7.77,0,0,0-1.08,5.92l1.34,5.92c.81,5.47-1.89,8.27-5.67,9.11a7.16,7.16,0,0,1-5.6-1.3c-1.84-1.37-1.83-4.09-1.34-6.35l.54-1.63a4.14,4.14,0,0,0-2.59-5.32c-1.71-.5-3.48-.29-4.7-1.26s-3.65-10.51-1.64-20.29C300.82,200.07,305.69,198.4,313.39,198.89Z" transform="translate(-51.97 -52.29)"/><path class="cls-17" d="M300.87,221.48a1.8,1.8,0,0,0,1.7,2.2h0a1.79,1.79,0,0,0,1.79-1.68l.09-7.63a1.06,1.06,0,0,0-.3-.76,1,1,0,0,0-.74-.33.87.87,0,0,0-.84.67Z" transform="translate(-51.97 -52.29)"/><path class="cls-9" d="M319.39,216.87c-.15,2.39-.28,5.39,1.78,5.52s4.4-4.09,4.55-6.48-1.14-3.06-3.21-3.19S319.53,214.48,319.39,216.87Z" transform="translate(-51.97 -52.29)"/><path class="cls-14" d="M317.7,254.24c-.59,12.29-3.9,25.14,3.46,46.33,5.36,15.43-8.15,32.47-3.33,48,2,6.58,24.1,6.78,31.76,1.48,2.14-1.48-6.45-43-13.38-57-5.51-11.13-.27-31.67,2.1-39.61a15.65,15.65,0,0,0-.2-9.94c-1-2.68-2.81-5.26-6.1-5.8C320,235.78,317.94,249.33,317.7,254.24Z" transform="translate(-51.97 -52.29)"/><path class="cls-21" d="M278.38,408.3a9.33,9.33,0,0,1-9.21,8.26H221.32a9.37,9.37,0,0,1-9.16-10.86l13.78-90.94s31.44-9,37.86-1.84C284.73,336.27,280.83,388.12,278.38,408.3Z" transform="translate(-51.97 -52.29)"/><path class="cls-11" d="M263.8,312.92c-6.42-7.17-37.86,1.84-37.86,1.84L224,327.41c56.35.18,40.43,73.51,31.88,89.15h13.27a9.33,9.33,0,0,0,9.21-8.26C280.83,388.12,284.73,336.27,263.8,312.92Z" transform="translate(-51.97 -52.29)"/><ellipse class="cls-16" cx="192.23" cy="165.03" rx="17.58" ry="15.64"/><path class="cls-20" d="M250.45,320l-11.11.34c-7.5.23-14-1.44-14.81-9l-10.67-55.72c-.15-4,3-8,6.5-9.83,0,0,30.88-5.81,42.91,1.11l.94.34a11.34,11.34,0,0,1,5.68,9.36l-5.72,54.15C263.54,318.1,257.72,319.79,250.45,320Z" transform="translate(-51.97 -52.29)"/><path class="cls-22" d="M267.93,250.72c-.43.76-.9,1.5-1.4,2.22a34.47,34.47,0,0,0-6.11,18.72c-.13,5.87.46,12-1.29,15.9-2.13,4.72-9.9,4.72-13.75,1.31l-.13-.12a5.82,5.82,0,0,0-7.84-.36,12,12,0,0,1-8.14,2.9,11.7,11.7,0,0,1-9.37-4.16l4.63,24.2c.78,7.59,7.31,9.26,14.81,9l11.11-.34c7.27-.23,13.09-1.92,13.72-9.28l5.72-54.15A10.48,10.48,0,0,0,267.93,250.72Z" transform="translate(-51.97 -52.29)"/><path class="cls-20" d="M229.46,263.47c-3.08,9.82-21,48-26.64,46.16s4.41-39.68,7.5-49.49,8.16-16.3,13.79-14.47S232.55,253.66,229.46,263.47Z" transform="translate(-51.97 -52.29)"/><path class="cls-20" d="M252.76,263.58c1.72,10.15,15.5,49.58,21.33,48.56s-.19-39-1.91-49.19-5.88-17.28-11.71-16.25S251,253.42,252.76,263.58Z" transform="translate(-51.97 -52.29)"/><path class="cls-17" d="M267.86,301.21c-6.5-1.29-47.81-7.21-48.51-3.56s39.47,15.47,46,16.76,10.12-1.14,10.83-4.78S274.35,302.5,267.86,301.21Z" transform="translate(-51.97 -52.29)"/><path class="cls-9" d="M250.66,228.3h-14.5a11.81,11.81,0,0,1,.68,6.51l-1.39,7.59c-.85,7,2,10.59,5.9,11.66a6.39,6.39,0,0,0,5.83-1.66c1.91-1.76,1.9-5.24,1.38-8.14l-.56-2.09C247.25,239.38,250.66,228.3,250.66,228.3Z" transform="translate(-51.97 -52.29)"/><path class="cls-17" d="M250.66,228.3h-14.5a11.81,11.81,0,0,1,.68,6.51l-.51,2.79a29,29,0,0,0,4.93,4.74,4.29,4.29,0,0,0,5.5-.16c.36-.29.75-.64,1.15-1C247.87,237.41,250.66,228.3,250.66,228.3Z" transform="translate(-51.97 -52.29)"/><path class="cls-17" d="M233.74,218.31c.14,2.3.27,5.2-1.72,5.32s-4.24-3.94-4.38-6.24,1.1-2.95,3.09-3.08S233.6,216,233.74,218.31Z" transform="translate(-51.97 -52.29)"/><path class="cls-17" d="M254,218.31c-.14,2.3-.26,5.2,1.73,5.32s4.24-3.94,4.38-6.24-1.1-2.95-3.09-3.08S254.1,216,254,218.31Z" transform="translate(-51.97 -52.29)"/><path class="cls-9" d="M257.18,218.33c0,10.18-6.58,17.13-10.42,20.33a4.29,4.29,0,0,1-5.5.15c-3.91-2.95-10.52-9.53-10.52-20.32,0-11.93,6.38-16.81,13.33-16.81S257.18,206.41,257.18,218.33Z" transform="translate(-51.97 -52.29)"/><path class="cls-17" d="M246.07,226.14a2.14,2.14,0,0,1-2.33,2.39h0a2.14,2.14,0,0,1-1.9-2.25l.93-9.13a1.27,1.27,0,0,1,1.39-1.15,1,1,0,0,1,.91.92Z" transform="translate(-51.97 -52.29)"/><path class="cls-16" d="M259,203.11a.75.75,0,0,1,0-.93,6.74,6.74,0,0,0-1-9.18,3.11,3.11,0,0,1-1-3,5.82,5.82,0,0,0-4.38-6.76,5.51,5.51,0,0,0-2.32,0,4.65,4.65,0,0,1-4.11-1,5.9,5.9,0,0,0-3.91-1.56,6,6,0,0,0-4.69,2.48,5.78,5.78,0,0,0-1.41,3.58,3.84,3.84,0,0,1-1.13,2.79,4.8,4.8,0,0,0-1.52,3.51,4.74,4.74,0,0,0,.65,2.4,3.36,3.36,0,0,1-1,4.31,16.77,16.77,0,0,0-1.63,1.34c-4.66,4.28-3.83,12.91-3.83,12.91h0a4,4,0,0,1,3,3.9v3.7a.66.66,0,0,0,.66.67.67.67,0,0,0,.66-.64l.11-2.43a6.05,6.05,0,0,1,4.4-5.53,10.42,10.42,0,0,0,4.19-2.27,18.54,18.54,0,0,0,2.93-3.44,4.69,4.69,0,0,1,5.53-1.88,12,12,0,0,1,5.43,5.3,11.53,11.53,0,0,1,1.48,5.69v4.83a.66.66,0,1,0,1.32,0v-2.44a3.8,3.8,0,0,1,.82-2.3C260.72,214,262.48,207.43,259,203.11Z" transform="translate(-51.97 -52.29)"/><path class="cls-9" d="M262.45,300.3a18.83,18.83,0,0,0-2.77-5.71c-1.18-1.37-6.05-.18-8.88.66a12.64,12.64,0,0,1-4.37.52c-10.8-.55-31.58-.25-36.4.71-6.49,1.29-9.64,6.49-8.89,10.12,1.2,5.83,4.68,7.15,11.18,5.86,4.64-.92,23.76-7.1,34.08-11.88a15.59,15.59,0,0,1,8.7-1.28Z" transform="translate(-51.97 -52.29)"/><path class="cls-8" d="M324.49,204.09c-8.29-10.31-20-9.75-25.59-4.41a12.86,12.86,0,0,1-8.24,3.77,1.49,1.49,0,0,0-1.11,2.41,9.85,9.85,0,0,0,9.52,3.87,8.87,8.87,0,0,0,4.45-2.32,4.29,4.29,0,0,1,2.65-1.17h0a8.27,8.27,0,0,1,5.5,1.83,8.42,8.42,0,0,0,3.22,1.64l1.48.35a2.47,2.47,0,0,1,1.88,2.6l-.48,4.91a.91.91,0,0,0,1.48.78h0a7.45,7.45,0,0,1,3.73-4.59C326,212.19,329.2,210,324.49,204.09Z" transform="translate(-51.97 -52.29)"/><path class="cls-9" d="M321.74,357.7c0-2.24-.66-4.92-.57-5.81,0-.24.62-3.5,1-5.79a9.62,9.62,0,0,1,2.16-4.55,6,6,0,0,1,2.49-2s2.76,1,3,2.91l-2.1,3.36a11.46,11.46,0,0,0,1.8,4.23c1.58,2.75.26,6.62,0,9.58-.14,1.85-3.85,8.74-4.6,7.95s.58-3.67,1.1-5.66c.44-1.68-.22-4.72-1-6.34-.11-.22-.46-.74-.75-.68-.87.17-.58,2.15-.77,3.2-.28,1.46-1.07,2.22-1.66,2.21S321.74,359.3,321.74,357.7Z" transform="translate(-51.97 -52.29)"/><path class="cls-10" d="M322.6,246.43s1,12.63,9.67,48.15L322.5,342c.57,2.58,5.39,3.85,7.17,2.8,0,0,12.46-34.78,15.26-46.79,3.49-15-2.79-50.57-7.4-57S321.28,238.1,322.6,246.43Z" transform="translate(-51.97 -52.29)"/></g><path class="cls-23" d="M455.8,222h-1.34a180.43,180.43,0,0,1-8.41,46.47c-12.53,39.2-37.19,71.79-69.44,91.78s-68.15,24.95-101.19,14c-2.09-.69-4.18-1.44-6.22-2.25-17.69-7-38.19-7.31-59.28-.8a93.61,93.61,0,0,1-57.24-.41c-38-12.54-64.49-48.48-67.52-91.54H83.82c-3.5,49.84,24.64,94.76,68.45,109.23a95,95,0,0,0,58,.42c20.8-6.42,41-6.16,58.4.75,2.06.82,4.17,1.59,6.29,2.29a112.2,112.2,0,0,0,35.3,5.67c58.25,0,115.35-44.53,137-112.38A179,179,0,0,0,455.8,222Z" transform="translate(-51.97 -52.29)"/><ellipse class="cls-24" cx="29.08" cy="18.02" rx="17.72" ry="18.02"/><path class="cls-25" d="M74.28,152.36c0,4.87-5,8.83-11.16,8.83S52,157.23,52,152.36s5-8.84,11.15-8.84S74.28,147.48,74.28,152.36Z" transform="translate(-51.97 -52.29)"/><path class="cls-26" d="M170.76,109.76a19.9,19.9,0,0,0-.58-4.71,19.13,19.13,0,0,0-15.77-14.38,18.62,18.62,0,0,0-13.7,3.48,53.66,53.66,0,0,1-18.09,8.8c-13.94,3.7-23.85,13.1-23.85,24.12,0,14.25,16.56,25.81,37,25.81s37-11.56,37-25.81a18.12,18.12,0,0,0-.38-3.69A67.32,67.32,0,0,1,170.76,109.76Z" transform="translate(-51.97 -52.29)"/><path class="cls-27" d="M232,406.28c-12.65,0-20.06,3.94-23.27,10.33A22.11,22.11,0,0,1,195,427.73C188.58,429.64,184,434.84,184,441c0,7.75,7.38,14,16.48,14A18.62,18.62,0,0,0,209,453a43.7,43.7,0,0,1,20.27-5.35H232c17.76,0,32.15-9.25,32.15-20.66S249.78,406.28,232,406.28Z" transform="translate(-51.97 -52.29)"/></g></svg>