<?xml version="1.0" encoding="utf-8"?>
<!-- Generator: Adobe Illustrator 25.2.0, SVG Export Plug-In . SVG Version: 6.00 Build 0)  -->
<svg version="1.1" id="Layer_1" xmlns="http://www.w3.org/2000/svg" xmlns:xlink="http://www.w3.org/1999/xlink" x="0px" y="0px"
	 viewBox="0 0 5000 3500" style="enable-background:new 0 0 5000 3500;" xml:space="preserve">
<style type="text/css">
	.st0{fill:#EDF5FC;}
	.st1{fill:#9BB2E1;}
	.st2{fill:#1B4A9E;}
	.st3{fill:#829ED9;}
	.st4{fill:#FFFFFF;}
	.st5{fill:#5D81C1;}
	.st6{fill:#0440A0;}
	.st7{fill:#FFC837;}
	.st8{fill:#3CD278;}
	.st9{fill:#FF5252;}
	.st10{fill:#071599;}
	.st11{fill:#D250DC;}
	.st12{opacity:0.15;}
	.st13{fill:#D7E7FF;}
	.st14{fill:#DAE3F7;}
	.st15{fill:#1258FF;}
	.st16{opacity:0.1;}
	.st17{fill:#1A1AAA;}
	.st18{fill:#FFC6B2;}
	.st19{fill:#F03232;}
	.st20{fill:none;}
	.st21{fill:#719BFF;}
	.st22{fill:#5388F2;}
	.st23{fill:#F0E6FF;}
	.st24{fill:#253066;}
	.st25{fill:#2A0054;}
	.st26{fill:#1B189B;}
	.st27{fill:#241DA8;}
	.st28{fill:#0F2593;}
</style>
<g id="About_Us">
	<g>
		<g>
			<g>
				<g>
					<g>
						<g>
							<path class="st0" d="M766.98,2784.2h3252.11c59.07-61.04,125.06-115.08,186.16-174.02
								c314.42-303.32,480.51-753.78,438.26-1188.61c-15.45-159.05-62.16-323.93-178.02-433.98
								c-153.51-145.8-398.89-159.97-595.69-81.94c-196.81,78.03-353.02,232.59-488.56,395.22
								c-135.54,162.64-257.38,338.36-414.3,480.49c-113.14,102.48-252.72,188.97-405.36,189.94
								c-237.49,1.5-424.6-197.93-557.02-395.08c-132.42-197.16-256.86-420.87-473.14-518.98
								c-159.91-72.54-348.11-62.31-514.23-5.43c-417.98,143.12-707.24,594.51-662.65,1034.06c9.36,92.29,33.43,182.84,69.69,268.17
								C496.72,2524.65,617.37,2674.52,766.98,2784.2z"/>
						</g>
					</g>
				</g>
				<g>
					<g>
						<g>
							<path class="st1" d="M1524.47,1841.31c-0.65,0-1.28-0.28-1.73-0.82l-16.84-20.67c-0.77-0.95-0.63-2.35,0.32-3.13
								c0.95-0.78,2.35-0.63,3.13,0.32l16.84,20.66c0.77,0.95,0.63,2.35-0.32,3.13C1525.46,1841.14,1524.96,1841.31,1524.47,1841.31
								z M1490.82,1799.94c-0.65,0-1.29-0.28-1.73-0.82c-5.59-6.91-11.18-13.82-16.75-20.76c-0.77-0.96-0.62-2.36,0.34-3.13
								c0.96-0.77,2.35-0.62,3.12,0.34c5.57,6.93,11.15,13.84,16.74,20.75c0.77,0.95,0.63,2.35-0.33,3.13
								C1491.81,1799.78,1491.31,1799.94,1490.82,1799.94z M1457.43,1758.36c-0.66,0-1.3-0.29-1.74-0.84
								c-5.54-6.96-11.05-13.94-16.54-20.94c-0.76-0.97-0.59-2.36,0.38-3.12c0.97-0.76,2.36-0.59,3.12,0.38
								c5.48,6.99,10.99,13.96,16.52,20.92c0.76,0.96,0.61,2.36-0.36,3.12C1458.4,1758.2,1457.91,1758.36,1457.43,1758.36z
								 M1424.51,1716.39c-0.67,0-1.32-0.3-1.76-0.86c-5.44-7.04-10.84-14.11-16.21-21.2c-0.74-0.98-0.55-2.37,0.43-3.11
								c0.98-0.74,2.37-0.55,3.11,0.43c5.36,7.08,10.76,14.14,16.19,21.17c0.75,0.97,0.57,2.37-0.4,3.12
								C1425.46,1716.24,1424.99,1716.39,1424.51,1716.39z M1392.33,1673.85c-0.68,0-1.35-0.31-1.79-0.9
								c-5.3-7.16-10.55-14.34-15.76-21.55c-0.72-0.99-0.49-2.39,0.5-3.1c1-0.72,2.39-0.49,3.1,0.5c5.2,7.2,10.44,14.37,15.73,21.51
								c0.73,0.99,0.52,2.38-0.46,3.11C1393.25,1673.71,1392.78,1673.85,1392.33,1673.85z M1361.11,1630.58
								c-0.7,0-1.39-0.33-1.82-0.95c-5.12-7.29-10.18-14.62-15.18-21.98c-0.69-1.02-0.43-2.4,0.59-3.09
								c1.02-0.69,2.4-0.43,3.09,0.59c4.99,7.34,10.04,14.65,15.14,21.92c0.71,1,0.46,2.39-0.54,3.09
								C1361.99,1630.45,1361.55,1630.58,1361.11,1630.58z M1331.14,1586.45c-0.72,0-1.43-0.35-1.86-1
								c-4.89-7.45-9.71-14.94-14.45-22.47c-0.66-1.04-0.34-2.41,0.69-3.06c1.05-0.65,2.41-0.34,3.06,0.7
								c4.73,7.51,9.53,14.97,14.4,22.4c0.67,1.03,0.39,2.4-0.64,3.08C1331.98,1586.33,1331.56,1586.45,1331.14,1586.45z
								 M1302.71,1541.3c-0.75,0-1.49-0.38-1.91-1.07c-4.6-7.63-9.13-15.31-13.56-23.02c-0.61-1.06-0.25-2.42,0.82-3.04
								c1.07-0.61,2.42-0.24,3.04,0.82c4.42,7.69,8.93,15.34,13.52,22.94c0.63,1.05,0.3,2.42-0.76,3.05
								C1303.5,1541.2,1303.1,1541.3,1302.71,1541.3z M1276.14,1495.05c-0.79,0-1.55-0.42-1.95-1.16
								c-4.3-7.89-8.51-15.84-12.51-23.61c-0.56-1.09-0.13-2.43,0.96-2.99c1.09-0.56,2.43-0.13,2.99,0.96
								c3.98,7.74,8.17,15.66,12.46,23.52c0.59,1.08,0.19,2.43-0.89,3.01C1276.86,1494.97,1276.5,1495.05,1276.14,1495.05z
								 M1251.76,1447.62c-0.83,0-1.62-0.46-2-1.26c-3.88-8.04-7.67-16.19-11.29-24.22c-0.5-1.12,0-2.44,1.12-2.94
								c1.11-0.5,2.43,0,2.94,1.12c3.59,8,7.37,16.11,11.23,24.11c0.53,1.11,0.07,2.43-1.04,2.97
								C1252.41,1447.55,1252.08,1447.62,1251.76,1447.62z M1229.91,1398.99c-0.87,0-1.7-0.52-2.05-1.37
								c-3.41-8.21-6.74-16.56-9.89-24.82c-0.44-1.15,0.14-2.43,1.28-2.87c1.14-0.44,2.43,0.14,2.87,1.29
								c3.13,8.22,6.44,16.53,9.84,24.7c0.47,1.13-0.07,2.43-1.2,2.9C1230.49,1398.93,1230.2,1398.99,1229.91,1398.99z
								 M1210.96,1349.18c-0.92,0-1.78-0.58-2.1-1.5c-0.93-2.7-1.85-5.41-2.76-8.12c-1.89-5.64-3.72-11.48-5.44-17.36
								c-0.35-1.18,0.33-2.41,1.51-2.76c1.17-0.35,2.41,0.33,2.76,1.51c1.71,5.83,3.52,11.61,5.38,17.2c0.9,2.7,1.82,5.39,2.75,8.08
								c0.4,1.16-0.21,2.43-1.38,2.83C1211.44,1349.14,1211.2,1349.18,1210.96,1349.18z M1195.96,1298.01c-1,0-1.92-0.69-2.16-1.71
								c-2.03-8.51-3.92-17.32-5.62-26.17c-0.23-1.21,0.56-2.37,1.77-2.6c1.18-0.22,2.37,0.56,2.6,1.77
								c1.68,8.79,3.56,17.53,5.58,25.97c0.28,1.19-0.45,2.39-1.65,2.68C1196.3,1297.99,1196.13,1298.01,1195.96,1298.01z
								 M1185.89,1245.65c-1.08,0-2.03-0.79-2.2-1.89c-1.3-8.69-2.45-17.62-3.43-26.53c-0.13-1.22,0.75-2.32,1.97-2.45
								c1.24-0.13,2.32,0.75,2.45,1.97c0.98,8.85,2.12,17.72,3.41,26.36c0.18,1.21-0.66,2.35-1.87,2.53
								C1186.11,1245.64,1186,1245.65,1185.89,1245.65z M1180.03,1192.65c-1.15,0-2.13-0.89-2.21-2.06
								c-0.65-8.8-1.17-17.78-1.52-26.7c-0.05-1.23,0.91-2.26,2.13-2.31c1.25-0.09,2.26,0.91,2.31,2.13
								c0.35,8.86,0.86,17.79,1.51,26.55c0.09,1.22-0.83,2.29-2.05,2.38C1180.14,1192.65,1180.08,1192.65,1180.03,1192.65z
								 M1177.89,1139.37c-1.22,0-2.21-0.99-2.22-2.21l-0.02-5.83c0-6.94,0.09-13.9,0.26-20.88c0.03-1.23,1.04-2.24,2.28-2.17
								c1.23,0.03,2.2,1.05,2.17,2.28c-0.17,6.94-0.26,13.87-0.26,20.77l0.02,5.8c0.01,1.23-0.98,2.23-2.21,2.24
								C1177.9,1139.37,1177.9,1139.37,1177.89,1139.37z M3630.35,1111.44c-6.33,0-12.66-0.06-18.99-0.19
								c-1.23-0.03-2.2-1.04-2.18-2.27c0.02-1.23,0.87-2.23,2.27-2.18c8.86,0.17,17.74,0.23,26.6,0.16c1.17,0.16,2.23,0.98,2.24,2.2
								c0.01,1.23-0.98,2.23-2.21,2.24C3635.51,1111.43,3632.93,1111.44,3630.35,1111.44z M3664.73,1110.82
								c-1.19,0-2.17-0.94-2.22-2.14c-0.05-1.23,0.91-2.26,2.14-2.3c8.87-0.32,17.8-0.77,26.57-1.33c1.2-0.07,2.28,0.85,2.36,2.07
								c0.08,1.23-0.85,2.28-2.07,2.36c-8.81,0.57-17.79,1.02-26.7,1.34C3664.78,1110.82,3664.75,1110.82,3664.73,1110.82z
								 M3584.75,1110.37c-0.03,0-0.07,0-0.11,0c-8.85-0.41-17.82-0.96-26.68-1.62c-1.22-0.09-2.14-1.16-2.05-2.38
								c0.09-1.22,1.11-2.15,2.38-2.05c8.82,0.65,17.75,1.2,26.56,1.61c1.23,0.06,2.17,1.1,2.12,2.32
								C3586.91,1109.44,3585.93,1110.37,3584.75,1110.37z M3717.95,1107.39c-1.14,0-2.1-0.86-2.21-2.02
								c-0.11-1.22,0.79-2.31,2.01-2.42c8.83-0.83,17.73-1.79,26.45-2.87c1.22-0.15,2.33,0.72,2.48,1.93
								c0.15,1.22-0.71,2.33-1.93,2.48c-8.77,1.08-17.71,2.05-26.58,2.88C3718.09,1107.38,3718.02,1107.39,3717.95,1107.39z
								 M3531.57,1106.42c-0.07,0-0.15,0-0.23-0.01l-3.24-0.33c-7.78-0.81-15.55-1.71-23.31-2.69c-1.22-0.15-2.08-1.27-1.93-2.48
								c0.15-1.22,1.27-2.09,2.48-1.93c7.72,0.97,15.46,1.87,23.22,2.68l3.23,0.33c1.22,0.12,2.11,1.22,1.99,2.44
								C3533.66,1105.57,3532.7,1106.42,3531.57,1106.42z M3770.89,1100.85c-1.08,0-2.02-0.79-2.19-1.88
								c-0.19-1.21,0.64-2.35,1.86-2.53c8.77-1.35,17.59-2.85,26.23-4.46c1.2-0.23,2.37,0.57,2.59,1.78
								c0.22,1.21-0.57,2.37-1.78,2.59c-8.68,1.62-17.55,3.13-26.36,4.48C3771.11,1100.84,3771,1100.85,3770.89,1100.85z
								 M3478.67,1099.77c-0.11,0-0.22-0.01-0.33-0.02c-8.81-1.32-17.6-2.73-26.37-4.24c-1.21-0.21-2.02-1.36-1.81-2.57
								c0.21-1.21,1.37-2.03,2.57-1.81c8.74,1.5,17.5,2.91,26.27,4.22c1.21,0.18,2.05,1.31,1.87,2.53
								C3480.7,1098.98,3479.75,1099.77,3478.67,1099.77z M3823.33,1091.08c-1.02,0-1.94-0.71-2.17-1.75
								c-0.26-1.2,0.49-2.38,1.7-2.65c8.65-1.89,17.36-3.95,25.89-6.11c1.18-0.3,2.4,0.42,2.7,1.61c0.3,1.19-0.42,2.4-1.61,2.7
								c-8.57,2.17-17.33,4.24-26.03,6.15C3823.65,1091.07,3823.49,1091.08,3823.33,1091.08z M3426.12,1090.74
								c-0.14,0-0.28-0.01-0.43-0.04c-8.74-1.7-17.46-3.48-26.17-5.36c-1.2-0.26-1.96-1.44-1.7-2.64c0.26-1.2,1.45-1.97,2.64-1.7
								c8.67,1.87,17.36,3.65,26.08,5.34c1.2,0.23,1.99,1.4,1.76,2.61C3428.1,1090,3427.17,1090.74,3426.12,1090.74z
								 M1179.22,1086.08c-0.04,0-0.08,0-0.13,0c-1.22-0.07-2.16-1.12-2.09-2.34c0.5-8.83,1.14-17.8,1.92-26.67
								c0.11-1.22,1.19-2.13,2.41-2.02c1.22,0.11,2.13,1.18,2.02,2.41c-0.77,8.82-1.42,17.75-1.91,26.53
								C1181.37,1085.16,1180.39,1086.08,1179.22,1086.08z M3373.99,1079.52c-0.17,0-0.34-0.02-0.51-0.06
								c-8.66-2.04-17.31-4.17-25.94-6.38c-1.19-0.3-1.91-1.51-1.6-2.7c0.3-1.19,1.52-1.91,2.7-1.6c8.6,2.2,17.22,4.32,25.85,6.36
								c1.2,0.28,1.94,1.48,1.65,2.67C3375.91,1078.83,3374.99,1079.52,3373.99,1079.52z M3875.04,1077.97
								c-0.97,0-1.85-0.63-2.14-1.6c-0.34-1.18,0.34-2.41,1.52-2.75c8.52-2.47,17.07-5.1,25.42-7.83c1.18-0.38,2.43,0.26,2.8,1.42
								c0.38,1.17-0.25,2.42-1.42,2.8c-8.4,2.75-17,5.4-25.57,7.88C3875.45,1077.94,3875.25,1077.97,3875.04,1077.97z
								 M3322.31,1066.3c-0.2,0-0.4-0.03-0.59-0.08c-8.58-2.36-17.15-4.8-25.69-7.3c-1.18-0.35-1.85-1.58-1.51-2.76
								c0.35-1.18,1.58-1.85,2.76-1.51c8.52,2.5,17.06,4.93,25.62,7.28c1.18,0.33,1.88,1.55,1.55,2.73
								C3324.18,1065.66,3323.29,1066.3,3322.31,1066.3z M3925.73,1061.36c-0.91,0-1.76-0.56-2.09-1.46
								c-0.42-1.15,0.17-2.43,1.32-2.85c8.33-3.06,16.67-6.3,24.79-9.62c1.13-0.46,2.43,0.08,2.9,1.21c0.46,1.14-0.08,2.43-1.22,2.9
								c-8.17,3.35-16.56,6.6-24.94,9.68C3926.25,1061.32,3925.99,1061.36,3925.73,1061.36z M3271.12,1051.29
								c-0.22,0-0.44-0.03-0.66-0.1c-8.5-2.64-16.98-5.35-25.44-8.13c-1.17-0.38-1.8-1.64-1.42-2.8s1.64-1.8,2.8-1.42
								c8.44,2.77,16.9,5.47,25.37,8.11c1.17,0.36,1.83,1.61,1.46,2.78C3272.95,1050.68,3272.07,1051.29,3271.12,1051.29z
								 M3975.09,1041.14c-0.85,0-1.65-0.48-2.02-1.3c-0.51-1.12-0.01-2.44,1.1-2.94c8.09-3.68,16.16-7.53,23.98-11.46
								c1.11-0.55,2.44-0.11,2.98,0.99c0.55,1.1,0.11,2.43-0.99,2.98c-7.88,3.96-16,7.84-24.14,11.54
								C3975.71,1041.08,3975.4,1041.14,3975.09,1041.14z M3220.43,1034.68c-0.24,0-0.48-0.04-0.72-0.12
								c-8.41-2.89-16.81-5.85-25.19-8.86c-1.15-0.41-1.76-1.69-1.34-2.84c0.41-1.16,1.7-1.76,2.84-1.34
								c8.36,3,16.74,5.95,25.14,8.84c1.16,0.4,1.78,1.66,1.38,2.82C3222.21,1034.1,3221.35,1034.68,3220.43,1034.68z
								 M1183.89,1032.95c-0.09,0-0.18-0.01-0.27-0.02c-1.22-0.15-2.09-1.25-1.94-2.47c1.05-8.81,2.27-17.73,3.6-26.5
								c0.18-1.21,1.3-2.05,2.53-1.86c1.21,0.19,2.05,1.32,1.86,2.53c-1.33,8.73-2.53,17.6-3.58,26.36
								C1185.96,1032.12,1185,1032.95,1183.89,1032.95z M4022.74,1017.2c-0.78,0-1.54-0.41-1.95-1.15
								c-0.59-1.07-0.21-2.43,0.87-3.02c7.77-4.3,15.5-8.79,22.98-13.34c1.06-0.64,2.42-0.3,3.06,0.74
								c0.64,1.05,0.31,2.42-0.74,3.05c-7.53,4.59-15.32,9.11-23.14,13.43C4023.47,1017.11,4023.1,1017.2,4022.74,1017.2z
								 M3170.22,1016.66c-0.26,0-0.52-0.05-0.78-0.14c-8.34-3.11-16.65-6.28-24.96-9.49c-1.14-0.44-1.71-1.73-1.27-2.87
								c0.44-1.14,1.73-1.71,2.87-1.27c8.29,3.21,16.59,6.36,24.91,9.47c1.15,0.43,1.73,1.71,1.3,2.86
								C3171.97,1016.11,3171.12,1016.66,3170.22,1016.66z M3120.46,997.42c-0.28,0-0.55-0.05-0.82-0.16
								c-8.26-3.3-16.5-6.65-24.74-10.03c-1.14-0.47-1.68-1.77-1.21-2.9c0.47-1.13,1.77-1.68,2.9-1.21
								c8.22,3.38,16.45,6.72,24.7,10.01c1.14,0.46,1.7,1.75,1.24,2.89C3122.18,996.89,3121.34,997.42,3120.46,997.42z
								 M4068.27,989.47c-0.72,0-1.42-0.35-1.85-0.99c-0.68-1.02-0.41-2.4,0.61-3.08c7.36-4.92,14.68-10.04,21.76-15.23
								c0.99-0.72,2.38-0.51,3.11,0.48c0.72,0.99,0.51,2.38-0.48,3.11c-7.13,5.23-14.5,10.39-21.92,15.34
								C4069.13,989.35,4068.7,989.47,4068.27,989.47z M1191.93,980.21c-0.13,0-0.27-0.01-0.41-0.04c-1.21-0.22-2-1.38-1.78-2.59
								c1.64-8.81,3.43-17.63,5.33-26.22c0.27-1.2,1.45-1.95,2.65-1.69c1.2,0.27,1.96,1.45,1.69,2.65
								c-1.89,8.54-3.67,17.32-5.3,26.07C1193.91,979.46,1192.98,980.21,1191.93,980.21z M3071.12,977.14
								c-0.29,0-0.58-0.06-0.86-0.18c-8.2-3.46-16.38-6.96-24.54-10.49c-1.13-0.49-1.65-1.8-1.16-2.92
								c0.49-1.12,1.79-1.65,2.92-1.16c8.16,3.53,16.32,7.02,24.51,10.47c1.13,0.48,1.66,1.78,1.18,2.91
								C3072.81,976.63,3071.99,977.14,3071.12,977.14z M4111.26,957.97c-0.65,0-1.3-0.28-1.73-0.83c-0.77-0.96-0.62-2.36,0.34-3.12
								c6.89-5.53,13.73-11.28,20.32-17.08c0.92-0.81,2.32-0.72,3.14,0.2c0.81,0.92,0.72,2.33-0.2,3.14
								c-6.64,5.84-13.53,11.63-20.47,17.21C4112.24,957.81,4111.75,957.97,4111.26,957.97z M3022.16,955.98
								c-0.3,0-0.61-0.06-0.9-0.19c-8.14-3.59-16.26-7.21-24.37-10.86c-1.12-0.5-1.62-1.82-1.12-2.94c0.51-1.12,1.82-1.62,2.94-1.12
								c8.1,3.64,16.22,7.26,24.35,10.85c1.12,0.49,1.63,1.81,1.14,2.93C3023.83,955.49,3023.01,955.98,3022.16,955.98z
								 M2973.51,934.11c-0.31,0-0.62-0.06-0.92-0.2c-8.09-3.7-16.17-7.42-24.23-11.16c-1.11-0.52-1.6-1.84-1.08-2.95
								c0.52-1.11,1.83-1.6,2.95-1.08c8.06,3.73,16.12,7.45,24.21,11.15c1.12,0.51,1.61,1.83,1.1,2.94
								C2975.16,933.63,2974.36,934.11,2973.51,934.11z M1203.45,928.11c-0.18,0-0.37-0.02-0.56-0.07c-1.19-0.31-1.9-1.52-1.6-2.71
								c2.25-8.7,4.66-17.37,7.17-25.78c0.35-1.18,1.59-1.85,2.76-1.49c1.18,0.35,1.84,1.59,1.49,2.76
								c-2.49,8.35-4.89,16.97-7.12,25.62C1205.35,927.45,1204.44,928.11,1203.45,928.11z M2925.13,911.69
								c-0.31,0-0.64-0.07-0.94-0.21c-7.58-3.56-15.16-7.13-22.72-10.71l-1.41-0.67c-1.11-0.53-1.58-1.85-1.05-2.96
								c0.53-1.11,1.85-1.58,2.96-1.05l1.39,0.66c7.56,3.58,15.13,7.15,22.71,10.7c1.11,0.52,1.59,1.84,1.07,2.96
								C2926.76,911.22,2925.96,911.69,2925.13,911.69z M2877.1,888.51c-0.34,0-0.69-0.08-1.01-0.24
								c-7.73-3.96-15.68-8.16-23.63-12.49c-1.08-0.59-1.48-1.94-0.89-3.01c0.58-1.08,1.93-1.47,3.01-0.89
								c7.91,4.31,15.83,8.49,23.53,12.44c1.09,0.56,1.52,1.9,0.96,2.99C2878.69,888.06,2877.91,888.51,2877.1,888.51z
								 M1218.72,877.01c-0.24,0-0.48-0.04-0.72-0.12c-1.16-0.4-1.78-1.66-1.38-2.82c2.9-8.49,5.99-16.95,9.18-25.14
								c0.45-1.14,1.74-1.71,2.88-1.26c1.14,0.45,1.71,1.73,1.26,2.88c-3.17,8.14-6.24,16.54-9.12,24.96
								C1220.51,876.43,1219.65,877.01,1218.72,877.01z M2830.21,862.99c-0.38,0-0.76-0.09-1.1-0.3
								c-7.71-4.43-15.4-8.95-23.08-13.54c-1.05-0.63-1.39-2-0.76-3.05c0.63-1.05,2-1.4,3.05-0.76c7.65,4.58,15.32,9.09,23.01,13.5
								c1.06,0.61,1.43,1.97,0.82,3.03C2831.73,862.59,2830.98,862.99,2830.21,862.99z M2784.38,835.55c-0.4,0-0.81-0.11-1.17-0.33
								c-7.55-4.69-15.09-9.45-22.62-14.26c-1.03-0.66-1.33-2.03-0.67-3.07c0.66-1.03,2.03-1.34,3.07-0.68
								c7.51,4.8,15.03,9.55,22.57,14.23c1.04,0.65,1.36,2.02,0.72,3.06C2785.85,835.18,2785.12,835.55,2784.38,835.55z
								 M1238.12,827.33c-0.3,0-0.61-0.06-0.9-0.19c-1.12-0.5-1.63-1.81-1.13-2.93c3.66-8.24,7.51-16.39,11.45-24.2
								c0.55-1.1,1.89-1.54,2.98-0.98c1.1,0.55,1.54,1.89,0.98,2.99c-3.91,7.75-7.73,15.83-11.36,24
								C1239.78,826.84,1238.97,827.33,1238.12,827.33z M2739.35,806.8c-0.42,0-0.84-0.12-1.21-0.36
								c-7.44-4.86-14.88-9.77-22.31-14.7c-1.02-0.68-1.3-2.06-0.62-3.08c0.68-1.02,2.06-1.3,3.08-0.62
								c7.42,4.93,14.84,9.83,22.28,14.69c1.03,0.67,1.32,2.05,0.64,3.08C2740.79,806.44,2740.08,806.8,2739.35,806.8z
								 M1262.18,779.75c-0.38,0-0.76-0.1-1.11-0.3c-1.06-0.61-1.43-1.97-0.82-3.03c4.5-7.83,9.23-15.51,14.05-22.82
								c0.67-1.02,2.06-1.31,3.08-0.63c1.03,0.67,1.31,2.05,0.63,3.08c-4.77,7.24-9.45,14.84-13.91,22.59
								C1263.69,779.35,1262.95,779.75,1262.18,779.75z M2694.86,777.28c-0.43,0-0.85-0.12-1.23-0.38
								c-7.38-4.95-14.76-9.92-22.15-14.89c-1.02-0.69-1.29-2.07-0.6-3.09c0.68-1.02,2.06-1.28,3.08-0.6
								c7.38,4.97,14.76,9.94,22.14,14.89c1.02,0.68,1.29,2.07,0.61,3.08C2696.28,776.94,2695.58,777.28,2694.86,777.28z
								 M2650.59,747.49c-0.43,0-0.86-0.12-1.24-0.38c-7.38-4.96-14.76-9.91-22.15-14.85c-1.02-0.68-1.3-2.06-0.61-3.08
								c0.68-1.02,2.06-1.3,3.08-0.61c7.39,4.94,14.78,9.89,22.16,14.86c1.02,0.68,1.29,2.07,0.6,3.08
								C2652,747.14,2651.3,747.49,2650.59,747.49z M1291.56,735.29c-0.47,0-0.94-0.15-1.34-0.45c-0.98-0.74-1.17-2.14-0.42-3.11
								c5.49-7.21,11.22-14.19,17.02-20.73c0.81-0.92,2.22-1,3.14-0.19c0.92,0.81,1,2.22,0.19,3.14
								c-5.73,6.46-11.39,13.35-16.81,20.48C1292.9,734.99,1292.23,735.29,1291.56,735.29z M2606.22,717.89
								c-0.42,0-0.84-0.12-1.22-0.37c-7.42-4.89-14.85-9.76-22.3-14.58c-1.03-0.67-1.33-2.04-0.66-3.07
								c0.67-1.03,2.04-1.32,3.07-0.66c7.46,4.83,14.9,9.69,22.33,14.6c1.02,0.68,1.31,2.06,0.63,3.08
								C2607.65,717.54,2606.94,717.89,2606.22,717.89z M1326.93,695.41c-0.58,0-1.15-0.22-1.59-0.67
								c-0.86-0.88-0.84-2.29,0.04-3.14c6.31-6.16,12.96-12.25,19.75-18.1c0.92-0.8,2.33-0.7,3.13,0.23c0.8,0.93,0.7,2.33-0.23,3.13
								c-6.72,5.79-13.3,11.82-19.55,17.92C1328.05,695.2,1327.49,695.41,1326.93,695.41z M2561.46,688.94
								c-0.41,0-0.82-0.11-1.19-0.34c-7.51-4.74-15.05-9.43-22.6-14.05c-1.05-0.64-1.38-2.01-0.73-3.06
								c0.64-1.05,2.01-1.38,3.06-0.74c7.57,4.63,15.12,9.33,22.65,14.09c1.04,0.66,1.35,2.03,0.69,3.07
								C2562.91,688.57,2562.19,688.94,2561.46,688.94z M2516,661.15c-0.38,0-0.77-0.1-1.13-0.31c-7.66-4.51-15.33-8.94-23.04-13.27
								c-1.07-0.6-1.45-1.96-0.85-3.03c0.6-1.07,1.95-1.45,3.03-0.85c7.73,4.35,15.44,8.79,23.12,13.31
								c1.06,0.62,1.41,1.98,0.79,3.04C2517.5,660.76,2516.76,661.15,2516,661.15z M1367.31,660.63c-0.67,0-1.33-0.3-1.77-0.88
								c-0.74-0.98-0.55-2.37,0.42-3.11c7.01-5.34,14.33-10.59,21.76-15.62c1.01-0.69,2.4-0.42,3.08,0.6
								c0.69,1.02,0.42,2.4-0.6,3.09c-7.36,4.98-14.61,10.18-21.56,15.47C1368.25,660.48,1367.78,660.63,1367.31,660.63z
								 M2469.56,635.07c-0.35,0-0.71-0.08-1.04-0.26c-7.97-4.24-15.91-8.34-23.61-12.18c-1.1-0.55-1.55-1.88-1-2.98
								c0.55-1.1,1.89-1.54,2.98-1c7.74,3.86,15.72,7.98,23.72,12.24c1.08,0.58,1.5,1.92,0.92,3.01
								C2471.12,634.64,2470.35,635.07,2469.56,635.07z M1411.45,630.76c-0.76,0-1.49-0.38-1.91-1.08
								c-0.63-1.05-0.29-2.42,0.76-3.05c7.53-4.52,15.36-8.96,23.29-13.2c1.08-0.58,2.43-0.17,3.01,0.91
								c0.58,1.08,0.17,2.43-0.91,3.01c-7.86,4.2-15.64,8.61-23.1,13.09C1412.24,630.66,1411.84,630.76,1411.45,630.76z
								 M2421.9,611.31c-0.31,0-0.63-0.07-0.93-0.21c-8.14-3.77-16.31-7.38-24.28-10.76c-1.13-0.48-1.66-1.78-1.18-2.91
								c0.48-1.13,1.78-1.66,2.91-1.18c8.02,3.39,16.23,7.03,24.42,10.81c1.11,0.52,1.6,1.84,1.08,2.95
								C2423.54,610.84,2422.74,611.31,2421.9,611.31z M1458.45,605.6c-0.83,0-1.63-0.47-2.01-1.27c-0.53-1.11-0.06-2.43,1.05-2.96
								c7.91-3.77,16.12-7.46,24.4-10.98c1.12-0.48,2.44,0.05,2.91,1.18c0.48,1.13-0.05,2.43-1.18,2.91
								c-8.23,3.49-16.38,7.16-24.23,10.9C1459.1,605.53,1458.77,605.6,1458.45,605.6z M2372.85,590.6c-0.26,0-0.53-0.05-0.79-0.15
								c-8.35-3.18-16.76-6.19-25-8.95c-1.16-0.39-1.79-1.65-1.4-2.81c0.39-1.16,1.65-1.78,2.81-1.4
								c8.29,2.78,16.76,5.81,25.16,9.01c1.15,0.44,1.72,1.72,1.29,2.87C2374.59,590.05,2373.74,590.6,2372.85,590.6z
								 M1507.52,584.74c-0.9,0-1.74-0.55-2.08-1.44c-0.43-1.15,0.15-2.43,1.29-2.87c8.19-3.1,16.66-6.12,25.19-8.99
								c1.18-0.39,2.42,0.23,2.81,1.4c0.39,1.16-0.23,2.42-1.4,2.82c-8.47,2.85-16.9,5.86-25.04,8.94
								C1508.05,584.7,1507.78,584.74,1507.52,584.74z M2322.33,573.68c-0.2,0-0.41-0.03-0.62-0.09c-3.62-1.04-7.25-2.05-10.89-3.02
								c-4.93-1.31-9.86-2.6-14.8-3.87c-1.19-0.3-1.91-1.51-1.6-2.7c0.3-1.19,1.52-1.91,2.7-1.6c4.95,1.27,9.9,2.56,14.84,3.88
								c3.67,0.98,7.32,1.99,10.97,3.04c1.18,0.34,1.86,1.57,1.52,2.75C2324.18,573.05,2323.29,573.68,2322.33,573.68z
								 M1558.06,567.7c-0.96,0-1.84-0.62-2.13-1.59c-0.35-1.18,0.31-2.41,1.49-2.77c8.39-2.51,17.05-4.96,25.73-7.27
								c1.19-0.32,2.4,0.39,2.72,1.58c0.31,1.19-0.39,2.4-1.58,2.72c-8.64,2.3-17.26,4.73-25.6,7.23
								C1558.48,567.67,1558.27,567.7,1558.06,567.7z M2270.69,560.4c-0.17,0-0.34-0.02-0.51-0.06c-8.64-2.05-17.29-4.01-25.97-5.9
								c-1.2-0.26-1.96-1.45-1.7-2.64c0.26-1.2,1.45-1.96,2.64-1.7c8.7,1.9,17.38,3.87,26.04,5.92c1.19,0.28,1.93,1.48,1.65,2.67
								C2272.6,559.71,2271.69,560.4,2270.69,560.4z M1609.59,553.97c-1.01,0-1.92-0.69-2.16-1.71c-0.28-1.2,0.46-2.39,1.65-2.67
								c8.5-2,17.28-3.95,26.1-5.78c1.2-0.25,2.38,0.52,2.63,1.72c0.25,1.2-0.52,2.38-1.72,2.63c-8.79,1.83-17.53,3.76-25.98,5.76
								C1609.93,553.95,1609.76,553.97,1609.59,553.97z M2218.58,549.04c-0.14,0-0.29-0.01-0.44-0.04
								c-8.7-1.74-17.42-3.39-26.16-4.97c-1.21-0.22-2.01-1.37-1.79-2.58c0.22-1.21,1.37-2.01,2.58-1.79
								c8.76,1.58,17.51,3.25,26.24,4.99c1.2,0.24,1.99,1.41,1.74,2.62C2220.54,548.31,2219.62,549.04,2218.58,549.04z
								 M1661.81,543.09c-1.05,0-1.99-0.75-2.18-1.82c-0.22-1.21,0.58-2.37,1.79-2.59c8.78-1.61,17.56-3.11,26.33-4.52
								c1.2-0.2,2.35,0.63,2.55,1.84c0.2,1.21-0.63,2.35-1.84,2.55c-8.74,1.4-17.49,2.9-26.24,4.5
								C1662.07,543.08,1661.94,543.09,1661.81,543.09z M2166.09,539.55c-0.12,0-0.24-0.01-0.36-0.03
								c-8.76-1.42-17.54-2.77-26.32-4.04c-1.22-0.18-2.06-1.3-1.88-2.52c0.18-1.21,1.31-2.06,2.52-1.88
								c8.81,1.27,17.61,2.62,26.4,4.05c1.21,0.2,2.03,1.34,1.84,2.55C2168.11,538.77,2167.16,539.55,2166.09,539.55z
								 M1714.47,534.62c-1.09,0-2.04-0.8-2.2-1.91c-0.17-1.22,0.68-2.34,1.89-2.51c8.82-1.24,17.64-2.41,26.48-3.49
								c1.24-0.14,2.33,0.72,2.48,1.94c0.15,1.22-0.72,2.33-1.93,2.48c-8.81,1.08-17.61,2.24-26.4,3.48
								C1714.67,534.61,1714.57,534.62,1714.47,534.62z M2113.31,531.92c-0.09,0-0.19-0.01-0.28-0.02
								c-8.8-1.11-17.62-2.15-26.44-3.11c-1.22-0.13-2.1-1.23-1.97-2.45c0.13-1.22,1.2-2.1,2.45-1.97c8.85,0.96,17.69,2,26.52,3.12
								c1.22,0.15,2.08,1.27,1.93,2.48C2115.37,531.1,2114.41,531.92,2113.31,531.92z M1767.4,528.12c-1.12,0-2.09-0.85-2.21-1.99
								c-0.13-1.22,0.76-2.31,1.98-2.44c8.85-0.93,17.72-1.77,26.58-2.54c1.22-0.12,2.3,0.8,2.4,2.02c0.11,1.22-0.8,2.3-2.02,2.41
								c-8.84,0.77-17.68,1.61-26.5,2.53C1767.56,528.12,1767.48,528.12,1767.4,528.12z M2060.29,526.16c-0.07,0-0.13,0-0.2-0.01
								c-8.84-0.8-17.68-1.53-26.54-2.17c-1.22-0.09-2.14-1.15-2.06-2.38c0.09-1.22,1.12-2.13,2.38-2.06
								c8.88,0.65,17.75,1.37,26.62,2.18c1.22,0.11,2.12,1.19,2.01,2.41C2062.4,525.3,2061.42,526.16,2060.29,526.16z
								 M1820.54,523.52c-1.16,0-2.13-0.9-2.22-2.07c-0.08-1.22,0.84-2.29,2.07-2.37c8.88-0.61,17.77-1.14,26.66-1.59
								c1.24-0.07,2.27,0.88,2.33,2.11s-0.88,2.27-2.11,2.33c-8.87,0.45-17.73,0.98-26.58,1.59
								C1820.64,523.51,1820.59,523.52,1820.54,523.52z M2007.09,522.28c-0.04,0-0.08,0-0.12,0c-8.86-0.49-17.73-0.9-26.6-1.24
								c-1.23-0.05-2.18-1.08-2.14-2.3c0.05-1.23,1.04-2.2,2.3-2.14c8.9,0.34,17.79,0.75,26.68,1.24c1.22,0.07,2.16,1.12,2.1,2.34
								C2009.25,521.37,2008.27,522.28,2007.09,522.28z M1873.8,520.81c-1.19,0-2.18-0.95-2.22-2.15c-0.04-1.23,0.92-2.25,2.15-2.29
								c8.9-0.29,17.8-0.51,26.7-0.65c1.18,0.03,2.24,0.96,2.26,2.19c0.02,1.23-0.96,2.24-2.19,2.26
								c-8.87,0.14-17.75,0.35-26.62,0.65C1873.85,520.81,1873.83,520.81,1873.8,520.81z M1953.8,520.28c-0.01,0-0.03,0-0.04,0
								c-8.87-0.18-17.75-0.28-26.63-0.3c-1.23,0-2.22-1-2.22-2.23c0-1.23,1-2.22,2.22-2.22c0,0,0,0,0,0
								c8.9,0.02,17.8,0.12,26.71,0.3c1.23,0.03,2.2,1.04,2.18,2.27C1956,519.31,1955,520.28,1953.8,520.28z"/>
						</g>
					</g>
				</g>
				<g>
					<g>
						<g>
							<g>
								<g>
									<path class="st2" d="M1296.78,2666.88v23.49c0,56.99,46.2,103.2,103.2,103.2h2205.92c56.99,0,103.2-46.2,103.2-103.2
										v-23.49c0-17.6-14.27-31.87-31.87-31.87H1328.65C1311.05,2635.01,1296.78,2649.28,1296.78,2666.88z"/>
								</g>
							</g>
						</g>
						<g>
							<g>
								<g>
									<path class="st3" d="M3578.38,1284.8v1350.21H1427.5V1284.85c0-43.37,35.17-78.49,78.48-78.49h1993.96
										C3543.26,1206.37,3578.38,1241.49,3578.38,1284.8z"/>
								</g>
							</g>
						</g>
						<g>
							<g>
								<g>
									<path class="st4" d="M3544.57,2634.98V1284.77c0-24.65-19.99-44.64-44.64-44.64h-1994c-24.65,0-44.64,19.99-44.64,44.64
										v1350.22H3544.57z"/>
								</g>
							</g>
						</g>
						<g>
							<g>
								<g>
									<path class="st5" d="M2751.91,2634.98l-31.86,53.98c-4.54,7.7-12.82,12.42-21.75,12.42h-390.73
										c-8.94,0-17.21-4.72-21.75-12.42l-31.86-53.98H2751.91z"/>
								</g>
							</g>
						</g>
					</g>
					<g>
						<g>
							<g>
								<g>
									<g>
										<path class="st6" d="M3400.17,2575.96H1605.7c-25.29,0-45.79-20.5-45.79-45.79V807.61c0-25.29,20.5-45.79,45.79-45.79
											h1794.47c25.29,0,45.79,20.5,45.79,45.79v1722.56C3445.95,2555.46,3425.45,2575.96,3400.17,2575.96z"/>
									</g>
								</g>
							</g>
							<g>
								<g>
									<g>
										<path class="st4" d="M1575.88,2527.53V810.25c0-17.92,14.53-32.45,32.45-32.45h1789.19c17.92,0,32.45,14.53,32.45,32.45
											v1717.29c0,17.92-14.53,32.45-32.45,32.45H1608.34C1590.41,2559.99,1575.88,2545.45,1575.88,2527.53z"/>
									</g>
								</g>
							</g>
						</g>
						<g>
							<g>
								<g>
									<g>
										<path class="st7" d="M1652.75,836.62c0,9.2-7.45,16.65-16.65,16.65c-9.23,0-16.68-7.45-16.68-16.65
											c0-9.2,7.45-16.68,16.68-16.68C1645.3,819.94,1652.75,827.42,1652.75,836.62z"/>
									</g>
								</g>
							</g>
							<g>
								<g>
									<g>
										<path class="st8" d="M1696.93,836.62c0,9.2-7.45,16.65-16.65,16.65c-9.23,0-16.68-7.45-16.68-16.65
											c0-9.2,7.45-16.68,16.68-16.68C1689.48,819.94,1696.93,827.42,1696.93,836.62z"/>
									</g>
								</g>
							</g>
							<g>
								<g>
									<g>
										<path class="st9" d="M1741.11,836.62c0,9.2-7.45,16.65-16.65,16.65c-9.23,0-16.68-7.45-16.68-16.65
											c0-9.2,7.45-16.68,16.68-16.68C1733.67,819.94,1741.11,827.42,1741.11,836.62z"/>
									</g>
								</g>
							</g>
						</g>
					</g>
				</g>
				<g>
					<g>
						<g>
							<path class="st10" d="M2932.42,909.61v212.48c0,15.8-12.82,28.59-28.62,28.59h-801.73c-15.8,0-28.62-12.78-28.62-28.59
								V909.61c0-15.8,12.82-28.63,28.62-28.63h801.73C2919.6,880.98,2932.42,893.8,2932.42,909.61z"/>
						</g>
					</g>
				</g>
				<g>
					<g>
						<g>
							<g>
								<path class="st4" d="M2244.69,987.35c-0.74-1.66-1.8-3.05-3.16-4.13c-1.45-1.14-3.21-1.72-5.24-1.72h-1.19
									c-2.04,0-3.8,0.58-5.25,1.72c-1.36,1.08-2.42,2.47-3.17,4.16l-30.25,71.41c-0.48,1.16-0.72,2.15-0.72,3.02
									c0,1.94,0.66,3.61,1.95,4.95c2.23,2.32,6.12,2.76,8.99,0.89c1.17-0.77,2.07-1.82,2.7-3.18l7.28-17.48h38.11l7.31,17.54
									c0.61,1.31,1.51,2.37,2.68,3.13c1.18,0.77,2.5,1.16,3.93,1.16c2.04,0,3.74-0.69,5.06-2.05c1.29-1.35,1.95-3.01,1.95-4.95
									c0-0.86-0.24-1.85-0.72-3.02L2244.69,987.35z M2249.21,1033.81h-27.03l13.51-32.54L2249.21,1033.81z"/>
							</g>
						</g>
					</g>
					<g>
						<g>
							<g>
								<path class="st4" d="M2343.68,1023.23c2.23-1.47,4.15-3.34,5.75-5.58c2.37-3.32,3.57-7.49,3.57-12.41
									c0-7.05-2.53-12.75-7.54-16.94c-4.91-4.11-11.88-6.2-20.7-6.2h-27.99c-1.97,0-3.65,0.71-5,2.11
									c-1.33,1.38-2.01,3.07-2.01,5.01v72c0,1.96,0.68,3.63,2.03,4.97c1.35,1.35,3.02,2.03,4.97,2.03h28.71
									c10.87,0,19.01-2.2,24.2-6.56c5.28-4.42,7.95-10.6,7.95-18.36c0-5.46-1.68-10.07-5-13.7
									C2350.18,1026.93,2347.18,1024.8,2343.68,1023.23z M2343.86,1042.84c0,3.82-1.35,6.68-4.13,8.74
									c-2.9,2.14-8.05,3.23-15.32,3.23h-20.52v-23.83h20.63C2343.86,1030.98,2343.86,1039.9,2343.86,1042.84z M2303.9,1017.92
									v-22.41h20.04c4.91,0,8.79,1.01,11.53,3c2.61,1.9,3.88,4.37,3.88,7.55c0,3.79-1.2,6.63-3.67,8.69
									c-2.53,2.11-7.16,3.17-13.76,3.17H2303.9z"/>
							</g>
						</g>
					</g>
					<g>
						<g>
							<g>
								<path class="st4" d="M2432.9,986.59c-6.44-3.77-14.05-5.69-22.61-5.69c-8.56,0-16.19,1.91-22.66,5.69
									c-6.49,3.78-11.57,9.07-15.1,15.72c-3.51,6.6-5.37,14.28-5.53,22.87c0.16,8.53,2.02,16.21,5.53,22.81
									c3.53,6.65,8.61,11.95,15.1,15.72h0c6.47,3.77,14.1,5.68,22.67,5.68c8.56,0,16.17-1.91,22.61-5.68
									c6.45-3.78,11.53-9.09,15.1-15.78c3.55-6.65,5.43-14.3,5.59-22.82c-0.16-8.45-2.05-16.11-5.59-22.76
									C2444.43,995.68,2439.35,990.38,2432.9,986.59z M2410.29,1056c-6.06,0-11.34-1.35-15.67-4.02c-4.34-2.67-7.7-6.35-10-10.95
									c-2.32-4.64-3.5-9.98-3.5-15.86c0-5.88,1.18-11.22,3.5-15.86c2.3-4.6,5.66-8.28,10-10.95c4.34-2.67,9.61-4.02,15.67-4.02
									c5.99,0,11.24,1.35,15.62,4.03c4.37,2.67,7.75,6.35,10.05,10.94c2.32,4.65,3.5,9.99,3.5,15.86c0,5.88-1.18,11.21-3.5,15.86
									c-2.3,4.59-5.68,8.28-10.05,10.95C2421.53,1054.64,2416.28,1056,2410.29,1056z"/>
							</g>
						</g>
					</g>
					<g>
						<g>
							<g>
								<path class="st4" d="M2527,983.62c-1.33,1.38-2.01,3.07-2.01,5.01v47.21c0,4.39-1.01,8.15-2.99,11.18
									c-2,3.05-4.66,5.36-7.91,6.88c-6.63,3.1-14.72,3.1-21.36,0c-3.26-1.52-5.92-3.83-7.91-6.88c-1.98-3.03-2.99-6.79-2.99-11.18
									v-47.21c0-1.95-0.7-3.65-2.09-5.03c-2.78-2.78-7.34-2.77-10.03,0.02c-1.33,1.38-2.01,3.07-2.01,5.01v46.85
									c0,7.35,1.78,13.67,5.27,18.79c3.48,5.1,8.02,8.94,13.5,11.43c5.41,2.46,11.11,3.71,16.94,3.71
									c5.83,0,11.53-1.25,16.94-3.71c5.47-2.49,10.02-6.33,13.5-11.43c3.5-5.12,5.27-11.45,5.27-18.79v-46.85
									c0-1.95-0.7-3.65-2.09-5.03C2534.25,980.81,2529.68,980.82,2527,983.62z"/>
							</g>
						</g>
					</g>
					<g>
						<g>
							<g>
								<path class="st4" d="M2613.96,982.1h-59.07c-1.89,0-3.49,0.67-4.76,1.99c-1.25,1.3-1.89,2.91-1.89,4.77
									c0,1.88,0.64,3.47,1.91,4.74c1.27,1.27,2.86,1.91,4.74,1.91h22.53v66.3c0,1.96,0.68,3.63,2.03,4.97v0
									c1.35,1.35,3.02,2.03,4.97,2.03c1.94,0,3.63-0.68,5.01-2.01c1.4-1.35,2.11-3.03,2.11-5v-66.3h22.41
									c1.86,0,3.47-0.64,4.77-1.89c1.32-1.27,1.99-2.87,1.99-4.76c0-1.87-0.66-3.49-1.97-4.8
									C2617.44,982.76,2615.83,982.1,2613.96,982.1z"/>
							</g>
						</g>
					</g>
					<g>
						<g>
							<g>
								<path class="st4" d="M2719.98,983.62c-1.33,1.38-2.01,3.07-2.01,5.01v47.21c0,4.39-1.01,8.15-2.99,11.18
									c-2,3.05-4.66,5.36-7.91,6.88c-6.63,3.1-14.72,3.1-21.36,0c-3.26-1.52-5.92-3.83-7.91-6.88c-1.98-3.03-2.99-6.79-2.99-11.18
									v-47.21c0-1.95-0.7-3.65-2.09-5.03c-2.78-2.78-7.34-2.77-10.03,0.02c-1.33,1.38-2.01,3.07-2.01,5.01v46.85
									c0,7.35,1.78,13.67,5.27,18.79c3.48,5.1,8.02,8.94,13.5,11.43c5.41,2.46,11.11,3.71,16.94,3.71
									c5.83,0,11.53-1.25,16.94-3.71c5.47-2.49,10.02-6.33,13.5-11.43c3.5-5.12,5.27-11.45,5.27-18.79v-46.85
									c0-1.95-0.7-3.65-2.09-5.03C2727.24,980.81,2722.67,980.82,2719.98,983.62z"/>
							</g>
						</g>
					</g>
					<g>
						<g>
							<g>
								<path class="st4" d="M2806.48,1030.71c-2.9-3.36-6.43-5.87-10.5-7.46c-3.89-1.52-9.05-3.06-15.36-4.58
									c-4.75-1.09-8.54-2.13-11.27-3.09c-2.57-0.9-4.72-2.17-6.4-3.78c-1.53-1.46-2.27-3.34-2.27-5.73c0-3.68,1.66-6.47,5.07-8.54
									c3.63-2.2,8.47-3.32,14.38-3.32c6.35,0,12.59,1.05,18.48,3.08c1,0.4,1.82,0.59,2.52,0.59c1.9,0,3.53-0.74,4.71-2.13
									c1.13-1.33,1.7-2.85,1.7-4.52c0-3.09-1.53-5.28-4.41-6.31c-7.19-2.67-15.33-4.02-24.18-4.02c-6.7,0-12.55,1.15-17.38,3.42
									c-4.89,2.3-8.66,5.46-11.19,9.38c-2.54,3.93-3.83,8.37-3.83,13.18c0,5.55,1.59,10.08,4.71,13.47
									c3,3.26,6.65,5.73,10.82,7.36c4,1.56,9.29,3.19,15.72,4.86c4.76,1.25,8.47,2.34,11.02,3.22c2.39,0.83,4.42,1.98,6.02,3.41
									c1.42,1.26,2.11,2.8,2.11,4.69c0,2.96,0,11.97-19.09,11.97c-8.03,0-15.67-1.59-22.69-4.72c-2.62-1.16-5.78-0.64-7.66,1.4
									c-1.2,1.3-1.8,2.86-1.8,4.62c0,1.37,0.42,2.67,1.25,3.86c0.81,1.17,1.85,2.02,3.09,2.54c8.94,3.87,18.66,5.83,28.88,5.83
									c6.21,0,11.78-1.04,16.55-3.1c4.85-2.09,8.67-5.05,11.37-8.8c2.73-3.79,4.11-8.13,4.11-12.89
									C2810.98,1038.85,2809.47,1034.17,2806.48,1030.71z"/>
							</g>
						</g>
					</g>
				</g>
				<g>
					<g>
						<g>
							<g>
								<g>
									<path class="st11" d="M1652.75,1422.97c0,99.72,80.85,180.57,180.57,180.57c99.69,0,180.54-80.85,180.54-180.57
										c0-99.69-80.85-180.54-180.54-180.54C1733.6,1242.43,1652.75,1323.28,1652.75,1422.97z"/>
								</g>
							</g>
						</g>
					</g>
					<g class="st12">
						<g>
							<g>
								<g>
									<path d="M1947.8,1408.67c-0.2-4.69-3.66-8.68-8.36-9.49l-9.29-1.71c-3.2-0.62-6.03-2.65-7.37-5.65
										c-0.41-1.05-0.97-2.13-1.49-3.14c-1.45-3-1.31-6.49,0.33-9.42l4.63-8.12c2.31-4.13,1.49-9.36-2-12.51l-21.45-19.55
										c-3.45-3.19-8.73-3.53-12.62-0.83l-7.71,5.33c-2.7,1.85-6.19,2.36-9.25,1.2c-1.09-0.39-2.23-0.85-3.36-1.23
										c-3.14-1.05-5.49-3.68-6.4-6.83l-2.47-9.02c-1.25-4.56-5.54-7.64-10.3-7.44l-28.98,1.36c-4.69,0.2-8.64,3.66-9.46,8.29
										l-1.71,9.32c-0.62,3.24-2.73,6.03-5.73,7.37c-1.12,0.49-2.17,0.97-3.25,1.49c-2.93,1.45-6.42,1.28-9.31-0.32l-8.12-4.59
										c-4.13-2.31-9.32-1.45-12.51,2l-19.55,21.45c-3.19,3.45-3.53,8.72-0.83,12.62l5.36,7.75c1.88,2.67,2.36,6.15,1.2,9.21
										c-0.42,1.1-0.88,2.26-1.27,3.39c-0.98,3.14-3.61,5.46-6.79,6.37l-8.98,2.47c-4.6,1.25-7.67,5.58-7.44,10.3l1.36,28.98
										c0.2,4.72,3.66,8.71,8.36,9.53l9.18,1.64c3.24,0.62,6.06,2.65,7.37,5.73c0.48,1.05,1.01,2.13,1.56,3.25
										c1.45,2.93,1.27,6.42-0.4,9.31l-4.59,8.12c-2.31,4.13-1.45,9.35,2,12.51l21.49,19.55c3.49,3.19,8.73,3.53,12.65,0.83
										l7.71-5.32c2.7-1.85,6.19-2.36,9.21-1.2c1.13,0.46,2.23,0.85,3.39,1.23c3.17,1.05,5.46,3.68,6.37,6.83l2.47,9.02
										c1.22,4.56,5.54,7.64,10.26,7.44l29.02-1.36c4.76-0.24,8.68-3.66,9.49-8.36l1.71-9.25c0.62-3.21,2.65-6.03,5.65-7.33
										c1.12-0.52,2.2-1.01,3.25-1.53c2.93-1.52,6.49-1.35,9.34,0.33l8.12,4.59c4.17,2.31,9.36,1.45,12.51-2l19.55-21.49
										c3.19-3.52,3.57-8.72,0.87-12.65l-5.4-7.78c-1.85-2.67-2.36-6.08-1.16-9.15c0.42-1.13,0.81-2.22,1.12-3.28
										c1.05-3.17,3.68-5.46,6.86-6.37l9.05-2.54c4.56-1.25,7.64-5.58,7.44-10.23L1947.8,1408.67z M1797.56,1428.71
										c-0.28-24.11,19.03-43.92,43.17-44.2c24.11-0.28,43.92,19.06,44.2,43.17c0.28,24.11-19.06,43.92-43.17,44.2
										C1817.62,1472.17,1797.84,1452.82,1797.56,1428.71z"/>
								</g>
							</g>
						</g>
					</g>
					<g>
						<g>
							<g>
								<g>
									<g>
										<path class="st4" d="M1939.87,1403.45c-0.2-4.69-3.66-8.68-8.36-9.49l-9.29-1.71c-3.2-0.62-6.03-2.65-7.37-5.65
											c-0.41-1.05-0.97-2.13-1.49-3.14c-1.45-3-1.31-6.49,0.32-9.42l4.63-8.12c2.31-4.13,1.49-9.36-2-12.51l-21.45-19.55
											c-3.45-3.19-8.73-3.53-12.62-0.83l-7.71,5.32c-2.7,1.85-6.19,2.36-9.25,1.2c-1.09-0.39-2.23-0.85-3.36-1.23
											c-3.14-1.05-5.49-3.68-6.4-6.83l-2.47-9.02c-1.25-4.56-5.54-7.64-10.3-7.44l-28.98,1.36c-4.69,0.2-8.64,3.66-9.46,8.29
											l-1.71,9.32c-0.62,3.24-2.73,6.03-5.73,7.37c-1.12,0.49-2.17,0.97-3.25,1.49c-2.93,1.45-6.42,1.28-9.31-0.32l-8.12-4.59
											c-4.13-2.31-9.32-1.45-12.51,2l-19.55,21.45c-3.19,3.45-3.53,8.72-0.83,12.62l5.36,7.75c1.88,2.67,2.36,6.15,1.2,9.21
											c-0.42,1.1-0.88,2.26-1.27,3.39c-0.98,3.14-3.61,5.46-6.79,6.37l-8.98,2.47c-4.6,1.25-7.67,5.58-7.44,10.3l1.36,28.98
											c0.2,4.72,3.66,8.71,8.36,9.53l9.18,1.64c3.24,0.62,6.06,2.65,7.37,5.73c0.48,1.05,1.01,2.13,1.56,3.25
											c1.45,2.93,1.27,6.42-0.4,9.31l-4.59,8.12c-2.31,4.13-1.45,9.35,2,12.51l21.49,19.55c3.49,3.19,8.73,3.53,12.65,0.83
											l7.71-5.32c2.7-1.85,6.19-2.36,9.22-1.2c1.13,0.46,2.23,0.85,3.39,1.23c3.17,1.05,5.46,3.68,6.37,6.83l2.47,9.02
											c1.22,4.56,5.54,7.64,10.26,7.44l29.02-1.36c4.76-0.24,8.68-3.66,9.49-8.36l1.71-9.25c0.62-3.21,2.65-6.03,5.65-7.33
											c1.12-0.52,2.2-1.01,3.25-1.53c2.93-1.52,6.49-1.35,9.34,0.33l8.12,4.59c4.17,2.31,9.36,1.45,12.51-2l19.55-21.49
											c3.19-3.53,3.57-8.73,0.87-12.66l-5.4-7.78c-1.85-2.67-2.36-6.08-1.16-9.14c0.42-1.13,0.81-2.23,1.12-3.28
											c1.05-3.17,3.68-5.46,6.87-6.37l9.05-2.54c4.56-1.25,7.64-5.58,7.44-10.23L1939.87,1403.45z M1833.82,1466.67
											c-24.14,0.28-43.92-19.06-44.2-43.17c-0.28-24.11,19.03-43.92,43.17-44.2c24.11-0.28,43.92,19.06,44.2,43.17
											C1877.28,1446.58,1857.93,1466.39,1833.82,1466.67z"/>
									</g>
								</g>
							</g>
						</g>
						<g>
							<g>
								<g>
									<g>
										<g>
											<path class="st13" d="M1832.73,1374.53c-26.77,0.32-48.2,22.25-47.88,49.02c0.32,26.77,22.25,48.2,49.02,47.88
												s48.2-22.26,47.88-49.03S1859.5,1374.22,1832.73,1374.53z M1833.82,1466.67c-24.14,0.28-43.92-19.06-44.2-43.17
												c-0.28-24.11,19.03-43.92,43.17-44.2c24.11-0.28,43.92,19.06,44.2,43.17
												C1877.27,1446.58,1857.93,1466.39,1833.82,1466.67z"/>
										</g>
									</g>
								</g>
							</g>
						</g>
					</g>
				</g>
				<g>
					<g>
						<g>
							<g>
								<path class="st14" d="M2457.92,1316.66v66.94c0,10.23-8.28,18.51-18.51,18.51h-345.69c-10.23,0-18.51-8.28-18.51-18.51
									v-66.94c0-10.23,8.28-18.51,18.51-18.51h345.69C2449.63,1298.14,2457.92,1306.43,2457.92,1316.66z"/>
							</g>
						</g>
					</g>
					<g>
						<g>
							<g>
								<path class="st14" d="M3313.28,1491.94c0,4.76-3.84,8.56-8.56,8.56H2083.77c-4.72,0-8.56-3.81-8.56-8.56
									c0-2.34,0.95-4.48,2.5-6.06c1.55-1.55,3.69-2.5,6.06-2.5h1220.95C3309.44,1483.38,3313.28,1487.22,3313.28,1491.94z"/>
							</g>
						</g>
					</g>
					<g>
						<g>
							<g>
								<path class="st14" d="M2850.19,1533.2c1.55,1.59,2.5,3.73,2.5,6.06c0,4.76-3.85,8.56-8.56,8.56h-760.35
									c-2.38,0-4.52-0.95-6.06-2.5c-1.55-1.55-2.5-3.69-2.5-6.06c0-4.72,3.84-8.56,8.56-8.56h760.35
									C2846.46,1530.7,2848.6,1531.66,2850.19,1533.2z"/>
							</g>
						</g>
					</g>
					<g>
						<g>
							<g>
								<path class="st14" d="M2075.21,1444.61c0-2.34,0.95-4.48,2.5-6.06c1.55-1.55,3.69-2.5,6.06-2.5h1220.95
									c4.72,0,8.56,3.85,8.56,8.56s-3.84,8.56-8.56,8.56H2083.77C2079.05,1453.17,2075.21,1449.33,2075.21,1444.61z"/>
							</g>
						</g>
					</g>
				</g>
				<g>
					<g>
						<g>
							<g>
								<g>
									<path class="st15" d="M1652.75,1845.63c0,99.72,80.85,180.57,180.57,180.57c99.69,0,180.54-80.85,180.54-180.57
										c0-99.69-80.85-180.54-180.54-180.54C1733.6,1665.09,1652.75,1745.94,1652.75,1845.63z"/>
								</g>
							</g>
						</g>
					</g>
				</g>
				<g>
					<g>
						<g>
							<g>
								<path class="st14" d="M2457.92,1739.31v66.94c0,10.23-8.28,18.51-18.51,18.51h-345.69c-10.23,0-18.51-8.28-18.51-18.51
									v-66.94c0-10.23,8.28-18.51,18.51-18.51h345.69C2449.63,1720.8,2457.92,1729.09,2457.92,1739.31z"/>
							</g>
						</g>
					</g>
					<g>
						<g>
							<g>
								<path class="st14" d="M3313.28,1914.6c0,4.76-3.84,8.56-8.56,8.56H2083.77c-4.72,0-8.56-3.81-8.56-8.56
									c0-2.34,0.95-4.48,2.5-6.06c1.55-1.55,3.69-2.5,6.06-2.5h1220.95C3309.44,1906.04,3313.28,1909.88,3313.28,1914.6z"/>
							</g>
						</g>
					</g>
					<g>
						<g>
							<g>
								<path class="st14" d="M2850.19,1955.86c1.55,1.59,2.5,3.73,2.5,6.06c0,4.76-3.85,8.56-8.56,8.56h-760.35
									c-2.38,0-4.52-0.95-6.06-2.5c-1.55-1.55-2.5-3.69-2.5-6.06c0-4.72,3.84-8.56,8.56-8.56h760.35
									C2846.46,1953.36,2848.6,1954.32,2850.19,1955.86z"/>
							</g>
						</g>
					</g>
					<g>
						<g>
							<g>
								<path class="st14" d="M2075.21,1867.27c0-2.34,0.95-4.48,2.5-6.06c1.55-1.55,3.69-2.5,6.06-2.5h1220.95
									c4.72,0,8.56,3.85,8.56,8.56c0,4.72-3.84,8.56-8.56,8.56H2083.77C2079.05,1875.83,2075.21,1871.99,2075.21,1867.27z"/>
							</g>
						</g>
					</g>
				</g>
				<g>
					<g>
						<g>
							<g>
								<g>
									<path class="st8" d="M1652.75,2268.29c0,99.72,80.85,180.57,180.57,180.57c99.69,0,180.54-80.85,180.54-180.57
										c0-99.69-80.85-180.54-180.54-180.54C1733.6,2087.75,1652.75,2168.6,1652.75,2268.29z"/>
								</g>
							</g>
						</g>
					</g>
				</g>
				<g>
					<g>
						<g>
							<g>
								<path class="st14" d="M2457.92,2161.98v66.94c0,10.23-8.28,18.51-18.51,18.51h-345.69c-10.23,0-18.51-8.28-18.51-18.51
									v-66.94c0-10.23,8.28-18.51,18.51-18.51h345.69C2449.63,2143.46,2457.92,2151.75,2457.92,2161.98z"/>
							</g>
						</g>
					</g>
					<g>
						<g>
							<g>
								<path class="st14" d="M3313.28,2337.26c0,4.76-3.84,8.56-8.56,8.56H2083.77c-4.72,0-8.56-3.81-8.56-8.56
									c0-2.34,0.95-4.48,2.5-6.06c1.55-1.55,3.69-2.5,6.06-2.5h1220.95C3309.44,2328.7,3313.28,2332.54,3313.28,2337.26z"/>
							</g>
						</g>
					</g>
					<g>
						<g>
							<g>
								<path class="st14" d="M2850.19,2378.52c1.55,1.59,2.5,3.73,2.5,6.06c0,4.76-3.85,8.56-8.56,8.56h-760.35
									c-2.38,0-4.52-0.95-6.06-2.5c-1.55-1.55-2.5-3.69-2.5-6.06c0-4.72,3.84-8.56,8.56-8.56h760.35
									C2846.46,2376.02,2848.6,2376.98,2850.19,2378.52z"/>
							</g>
						</g>
					</g>
					<g>
						<g>
							<g>
								<path class="st14" d="M2075.21,2289.93c0-2.34,0.95-4.48,2.5-6.06c1.55-1.55,3.69-2.5,6.06-2.5h1220.95
									c4.72,0,8.56,3.85,8.56,8.56c0,4.72-3.84,8.56-8.56,8.56H2083.77C2079.05,2298.49,2075.21,2294.65,2075.21,2289.93z"/>
							</g>
						</g>
					</g>
				</g>
				<g>
					<g class="st16">
						<g>
							<g>
								<g>
									<path d="M1951.5,1873.06c-8.56,52.52-54.23,92.61-109.23,92.39v-0.06c-60.91-0.22-110.12-49.76-109.9-110.67
										c0.11-30.37,12.54-58.04,32.53-77.92c16.18-16.07,37.22-27.11,60.64-30.76l-0.17,48.71
										c-26.18,7.51-45.34,31.64-45.39,60.14v0.17c0,34.57,27.94,62.62,62.46,62.73h0.28c28.44,0,52.52-19,60.14-44.95
										L1951.5,1873.06z"/>
								</g>
							</g>
						</g>
						<g>
							<g>
								<g>
									<g>
										<path d="M1960.7,1855.53l-0.01,3.84c-0.01,2.13-1.74,3.85-3.86,3.84l-55.25-0.2c-2.12-0.01-3.84-1.73-3.84-3.85v-0.25
											c0-32.29-26.42-58.79-58.71-58.9h0c-2.13-0.01-3.85-1.74-3.84-3.86l0.2-55.27c0.01-2.13,1.74-3.84,3.86-3.84l3.84,0.01
											c31.54,0.13,61.15,12.51,83.35,34.89S1960.83,1824.02,1960.7,1855.53z"/>
									</g>
								</g>
							</g>
						</g>
					</g>
					<g>
						<g>
							<g>
								<g>
									<path class="st4" d="M1940.91,1861.86c-8.56,52.52-54.23,92.61-109.23,92.39v-0.06c-60.91-0.22-110.12-49.76-109.9-110.67
										c0.11-30.37,12.54-58.04,32.53-77.92c16.18-16.07,37.22-27.11,60.64-30.76l-0.17,48.71
										c-26.18,7.51-45.34,31.64-45.39,60.14v0.17c0,34.57,27.94,62.62,62.46,62.73h0.28c28.44,0,52.52-19,60.14-44.95
										L1940.91,1861.86z"/>
								</g>
							</g>
						</g>
						<g>
							<g>
								<g>
									<g>
										<path class="st7" d="M1950.11,1844.33l-0.01,3.84c-0.01,2.13-1.74,3.85-3.86,3.84l-55.25-0.2
											c-2.12-0.01-3.84-1.73-3.84-3.85v-0.25c0-32.29-26.42-58.79-58.71-58.9l0,0c-2.13-0.01-3.85-1.74-3.84-3.86l0.2-55.27
											c0.01-2.13,1.74-3.84,3.86-3.84l3.84,0.01c31.54,0.13,61.15,12.51,83.35,34.89
											C1938.06,1783.13,1950.24,1812.82,1950.11,1844.33z"/>
									</g>
								</g>
							</g>
						</g>
					</g>
				</g>
				<g>
					<g class="st16">
						<g>
							<g>
								<path d="M1847.55,2169.08c-42.15-3.12-77.32,30.13-77.32,71.68c0,74.95,71.9,142.03,71.9,142.03s65.3-61,71.38-131.64
									C1917.01,2210.26,1888.44,2172.05,1847.55,2169.08z M1842.14,2279.05c-19.89,0-35.99-16.18-35.99-36.06
									c0-19.81,16.1-35.99,35.99-35.99s35.99,16.18,35.99,35.99C1878.13,2262.87,1862.02,2279.05,1842.14,2279.05z"/>
							</g>
						</g>
					</g>
					<g>
						<g>
							<g>
								<path class="st4" d="M1844.23,2165.86c-42.15-3.12-77.32,30.13-77.32,71.68c0,74.95,71.9,142.03,71.9,142.03
									s65.3-61,71.38-131.64C1913.68,2207.04,1885.11,2168.83,1844.23,2165.86z M1838.81,2275.83
									c-19.89,0-35.99-16.18-35.99-36.06c0-19.81,16.1-35.99,35.99-35.99c19.89,0,35.99,16.18,35.99,35.99
									C1874.8,2259.66,1858.7,2275.83,1838.81,2275.83z"/>
							</g>
						</g>
					</g>
				</g>
			</g>
			<g>
				<g>
					<g>
						<g>
							<g>
								<g>
									<g>
										<g>
											<g>
												<rect x="3935.75" y="2957.98" width="159.25" height="26.48"/>
											</g>
										</g>
									</g>
								</g>
								<g>
									<g>
										<g>
											<g>
												<polygon points="4021.66,2889.85 3935.75,2957.98 4095,2957.98 4095,2889.85 												"/>
											</g>
										</g>
									</g>
								</g>
							</g>
							<g>
								<g>
									<g>
										<path class="st4" d="M4014.71,2959.1h-78.98c-0.61,0-1.11-0.5-1.11-1.11s0.5-1.11,1.11-1.11h78.98
											c0.61,0,1.11,0.5,1.11,1.11S4015.32,2959.1,4014.71,2959.1z"/>
									</g>
								</g>
							</g>
							<g>
								<g>
									<g>
										<g>
											<path class="st4" d="M4061.53,2977.35c0,2.6,0.25,4.89,0.82,7.11h3.18c0-0.13,0-0.25-0.06-0.38
												c-0.51-2.1-0.76-4.32-0.76-6.73c0-6.73,2.22-13.27,6.29-18.42c0.25-0.32,0.51-0.64,0.82-0.95
												c5.65-6.86,14.22-10.92,23.18-10.92v-3.18c-10.35,0-20.32,4.89-26.54,13.14c-0.25,0.32-0.44,0.64-0.7,0.96
												C4063.75,2963.44,4061.53,2970.3,4061.53,2977.35z"/>
										</g>
									</g>
								</g>
							</g>
						</g>
						<g>
							<g>
								<g>
									<g>
										<g>
											<g>
												<rect x="4179.44" y="2957.98" width="159.25" height="26.48"/>
											</g>
										</g>
									</g>
								</g>
								<g>
									<g>
										<g>
											<g>
												<polygon points="4265.35,2889.85 4179.44,2957.98 4338.69,2957.98 4338.69,2889.85 												"/>
											</g>
										</g>
									</g>
								</g>
							</g>
							<g>
								<g>
									<g>
										<path class="st4" d="M4258.4,2959.1h-78.98c-0.61,0-1.11-0.5-1.11-1.11s0.5-1.11,1.11-1.11h78.98
											c0.61,0,1.11,0.5,1.11,1.11S4259.01,2959.1,4258.4,2959.1z"/>
									</g>
								</g>
							</g>
							<g>
								<g>
									<g>
										<g>
											<path class="st4" d="M4305.22,2977.35c0,2.6,0.25,4.89,0.82,7.11h3.18c0-0.13,0-0.25-0.06-0.38
												c-0.51-2.1-0.76-4.32-0.76-6.73c0-6.73,2.22-13.27,6.29-18.42c0.25-0.32,0.51-0.64,0.82-0.95
												c5.65-6.86,14.23-10.92,23.18-10.92v-3.18c-10.35,0-20.32,4.89-26.54,13.14c-0.25,0.32-0.44,0.64-0.7,0.96
												C4307.44,2963.44,4305.22,2970.3,4305.22,2977.35z"/>
										</g>
									</g>
								</g>
							</g>
						</g>
						<g>
							<g>
								<g>
									<path class="st17" d="M4353.01,2900.06c-16.36,25.2-132.14,13.52-139.67,1.54c-1.07-1.72-2.96-23.24-5.28-55.49
										c-0.36-4.74-0.71-9.72-1.07-14.88c-7.88-114.77-19.33-435.17-19.33-435.17s-34.56,319.46-56.79,433.28
										c-0.95,4.74-1.84,9.31-2.73,13.69c-6.58,32.61-11.74,54.3-14.17,55.73c-29.52,17.61-106.24,9.19-121.41,1.6
										c-2.37-1.19-2.13-15.41,0.06-38.59c0.3-3.74,0.71-7.71,1.13-11.86c14.23-136.11,76.42-606.09,76.42-606.09
										s248.93-22.23,259.01,3.56"/>
								</g>
							</g>
						</g>
						<g>
							<g>
								<g>
									<g>
										<path class="st4" d="M4084.39,2856.83c0.19,0.47-4.81,3.34-16.05,5.44c-9.54,1.48-19.3,1.54-28.85,0.16
											c-11.25-1.97-16.28-4.79-16.09-5.27c0.24-0.74,5.56,0.94,16.51,2.32c9.26,1.34,18.73,1.29,27.98-0.15
											C4078.84,2857.82,4084.14,2856.08,4084.39,2856.83z"/>
									</g>
								</g>
							</g>
						</g>
						<g>
							<g>
								<g>
									<g>
										<path class="st4" d="M4321.23,2850.7c0.14,0.57-6.33,2.96-19.93,6.13c-11.57,2.39-23.41,4.11-35.36,3.82
											c-14.13-0.69-20.65-3.83-20.48-4.26c0.2-0.82,6.85,1.15,20.55,1.27c11.61,0.28,23.23-1.4,34.68-3.76
											C4314.28,2851.3,4321.07,2850,4321.23,2850.7z"/>
									</g>
								</g>
							</g>
						</g>
						<g>
							<g>
								<g>
									<g>
										<path class="st4" d="M4338.45,2338.09c-0.1,0.25-2.44-0.24-6.76-2.26c-4.26-2.07-10.59-5.74-17.32-12.69
											c-5.58-5.96-10.12-12.91-13.23-20.49c-3.08-7.59-4.71-15.73-4.89-23.89c-0.06-9.66,1.89-16.72,3.48-21.17
											c1.67-4.46,3-6.45,3.25-6.34c0.35,0.15-0.41,2.37-1.55,6.85c-1.07,4.49-2.52,11.35-2.2,20.59
											c0.18,7.81,1.73,15.59,4.67,22.83c2.97,7.22,7.3,13.87,12.65,19.57c6.24,6.83,12.09,10.71,15.99,13.17
											C4336.5,2336.68,4338.59,2337.74,4338.45,2338.09z"/>
									</g>
								</g>
							</g>
						</g>
						<g>
							<g>
								<g>
									<g>
										<path class="st4" d="M4059.19,2318.82c-0.49-0.58,5.25-5.2,15.54-15.52c2.15-2.18,4.28-4.43,5.95-6.86
											c1.62-2.48,3.15-5.21,4.4-7.97c2.58-5.53,4.41-11.42,5.46-17.44c1.34-7.09,1.46-12.54,1.49-16.15
											c0.04-3.63-0.03-5.46,0.34-5.51c0.28-0.04,0.95,1.71,1.44,5.4c0.49,3.68,0.8,9.33-0.32,16.77
											c-1.1,6.28-3,12.42-5.69,18.19c-1.34,2.91-2.86,5.66-4.65,8.4c-1.88,2.72-4.07,5.01-6.29,7.28
											C4065.93,2315.59,4059.53,2319.25,4059.19,2318.82z"/>
									</g>
								</g>
							</g>
						</g>
						<g>
							<g>
								<g>
									<g>
										<path class="st4" d="M4181.03,2296.83c0.29,0.15-0.53,2.41-2.4,6.83c-1.81,4.43-4.89,10.97-7.67,20.06
											c-2.41,7.66-3.68,15.69-2.91,23.6c0.78,7.89,3.55,15.59,7.96,22.18c2.5,3.96,5.42,6.86,7.76,9.75
											c2.35,2.85,3.91,5.75,4.49,8.23c1.18,5.1-0.74,7.52-0.88,7.32c-0.42-0.09,0.7-2.48-0.83-6.8
											c-0.76-2.14-2.28-4.55-4.67-7.14c-2.33-2.58-5.58-5.55-8.36-9.7c-4.69-7-7.63-15.16-8.46-23.55
											c-0.82-8.42,0.54-16.87,3.03-24.79c3.14-9.31,6.64-15.71,8.92-19.95C4179.37,2298.67,4180.74,2296.68,4181.03,2296.83z"/>
									</g>
								</g>
							</g>
						</g>
						<g>
							<g>
								<g>
									<g>
										<path class="st4" d="M4015.36,2785.15c-0.16-0.03,0.06-2.24,0.66-6.65c0.64-4.41,1.59-11.02,2.87-19.84
											c2.51-17.67,6.29-44.21,11.33-79.72l25.26-180.63c5.2-35.48,9.39-61.96,12.52-79.52c1.5-8.79,2.82-15.35,3.7-19.71
											c0.89-4.36,1.42-6.52,1.58-6.49c0.16,0.03-0.06,2.24-0.65,6.65c-0.64,4.41-1.59,11.01-2.87,19.83
											c-2.51,17.66-6.28,44.18-11.32,79.67l-25.26,180.63c-5.22,35.51-9.41,62.01-12.54,79.58c-1.5,8.8-2.82,15.35-3.7,19.72
											C4016.05,2783.02,4015.52,2785.18,4015.36,2785.15z"/>
									</g>
								</g>
							</g>
						</g>
					</g>
					<g>
						<g>
							<g>
								<g>
									<path class="st4" d="M4316.51,2671.15c-0.64,0.01-1.57-21.91-2.57-66.24l-1.85-112.68c-0.46-44.3-0.25-66.23,0.41-66.25
										s1.57,21.91,2.58,66.2l1.85,112.68C4317.38,2649.2,4317.18,2671.14,4316.51,2671.15z"/>
								</g>
							</g>
						</g>
					</g>
				</g>
				<g>
					<g>
						<g>
							<g>
								<g>
									<path class="st18" d="M4359.35,2086.3l21.06,23.33l142.18-34.81c-4.87-36.98-58.58-80.67-80.02-95.56
										C4431.58,2006.71,4365.96,2093.93,4359.35,2086.3z"/>
								</g>
							</g>
						</g>
						<g>
							<g>
								<g>
									<g>
										<path class="st18" d="M4032.93,2042.09c-10.16,6.07-95.74,43.42-120.95,31.33c-43.96-21.17-144.95-137.36-144.95-137.36
											s-69.49-15.91-67.92-70.16c1.44-53.13,68.09,2.83,70.97,5.26c-0.36-1.08-4.85-13.35,3.91-21.26
											c9.17-8.32,20,30.88,20,30.88l141.04,86.48l46.83-23.24C3981.87,1944.02,4033.74,2041.55,4032.93,2042.09z"/>
									</g>
								</g>
							</g>
							<g>
								<g>
									<g>
										<path class="st19" d="M4006.52,2074.45l44.72-13.75l2.49,192.69c0.49,27.56,213.11,24.04,269.9,2
											c8.83-3.47,13.86-7.31,13.81-11.59l-3.79-47.16l-9.17-134.05l34.41,27.31c4.89,6.47,72.7-83.19,83.69-110.65
											c1.57-3.9,2-6.55,1.08-7.63c-3.3-0.7-85.06-75.53-136.01-93.18c-51.81-17.92-167.25-12.13-219.28,5.25
											c-42.29,14.19-120.03,62.91-120.03,62.91C3960.77,1949.11,3998.94,2076.94,4006.52,2074.45z"/>
									</g>
								</g>
							</g>
							<g>
								<g>
									<g>
										<path class="st18" d="M4316.67,2244.96c0,0-38.58,14.77-37.06,22.6s14.96,9.97,14.96,9.97s-49.26,48.81-2.75,74.59
											c46.51,25.78,73.22-75.59,73.22-75.59L4316.67,2244.96z"/>
									</g>
								</g>
							</g>
							<g>
								<g>
									<g>
										<path class="st18" d="M4316.63,2244.94l48.4,31.62c0,0,165.14-144.56,157.56-201.74l-142.18,34.81L4316.63,2244.94z"/>
									</g>
								</g>
							</g>
							<g>
								<g>
									<g>
										<g>
											<path class="st4" d="M4054.01,1970.31c0.76,0.22-1.62,8.15-3.9,24.53c-2.07,13.85-2.47,27.96-1.17,41.9
												c1.36,16.47,3.29,24.52,2.5,24.7c-0.31,0.07-1.07-1.87-2.19-5.89c-1.03-4.04-2.38-10.18-3.29-18.54
												c-1.32-14.18-0.91-28.53,1.19-42.61C4050.02,1977.8,4053.53,1970.13,4054.01,1970.31z"/>
										</g>
									</g>
								</g>
							</g>
							<g>
								<g>
									<g>
										<g>
											<path class="st4" d="M4298.03,1992.35c0.88,0.1-0.72,7.09,1.1,20.89c1.44,11.67,5.69,22.99,12.28,32.72
												c7.7,11.57,13.5,15.78,12.9,16.45c-0.2,0.25-1.73-0.65-4.55-2.85c-2.71-2.31-6.67-6.02-10.82-11.93
												c-6.86-10.12-11.27-21.88-12.77-34.02c-0.76-7.19-0.22-12.6,0.3-16.12C4297.14,1993.97,4297.71,1992.29,4298.03,1992.35z
												"/>
										</g>
									</g>
								</g>
							</g>
							<g>
								<g>
									<g>
										<path class="st20" d="M4133.61,2255.78"/>
									</g>
								</g>
							</g>
							<g>
								<g>
									<g>
										<path class="st20" d="M4133.9,2285.51"/>
									</g>
								</g>
							</g>
							<g>
								<g>
									<g>
										<g>
											<g>
												<path class="st18" d="M4154.31,1825.53c6.85,7.85,3.72,23.84,3.6,38.52c-4.61,19.73,64.15,27.02,73.85,2.67
													c-5.48-21.68-4.58-50.95,1.02-73.53S4154.31,1825.53,4154.31,1825.53z"/>
											</g>
										</g>
									</g>
									<g>
										<g>
											<g>
												<path class="st18" d="M4232.76,1793.17h0.05c0.27-0.38,0.49-0.7,0.76-0.97
													C4233.25,1792.52,4232.98,1792.85,4232.76,1793.17z"/>
											</g>
										</g>
									</g>
								</g>
								<g>
									<g>
										<g>
											<path class="st4" d="M4242.56,1868.31c0,0-40.73,39.62-41.51,39.63c-0.13-0.45-18.29-27.5-18.29-27.5l46.24-29.46
												C4229.06,1851.49,4242.56,1868.31,4242.56,1868.31z"/>
										</g>
									</g>
								</g>
								<g>
									<g>
										<g>
											<path class="st4" d="M4183.04,1881.22c0,0-19.7,18.16-20.13,18.31s-20.04-27.26-20.04-27.26l15.45-18.56l24.44,26.73"/>
										</g>
									</g>
								</g>
							</g>
							<g>
								<g>
									<g>
										<g>
											<g>
												<path class="st18" d="M4150.96,1829.5c32.27,16.57,65.62-16.84,78.56-32.32c1.3-1.52,2.44-2.92,3.25-4.01
													c0.22-0.33,0.49-0.65,0.81-0.97c0.05-0.05,0.11-0.16,0.22-0.27c0.81-1.08,1.25-1.73,1.25-1.73
													c0.05-0.11,0.38-0.27,0.87-0.49c4.71-2.06,26.58-10.34,19.44-31.51c-4.01-12.24-27.4,0.16-27.4,0.16
													s-11.91-45.7-32.43-47.43c-20.47-1.79-54.63,26.04-54.63,26.04s-0.81,2.98-1.57,7.74c-0.54,3.14-1.19,7.09-1.79,11.53
													C4134.17,1780.39,4132,1819.7,4150.96,1829.5z"/>
											</g>
										</g>
									</g>
								</g>
								<g>
									<g>
										<g>
											<path d="M4115.55,1711.25c-2.92,4.55-29.13,15.81-16.73,37.95c2.6,4.66,9.37,6.93,18.46,7.58
												c5.96,0.43,12.83,0.16,20.25-0.54c0.6-4.44,1.25-8.39,1.79-11.53c0.76-4.77,1.57-7.74,1.57-7.74s34.16-27.83,54.63-26.04
												c20.52,1.73,32.43,47.43,32.43,47.43s23.39-12.4,27.4-0.16c7.15,21.17-14.73,29.45-19.44,31.51
												c-0.81,0.81-1.52,1.52-2.11,2.22c-0.11,0.11-0.16,0.22-0.22,0.27c-0.32,0.32-0.6,0.65-0.81,0.97h0.05
												c49-8.45,70.71-104.77,39.52-134.82c-26.21-25.18-69.41-2.92-91.77-0.92c-22.36,2-50.73-36.11-71.2-29.62
												c-20.57,6.55,1.41,40.17-2.76,46.89c-4.17,6.71-10.72,2-16.57,16.35C4084.25,1705.41,4118.42,1706.71,4115.55,1711.25z"
												/>
										</g>
									</g>
								</g>
							</g>
							<g>
								<g>
									<g>
										<path d="M4227.95,1758.36c0,0-8.75-16.79-22-24.74c-0.96-0.58-65.38,17.26-70.65,1.15c-5.27-16.11,3.35-39.69,3.35-39.69
											s29.34-12.27,32.98-12.85s48.89,16.87,52.54,18.02c3.64,1.15,16.87,19.56,16.87,19.56l-12.08,38.04"/>
									</g>
								</g>
							</g>
							<g>
								<g>
									<g>
										<g>
											<path d="M4193.98,1824.46c0.14,0.19-2.42,2.6-8.81,5.4c-5.46,2.22-11.27,3.55-17.15,3.94
												c-6.96,0.27-10.33-0.78-10.28-1.02c0.04-0.41,3.43,0.06,10.18-0.48c5.72-0.37,11.38-1.68,16.69-3.83
												C4190.92,1826,4193.76,1824.1,4193.98,1824.46z"/>
										</g>
									</g>
								</g>
							</g>
							<g>
								<g>
									<g>
										<g>
											<g>
												<path class="st18" d="M3790.36,1869.76c0.1-0.2,0.1-0.31,0.05-0.31C3790.26,1869.45,3790.21,1869.55,3790.36,1869.76z"
													/>
											</g>
										</g>
									</g>
								</g>
							</g>
						</g>
					</g>
				</g>
			</g>
			<g>
				<g>
					<g>
						<g>
							<g>
								<g>
									<path class="st18" d="M1033.55,1714.68l12.11,39.08l153.19-92.32l22.47,56.46c0,0-142.53,200.38-204.12,188.29
										c-61.6-12.09-71.91-124.85-71.91-124.85l52.55-44.34L1033.55,1714.68z"/>
								</g>
							</g>
						</g>
						<g>
							<g>
								<g>
									<path class="st18" d="M1198.6,1661.74c0,0,11.69-40.91,19.63-34.36s2.78,20.04,2.78,20.04s46.64-57.95,51.2-38.9
										s-31.56,45.65-31.56,45.65s27.19,24.21,25.01,40.29c-3.24,23.83-44.59,23.73-44.59,23.73L1198.6,1661.74z"/>
								</g>
							</g>
						</g>
						<g>
							<g>
								<g>
									<path class="st7" d="M982.6,1641.88c0,0,45.63,32.22,63.95,93.79c6.57,7.78-60.45,64.35-67.02,56.56l-42.65-47.71
										L982.6,1641.88z"/>
								</g>
							</g>
						</g>
						<g>
							<g>
								<g>
									<g>
										<g>
											<g>
												<g>
													<rect x="963.36" y="2766.63" width="180.24" height="29.97"/>
												</g>
											</g>
										</g>
									</g>
									<g>
										<g>
											<g>
												<g>
													<polygon points="1046.36,2689.52 1143.59,2766.63 963.36,2766.63 963.36,2689.52 													"/>
												</g>
											</g>
										</g>
									</g>
								</g>
								<g>
									<g>
										<g>
											<path class="st4" d="M1143.62,2767.75h-89.39c-0.61,0-1.11-0.5-1.11-1.11s0.5-1.11,1.11-1.11h89.39
												c0.61,0,1.11,0.5,1.11,1.11S1144.23,2767.75,1143.62,2767.75z"/>
										</g>
									</g>
								</g>
								<g>
									<g>
										<g>
											<g>
												<path class="st4" d="M1001.23,2788.55c0,2.95-0.29,5.53-0.93,8.05h-3.59c0-0.14,0-0.29,0.07-0.43
													c0.58-2.37,0.86-4.89,0.86-7.62c0-7.62-2.51-15.02-7.12-20.84c-0.29-0.36-0.58-0.72-0.93-1.08
													c-6.4-7.76-16.1-12.36-26.23-12.36v-3.59c11.71,0,23,5.53,30.04,14.88c0.29,0.36,0.5,0.72,0.79,1.08
													C998.72,2772.81,1001.23,2780.57,1001.23,2788.55z"/>
											</g>
										</g>
									</g>
								</g>
							</g>
							<g>
								<g>
									<g>
										<g>
											<g>
												<g>
													<rect x="687.55" y="2766.63" width="180.24" height="29.97"/>
												</g>
											</g>
										</g>
									</g>
									<g>
										<g>
											<g>
												<g>
													<polygon points="770.56,2689.52 867.79,2766.63 687.55,2766.63 687.55,2689.52 													"/>
												</g>
											</g>
										</g>
									</g>
								</g>
								<g>
									<g>
										<g>
											<path class="st4" d="M867.81,2767.75h-89.39c-0.61,0-1.11-0.5-1.11-1.11s0.5-1.11,1.11-1.11h89.39
												c0.61,0,1.11,0.5,1.11,1.11S868.43,2767.75,867.81,2767.75z"/>
										</g>
									</g>
								</g>
								<g>
									<g>
										<g>
											<g>
												<path class="st4" d="M725.42,2788.55c0,2.95-0.29,5.53-0.93,8.05h-3.59c0-0.14,0-0.29,0.07-0.43
													c0.58-2.37,0.86-4.89,0.86-7.62c0-7.62-2.51-15.02-7.12-20.84c-0.29-0.36-0.58-0.72-0.93-1.08
													c-6.4-7.76-16.1-12.36-26.23-12.36v-3.59c11.71,0,23,5.53,30.04,14.88c0.29,0.36,0.5,0.72,0.79,1.08
													C722.91,2772.81,725.42,2780.57,725.42,2788.55z"/>
											</g>
										</g>
									</g>
								</g>
							</g>
							<g>
								<g>
									<g>
										<path class="st17" d="M671.32,2701.09c18.53,28.5,149.56,15.27,158.12,1.75c1.17-1.94,3.36-26.31,5.93-62.84
											c0.44-5.35,0.83-10.99,1.22-16.83c8.95-129.91,21.89-441.66,21.89-441.66s39.1,310.69,64.3,439.52
											c1.07,5.35,2.04,10.51,3.06,15.52c7.44,36.87,13.28,61.43,16.05,63.03c33.41,19.94,120.23,10.41,137.4,1.85
											c2.67-1.36,2.43-17.46-0.05-43.68c-0.34-4.23-0.83-8.76-1.26-13.42c-16.15-154.08-86.52-635.14-86.52-635.14
											s-281.7-25.14-293.13,4.04L671.32,2701.09z"/>
									</g>
								</g>
							</g>
							<g>
								<g>
									<g>
										<g>
											<path class="st4" d="M975.37,2652.12c0.24-0.74,6.23,1.29,18.64,3.04c10.49,1.63,21.22,1.69,31.72,0.17
												c12.42-1.61,18.42-3.57,18.66-2.81c0.19,0.47-5.53,3.56-18.24,5.78c-10.8,1.56-21.82,1.5-32.6-0.18
												C980.86,2655.76,975.17,2652.6,975.37,2652.12z"/>
										</g>
									</g>
								</g>
							</g>
							<g>
								<g>
									<g>
										<g>
											<path class="st4" d="M707.31,2645.18c0.16-0.68,7.82,0.85,23.19,3.85c12.97,2.68,26.14,4.58,39.3,4.26
												c15.52-0.2,23.05-2.48,23.25-1.64c0.08,0.3-1.73,1.08-5.53,2.17c-3.82,0.96-9.69,2.13-17.65,2.45
												c-13.5,0.32-26.89-1.62-39.97-4.32C714.51,2648.4,707.17,2645.78,707.31,2645.18z"/>
										</g>
									</g>
								</g>
							</g>
							<g>
								<g>
									<g>
										<g>
											<path class="st4" d="M700.8,2108.93c-0.2-0.29,1.61-1.75,5.02-4.83c3.38-3.09,8.39-7.9,13.59-15.46
												c8.99-12.68,13.5-28.33,12.97-43.85c-0.16-9.16-1.71-15.93-2.85-20.37c-1.17-4.44-1.93-6.64-1.57-6.79
												c0.24-0.11,1.57,1.85,3.27,6.25c1.66,4.38,3.69,11.29,4.14,20.82c0.56,16.13-4.15,32.46-13.51,45.66
												c-5.64,7.71-11.12,12.37-14.91,15.13C703.12,2108.23,700.96,2109.18,700.8,2108.93z"/>
										</g>
									</g>
								</g>
							</g>
							<g>
								<g>
									<g>
										<g>
											<path class="st4" d="M1001.27,2093.09c-0.16,0.25-2.05-0.55-5.45-2.83c-3.36-2.31-8.28-6.13-13.64-12.44
												c-8.91-10.84-14.76-24.1-17.04-37.92c-1.17-8.19-0.84-14.4-0.32-18.45c0.52-4.06,1.23-6,1.5-5.95
												c0.37,0.05,0.27,2.07,0.28,6.07c0,3.99,0.09,10,1.49,17.85c2.19,13.32,7.83,26.09,16.4,36.52
												c4.95,6.25,9.44,10.27,12.42,12.93C999.92,2091.49,1001.47,2092.79,1001.27,2093.09z"/>
										</g>
									</g>
								</g>
							</g>
							<g>
								<g>
									<g>
										<g>
											<path class="st4" d="M866.01,2069.2c0.28-0.14,1.78,2.12,4.41,6.9c2.55,4.81,6.48,12.06,10.01,22.59
												c2.81,8.94,4.35,18.48,3.43,27.97c-0.94,9.47-4.25,18.66-9.54,26.56c-3.13,4.68-6.78,8.04-9.42,10.98
												c-2.7,2.95-4.42,5.7-5.27,8.15c-1.7,4.94-0.39,7.64-0.83,7.73c-0.12,0.21-2.23-2.52-0.87-8.25
												c0.67-2.78,2.43-6.03,5.09-9.24c2.65-3.26,5.98-6.54,8.82-11.04c5.01-7.49,8.16-16.23,9.05-25.2
												c0.88-8.98-0.57-18.1-3.3-26.79c-3.16-10.31-6.67-17.7-8.75-22.7C866.67,2071.9,865.71,2069.35,866.01,2069.2z"/>
										</g>
									</g>
								</g>
							</g>
							<g>
								<g>
									<g>
										<g>
											<path class="st4" d="M1043.61,2492.15c-0.63,0.11-6.18-27.92-16.51-84.77l-25.6-144.58
												c-9.8-56.88-14.22-85.12-13.57-85.23c0.64-0.11,6.18,27.92,16.52,84.71l25.6,144.58
												C1039.84,2463.81,1044.27,2492.04,1043.61,2492.15z"/>
										</g>
									</g>
								</g>
							</g>
						</g>
						<g>
							<g>
								<g>
									<g>
										<path class="st4" d="M712.62,2492.86c-0.64-0.01-0.81-24.84-0.25-75.02l2.1-127.53c1.09-50.13,2.07-74.93,2.73-74.92
											c0.65,0.01,0.81,24.84,0.26,74.97l-2.1,127.53C714.26,2468.07,713.29,2492.87,712.62,2492.86z"/>
									</g>
								</g>
							</g>
						</g>
						<g>
							<g>
								<g>
									<g>
										<path class="st7" d="M1014.22,2016.97c2.43-90.04,1.73-319.09-23.87-364.95c-33.45-59.92-239.6-68.95-311.23,0
											c-15.57,14.99-3.96,271.83,3.82,363.81C682.94,2045.65,1014.22,2046.79,1014.22,2016.97z"/>
									</g>
								</g>
							</g>
							<g>
								<g>
									<g>
										<path class="st18" d="M763.96,1782.13l-1.66,37.69l146.62-54.8l8.71,59.01c0,0-176.56,137.86-249.02,109.36
											c-38.28-15.06-25.25-154.79-25.25-154.79L763.96,1782.13z"/>
									</g>
								</g>
							</g>
						</g>
						<g>
							<g>
								<g>
									<path class="st7" d="M707.28,1632.11c0,0,44.91-3.13,57.09,52.61c12.18,55.75,7.65,109.95,7.65,109.95
										c0.12,3.87-138.43,17.22-141.49,4.55C630.53,1799.23,627.09,1657.72,707.28,1632.11z"/>
								</g>
							</g>
						</g>
						<g>
							<g>
								<g>
									<g>
										<path class="st4" d="M772.17,1735.1c0.55-0.08,2.23,6.46,3.06,19.99c0.45,11.46,0.07,22.95-1.07,34.36
											c-0.24,1.74-0.35,3.11-0.7,4.85c-0.16,0.86-0.85,2.11-1.92,2.55c-0.99,0.43-1.66,0.42-2.28,0.53
											c-2.55,0.34-4.68,0.43-6.38,0.42c-3.41-0.04-5.07-0.44-5.07-0.75c0-0.34,1.67-0.56,4.94-1.02
											c1.63-0.24,3.67-0.56,6.08-1.09c0.6-0.13,1.27-0.26,1.52-0.43c0.21-0.14,0.28-0.26,0.41-0.82
											c0.16-1.16,0.26-2.93,0.41-4.53c1.13-11.27,1.5-22.62,1.06-33.95C771.96,1741.83,771.43,1735.19,772.17,1735.1z"/>
									</g>
								</g>
							</g>
						</g>
						<g>
							<g>
								<g>
									<g>
										<path class="st4" d="M725.04,1634.48c0.16-0.27,1.67,0.22,4.52,1.58c2.84,1.38,7.09,3.54,12.35,7.28
											c4.35,3.28,8.4,7.16,11.57,11.68c3.19,4.5,5.68,9.4,7.63,14.51c4.17,12.27,3.31,18.88,2.85,18.86
											c-0.83,0.11-1.15-6.26-5.64-17.79c-3.69-9.84-9.68-18.72-18.22-24.87c-4.88-3.81-8.88-6.32-11.44-8.13
											C726.08,1635.8,724.87,1634.77,725.04,1634.48z"/>
									</g>
								</g>
							</g>
						</g>
						<g>
							<g>
								<g>
									<g>
										<path class="st18" d="M932.8,1765.54c1.65-0.99,10.89-8.88,4.07-20.99c-7.15-12.84-27.93,20.45-27.93,20.45
											C916.44,1773.39,924.09,1779.21,932.8,1765.54z"/>
									</g>
								</g>
							</g>
						</g>
						<g>
							<g>
								<g>
									<g>
										<path class="st21" d="M1086.69,1698.32l-54.45,148.07c-0.62,1.69-2.23,2.81-4.03,2.81H918.33l57.6-156.65h106.72
											C1085.64,1692.55,1087.72,1695.52,1086.69,1698.32z"/>
									</g>
								</g>
							</g>
							<g>
								<g>
									<g>
										<path class="st22" d="M975.94,1692.55l-57.6,156.65h-9.91c-2.99,0-5.06-2.97-4.03-5.77l54.45-148.07
											c0.62-1.69,2.23-2.81,4.03-2.81H975.94z"/>
									</g>
								</g>
							</g>
							<g>
								<g>
									<g>
										<g>
											<path class="st23" d="M1017.57,1766.86c0.69-0.12,1.98,1.67,2.18,5.81c0.14,4-0.94,10.78-6.99,17.14
												c-2.61,2.46-5.88,4.71-9.9,5.59c-1.98,0.42-4.19,0.56-6.52-0.1c-2.33-0.64-4.57-2.32-5.81-4.46
												c-2.47-4.47-1.66-8.64-0.89-12.04c0.84-3.37,2.09-6.62,3.68-9.68c4.12-7.07,9.01-10.94,12.41-12.91
												c3.48-1.95,5.55-2.15,5.94-1.49c0.43,0.72-0.82,2.22-3.17,4.9c-2.3,2.7-5.76,6.72-8.65,12.91
												c-2.5,4.79-4.66,11.89-3,14.51c0.64,1.14,2.08,1.63,4.44,1.15c2.23-0.45,4.42-1.87,6.4-3.73
												c4.81-4.17,6.69-9.12,7.71-12.31C1016.4,1768.89,1016.69,1766.97,1017.57,1766.86z"/>
										</g>
									</g>
								</g>
							</g>
						</g>
						<g>
							<g>
								<g>
									<path class="st18" d="M908.94,1765l0.23,65.45c0,0,58.55,11.79,78.14-38.11c19.13-48.65-57.25-26.15-61.16-25.02
										L908.94,1765z"/>
								</g>
							</g>
						</g>
					</g>
					<g>
						<g>
							<g>
								<g>
									<path class="st18" d="M799.82,1547.15v58.97l66.66,48.98l5.12-71.35c0,0,53.37,4.43,55.85-26.74
										c1.21-15.35,0.11-40.92-0.42-57.9c-0.11-3.64-0.26-7.12-0.42-10.34c-9.33,2.85-19.51,2.85-29.16,1.16
										c-12.87-2.27-25-7.38-37.07-12.29c-7.59-3.06-17.03-5.8-23.2-0.47c-3.96,3.48-5.01,9.12-5.38,14.4
										c-0.32,5.22-0.32,10.76-2.85,15.35c-2.58,4.59-8.17,6.54-12.45,3.43c0,0-29.58-20.88-40.5,0c-0.74,1.42-1.21,2.9-1.64,4.22
										c0,0,0,0,0,0.11c0,0.11,0,0.21,0,0.21s0,0-0.11,0C770.03,1533.59,799.82,1547.15,799.82,1547.15z"/>
								</g>
							</g>
						</g>
						<g>
							<g>
								<g>
									<path class="st18" d="M816.49,1476.69v33.65c4.27,3.11,9.86,1.16,12.45-3.43c2.53-4.59,2.53-10.12,2.85-15.35
										c0.37-5.27,1.42-10.92,5.38-14.4c6.17-5.33,15.61-2.58,23.2,0.47c12.08,4.91,24.2,10.02,37.07,12.29
										c9.65,1.69,19.83,1.69,29.16-1.16c-0.53-12.45-1.11-21.09-1.11-21.09s-30.11-25.52-33.22-25.52
										c-3.16,0-50.89,15.14-53.16,15.98C836.84,1458.92,816.49,1476.69,816.49,1476.69z"/>
								</g>
							</g>
						</g>
						<g>
							<g>
								<g>
									<g>
										<path class="st24" d="M846.67,1575.92c0.18-0.31,2.31,0.7,6.67,2.45c3.66,1.58,7.48,2.79,11.37,3.63
											c4.57,1.1,6.89,1.4,6.87,1.74c0,0.31-2.44,0.58-7.19-0.27c-3.99-0.87-7.89-2.11-11.64-3.72
											C848.39,1577.69,846.52,1576.17,846.67,1575.92z"/>
									</g>
								</g>
							</g>
						</g>
						<g>
							<g>
								<g>
									<g>
										<path class="st24" d="M797.84,1530.34c-0.08,0.3-0.77,0.48-2.08,0.23c-1.29-0.26-3.3-0.92-5.35-2.92
											c-3.3-3.45-4.14-9.8-0.02-13.5c2.47-1.88,4.98-1.74,6.31-1.25c1.39,0.53,1.74,1.27,1.58,1.51
											c-0.18,0.3-0.82,0.18-1.88,0.25c-1.02,0.07-2.66,0.41-4.06,1.77c-2.5,2.1-2.19,6.71,0.29,9.22
											C795.48,1528.9,798.12,1529.59,797.84,1530.34z"/>
									</g>
								</g>
							</g>
						</g>
						<g>
							<g>
								<g>
									<path class="st25" d="M799.82,1547.15c0,0-29.8-13.55-25.47-32.27c0,0,0-0.11,0-0.32c0.42-1.32,0.9-2.79,1.64-4.22
										c10.92-20.88,40.5,0,40.5,0c4.27,3.11,9.86,1.16,12.45-3.43c2.53-4.59,2.53-10.12,2.85-15.35
										c0.37-5.27,1.42-10.92,5.38-14.4c6.17-5.33,15.61-2.58,23.2,0.47c12.08,4.91,47.5,1.2,60.29-1.47
										c51.73-10.79,30.61-74.56-0.97-83.91c-19.22-5.7-39.38,1.03-59.41,1.89c-85.99,3.69-97.31,49.77-100.85,66.23
										C746.72,1519.49,782.46,1554.55,799.82,1547.15z"/>
								</g>
							</g>
						</g>
					</g>
				</g>
			</g>
		</g>
		<g>
			<g>
				<g>
					<g>
						<path class="st21" d="M4130.69,1027.49l142.28-199.17l-255.61,47.42c-0.16,0.03-0.24,0.22-0.14,0.35l113.11,151.41
							C4130.42,1027.61,4130.6,1027.61,4130.69,1027.49z"/>
					</g>
				</g>
			</g>
			<g>
				<g>
					<g>
						<path class="st22" d="M4257.67,839.38l-171.26,129.29c-0.01,0.01-0.02,0.02-0.03,0.03l-27.55,29.55
							c-0.14,0.15-0.38,0.05-0.39-0.15l-1.45-68.62c0-0.09,0.05-0.17,9.78-4.72L4257.67,839.38z"/>
					</g>
				</g>
			</g>
			<g>
				<g>
					<g>
						<path class="st22" d="M4059.26,998.39l39.64-12.46c0.15-0.05,0.2-0.22,0.11-0.35l-12.47-16.69c-0.08-0.11-0.25-0.12-0.34-0.02
							l-27.17,29.15C4058.88,998.19,4059.05,998.46,4059.26,998.39z"/>
					</g>
				</g>
			</g>
		</g>
		<g>
			<g>
				<g>
					<g>
						<g>
							
								<ellipse transform="matrix(0.7071 -0.7071 0.7071 0.7071 -133.4077 1141.1318)" class="st26" cx="1310.76" cy="731.6" rx="127.15" ry="127.15"/>
						</g>
					</g>
				</g>
				<g>
					<g>
						<g>
							<circle class="st4" cx="1310.76" cy="731.6" r="101.47"/>
						</g>
					</g>
				</g>
				<g>
					<g>
						<g>
							<circle class="st27" cx="1310.76" cy="731.6" r="73.76"/>
						</g>
					</g>
				</g>
				<g>
					<g>
						<g>
							
								<ellipse transform="matrix(0.8881 -0.4596 0.4596 0.8881 -189.6023 684.2051)" class="st4" cx="1310.76" cy="731.6" rx="45.93" ry="45.93"/>
						</g>
					</g>
				</g>
				<g>
					<g>
						<g>
							
								<ellipse transform="matrix(0.9297 -0.3683 0.3683 0.9297 -177.3114 534.1769)" class="st28" cx="1310.76" cy="731.6" rx="22.75" ry="22.75"/>
						</g>
					</g>
				</g>
				<g>
					<g>
						<g>
							<g>
								<path d="M1205.58,594.05l-29.32-27.07c-2.75-2.54-7.2-0.48-7.04,3.26l1.17,27.7c0.1,2.33-1.71,4.29-4.04,4.37l-27.7,1.04
									c-3.74,0.14-5.44,4.74-2.69,7.28l29.32,27.07c0.82,0.75,1.9,1.15,3.01,1.11l36.09-1.39c2.32-0.09,4.13-2.05,4.03-4.37
									l-1.48-36.09C1206.88,595.85,1206.4,594.8,1205.58,594.05z"/>
							</g>
						</g>
					</g>
					<g>
						<g>
							<g>
								<path d="M1311.08,721.47l-152.74-141.04c-3.13-2.89-7.98-2.7-10.82,0.39c-2.89,3.13-2.7,7.98,0.43,10.86l152.74,141.04
									c3.08,2.85,7.93,2.65,10.82-0.47C1314.35,729.17,1314.16,724.32,1311.08,721.47z"/>
							</g>
						</g>
					</g>
				</g>
			</g>
		</g>
		<g>
			<g>
				<g>
					<g>
						
							<ellipse transform="matrix(0.7071 -0.7071 0.7071 0.7071 319.6225 2974.4771)" class="st7" cx="3750.32" cy="1101.42" rx="142.88" ry="142.88"/>
					</g>
				</g>
			</g>
			<g>
				<g>
					<g>
						<g>
							<path class="st4" d="M3661.31,1059.8v83.24c0,12.04,9.83,21.87,21.96,21.87h134.09c12.13,0,21.96-9.83,21.96-21.87v-83.24
								c0-12.04-9.83-21.87-21.96-21.87h-134.09C3671.14,1037.93,3661.31,1047.76,3661.31,1059.8z"/>
						</g>
					</g>
				</g>
				<g>
					<g>
						<g>
							<g>
								<path class="st7" d="M3750.27,1115.49c0.85,0,1.69-0.3,2.38-0.88l66.79-57.47c1.52-1.31,1.7-3.61,0.38-5.14
									c-1.31-1.52-3.61-1.7-5.14-0.38l-64.42,55.42l-64.32-55.32c-1.53-1.31-3.83-1.14-5.14,0.38c-1.31,1.53-1.14,3.83,0.38,5.14
									l66.69,57.37C3748.58,1115.2,3749.43,1115.49,3750.27,1115.49z"/>
							</g>
						</g>
					</g>
				</g>
				<g>
					<g>
						<g>
							<g>
								<path class="st7" d="M3683.58,1145.68c0.84,0,1.69-0.29,2.38-0.88l50.85-43.83c1.52-1.32,1.69-3.61,0.38-5.14
									c-1.32-1.52-3.61-1.69-5.14-0.38l-50.85,43.83c-1.52,1.32-1.69,3.61-0.38,5.14
									C3681.54,1145.25,3682.56,1145.68,3683.58,1145.68z"/>
							</g>
						</g>
					</g>
				</g>
				<g>
					<g>
						<g>
							<g>
								<path class="st7" d="M3817.07,1145.48c1.02,0,2.04-0.43,2.76-1.27c1.31-1.53,1.14-3.83-0.38-5.14l-50.84-43.73
									c-1.53-1.31-3.83-1.14-5.14,0.38c-1.31,1.53-1.14,3.83,0.38,5.14l50.84,43.73
									C3815.38,1145.19,3816.22,1145.48,3817.07,1145.48z"/>
							</g>
						</g>
					</g>
				</g>
			</g>
		</g>
	</g>
</g>
</svg>
