<?xml version="1.0" encoding="utf-8"?>
<!-- Generator: Adobe Illustrator 25.2.0, SVG Export Plug-In . SVG Version: 6.00 Build 0)  -->
<svg version="1.1" id="Layer_1" xmlns="http://www.w3.org/2000/svg" xmlns:xlink="http://www.w3.org/1999/xlink" x="0px" y="0px"
	 viewBox="0 0 3000 2000" style="enable-background:new 0 0 3000 2000;" xml:space="preserve">
<style type="text/css">
	.st0{fill:#71A0EA;}
	.st1{fill:#6880E4;}
	.st2{clip-path:url(#SVGID_2_);fill:#D4DFFF;}
	.st3{clip-path:url(#SVGID_4_);fill:#D4DFFF;}
	.st4{clip-path:url(#SVGID_6_);fill:#D4DFFF;}
	.st5{clip-path:url(#SVGID_8_);fill:#D4DFFF;}
	.st6{clip-path:url(#SVGID_10_);fill:#D4DFFF;}
	.st7{clip-path:url(#SVGID_12_);fill:#D4DFFF;}
	.st8{fill:#0C2860;}
	.st9{opacity:0.3;clip-path:url(#SVGID_14_);fill:#6880E4;enable-background:new    ;}
	.st10{opacity:0.3;clip-path:url(#SVGID_16_);fill:#6880E4;enable-background:new    ;}
	.st11{opacity:0.3;clip-path:url(#SVGID_18_);fill:#6880E4;enable-background:new    ;}
	.st12{opacity:0.3;clip-path:url(#SVGID_20_);fill:#6880E4;enable-background:new    ;}
	.st13{opacity:0.3;clip-path:url(#SVGID_22_);fill:#6880E4;enable-background:new    ;}
	.st14{fill:#FE8E9C;}
	.st15{fill:#1C056D;}
	.st16{fill:#1B3D9E;}
	.st17{clip-path:url(#SVGID_24_);fill:#1C056D;}
	.st18{clip-path:url(#SVGID_26_);fill:#E57492;}
	.st19{clip-path:url(#SVGID_28_);fill:#E57492;}
	.st20{clip-path:url(#SVGID_30_);fill:#FFFFFF;}
	.st21{clip-path:url(#SVGID_32_);fill:#E57492;}
	.st22{clip-path:url(#SVGID_34_);fill:#E57492;}
	.st23{fill:#FC476A;}
	.st24{fill:#D40221;}
	.st25{clip-path:url(#SVGID_36_);fill:#D40221;}
	.st26{clip-path:url(#SVGID_38_);fill:#D40221;}
	.st27{fill:#FFFFFF;}
	.st28{clip-path:url(#SVGID_40_);fill:#D40221;}
	.st29{clip-path:url(#SVGID_42_);fill:#1C056D;}
	.st30{clip-path:url(#SVGID_44_);fill:#E57492;}
	.st31{clip-path:url(#SVGID_46_);fill:#E57492;}
	.st32{fill:#E57492;}
	.st33{fill:#F9C438;}
	.st34{clip-path:url(#SVGID_48_);fill:#F6AB36;}
	.st35{fill:#D4DFFF;}
	.st36{opacity:0.3;clip-path:url(#SVGID_50_);fill:#6880E4;enable-background:new    ;}
	.st37{fill:#001F77;}
</style>
<g>
	<path class="st0" d="M820.6,1200.8c-120.4,0-218.4-98-218.4-218.4S700.2,764,820.6,764s218.4,98,218.4,218.4
		S941.1,1200.8,820.6,1200.8z M1201.7,922.8h-59.5c-8.3-45.2-25.9-87.8-52-125.5l42.1-42.1c5.3-5.3,5.3-13.9,0-19.2l-65.2-65.2
		c-5.3-5.3-13.9-5.3-19.2,0l-42.1,42.1c-37.8-26.1-80.4-43.7-125.5-52v-59.5c0-7.5-6.1-13.6-13.6-13.6h-92.2
		c-7.5,0-13.6,6.1-13.6,13.6v59.5c-45.2,8.3-87.8,25.9-125.5,52l-42.1-42.1c-5.3-5.3-13.9-5.3-19.2,0L509,736
		c-5.3,5.3-5.3,13.9,0,19.2l42.1,42.1c-26.1,37.8-43.7,80.4-52,125.5h-59.5c-7.5,0-13.6,6.1-13.6,13.6v92.2
		c0,7.5,6.1,13.6,13.6,13.6H499c8.3,45.2,25.9,87.8,52,125.6l-42.1,42.1c-5.3,5.3-5.3,13.9,0,19.2l65.2,65.2
		c5.3,5.3,13.9,5.3,19.2,0l42.1-42.1c37.8,26.1,80.4,43.7,125.5,52v59.5c0,7.5,6.1,13.6,13.6,13.6h92.2c7.5,0,13.6-6.1,13.6-13.6
		V1304c45.2-8.3,87.8-25.9,125.5-52l42.1,42.1c5.3,5.3,13.9,5.3,19.2,0l65.2-65.2c5.3-5.3,5.3-13.9,0-19.2l-42.1-42.1
		c26.1-37.8,43.7-80.4,52-125.6h59.5c7.5,0,13.6-6.1,13.6-13.6v-92.2C1215.3,928.8,1209.2,922.8,1201.7,922.8z"/>
</g>
<g>
	<path class="st0" d="M1881.5,1386.7c-44.6,0-80.8-36.3-80.8-80.8c0-44.6,36.3-80.8,80.8-80.8c44.6,0,80.8,36.3,80.8,80.8
		C1962.4,1350.4,1926.1,1386.7,1881.5,1386.7z M2022.6,1283.8h-22c-3.1-16.7-9.6-32.5-19.2-46.5l15.6-15.6c2-2,2-5.1,0-7.1
		l-24.1-24.1c-2-2-5.1-2-7.1,0l-15.6,15.6c-14-9.7-29.8-16.2-46.5-19.2v-22c0-2.8-2.2-5-5-5h-34.1c-2.8,0-5,2.2-5,5v22
		c-16.7,3.1-32.5,9.6-46.5,19.2l-15.6-15.6c-2-2-5.1-2-7.1,0l-24.1,24.1c-2,2-2,5.1,0,7.1l15.6,15.6c-9.7,14-16.2,29.8-19.2,46.5
		h-22c-2.8,0-5,2.2-5,5v34.1c0,2.8,2.2,5,5,5h22c3.1,16.7,9.6,32.5,19.2,46.5l-15.6,15.6c-2,2-2,5.1,0,7.1l24.1,24.1
		c2,2,5.1,2,7.1,0l15.6-15.6c14,9.7,29.8,16.2,46.5,19.2v22c0,2.8,2.2,5,5,5h34.1c2.8,0,5-2.2,5-5v-22c16.7-3.1,32.5-9.6,46.5-19.2
		l15.6,15.6c2,2,5.1,2,7.1,0l24.1-24.1c2-2,2-5.1,0-7.1l-15.6-15.6c9.7-14,16.2-29.8,19.2-46.5h22c2.8,0,5-2.2,5-5v-34.1
		C2027.6,1286,2025.4,1283.8,2022.6,1283.8z"/>
</g>
<g>
	<g>
		<path id="XMLID_358_" class="st1" d="M1088.7,1583.8c0,0,11.3,81.9,48.9,136.4c-24.9-23.9-75.9-61.2-171.8-92.7
			c0,0,28.5,92.5,112.8,141.2c-28.2-7.7-65.8-14.8-112.8-17.2c0,0,62.6,86.7,148.8,97.1h163
			C1277.7,1848.6,1279.3,1653.5,1088.7,1583.8z"/>
	</g>
	<g>
		<defs>
			<path id="SVGID_1_" d="M1088.7,1583.8c0,0,11.3,81.9,48.9,136.4c-24.9-23.9-75.9-61.2-171.8-92.7c0,0,28.5,92.5,112.8,141.2
				c-28.2-7.7-65.8-14.8-112.8-17.2c0,0,62.6,86.7,148.8,97.1h163C1277.7,1848.6,1279.3,1653.5,1088.7,1583.8z"/>
		</defs>
		<clipPath id="SVGID_2_">
			<use xlink:href="#SVGID_1_"  style="overflow:visible;"/>
		</clipPath>
		<path class="st2" d="M1256.7,1861.6c-0.4,0-0.8-0.2-0.9-0.7c-31-84.2-74.9-154.8-106.4-199.3c-34.1-48.2-61.1-76.8-61.4-77.1
			c-0.4-0.4-0.4-1,0-1.4s1-0.4,1.4,0c0.3,0.3,27.4,29,61.5,77.3c31.5,44.6,75.6,115.4,106.6,199.8c0.2,0.5-0.1,1.1-0.6,1.3
			C1256.9,1861.5,1256.8,1861.6,1256.7,1861.6z"/>
	</g>
	<g>
		<defs>
			<path id="SVGID_3_" d="M1088.7,1583.8c0,0,11.3,81.9,48.9,136.4c-24.9-23.9-75.9-61.2-171.8-92.7c0,0,28.5,92.5,112.8,141.2
				c-28.2-7.7-65.8-14.8-112.8-17.2c0,0,62.6,86.7,148.8,97.1h163C1277.7,1848.6,1279.3,1653.5,1088.7,1583.8z"/>
		</defs>
		<clipPath id="SVGID_4_">
			<use xlink:href="#SVGID_3_"  style="overflow:visible;"/>
		</clipPath>
		<path class="st3" d="M1210.5,1863.9c-0.3,0-0.7-0.2-0.8-0.5c-20.8-33.2-242.2-233.2-244.4-235.2c-0.4-0.4-0.4-1-0.1-1.4
			s1-0.4,1.4-0.1c9.1,8.2,223.8,202.2,244.8,235.7c0.3,0.5,0.2,1.1-0.3,1.4C1210.8,1863.9,1210.6,1863.9,1210.5,1863.9z"/>
	</g>
	<g>
		<defs>
			<path id="SVGID_5_" d="M1088.7,1583.8c0,0,11.3,81.9,48.9,136.4c-24.9-23.9-75.9-61.2-171.8-92.7c0,0,28.5,92.5,112.8,141.2
				c-28.2-7.7-65.8-14.8-112.8-17.2c0,0,62.6,86.7,148.8,97.1h163C1277.7,1848.6,1279.3,1653.5,1088.7,1583.8z"/>
		</defs>
		<clipPath id="SVGID_6_">
			<use xlink:href="#SVGID_5_"  style="overflow:visible;"/>
		</clipPath>
		<path class="st4" d="M1207,1859.2c-0.1,0-0.1,0-0.2,0c-56.2-11-239.6-105.8-241.5-106.8c-0.5-0.2-0.7-0.9-0.4-1.3s0.9-0.7,1.3-0.4
			c1.8,0.9,185,95.6,240.9,106.6c0.5,0.1,0.9,0.6,0.8,1.2C1207.9,1858.9,1207.5,1859.2,1207,1859.2z"/>
	</g>
</g>
<g>
	<g>
		<path id="XMLID_357_" class="st1" d="M1641.3,1847.7c0,0-31.3-140.6,193.6-335.6c0,0-28.5,198.4-91.1,279.9
			c0,0,5.7-77.9,149.4-181.7c0,0-8.5,146.6-106.7,206.3s-14.2,4.1-14.2,4.1s75.4-83.1,160.8-114c0,0-66.9,128.3-146.6,141.9
			L1641.3,1847.7z"/>
	</g>
	<g>
		<defs>
			<path id="SVGID_7_" d="M1641.3,1847.7c0,0-31.3-140.6,193.6-335.6c0,0-28.5,198.4-91.1,279.9c0,0,5.7-77.9,149.4-181.7
				c0,0-8.5,146.6-106.7,206.3s-14.2,4.1-14.2,4.1s75.4-83.1,160.8-114c0,0-66.9,128.3-146.6,141.9L1641.3,1847.7z"/>
		</defs>
		<clipPath id="SVGID_8_">
			<use xlink:href="#SVGID_7_"  style="overflow:visible;"/>
		</clipPath>
		<path class="st5" d="M1671.1,1866c-0.1,0-0.2,0-0.4-0.1c-0.5-0.2-0.8-0.8-0.6-1.3c1.2-3,122.3-299.8,163.9-353.1
			c0.3-0.4,1-0.5,1.4-0.2c0.4,0.3,0.5,1,0.2,1.4c-41.4,53.1-162.4,349.7-163.7,352.6C1671.9,1865.8,1671.5,1866,1671.1,1866z"/>
	</g>
	<g>
		<defs>
			<path id="SVGID_9_" d="M1641.3,1847.7c0,0-31.3-140.6,193.6-335.6c0,0-28.5,198.4-91.1,279.9c0,0,5.7-77.9,149.4-181.7
				c0,0-8.5,146.6-106.7,206.3s-14.2,4.1-14.2,4.1s75.4-83.1,160.8-114c0,0-66.9,128.3-146.6,141.9L1641.3,1847.7z"/>
		</defs>
		<clipPath id="SVGID_10_">
			<use xlink:href="#SVGID_9_"  style="overflow:visible;"/>
		</clipPath>
		<path class="st6" d="M1718,1854.2c-0.3,0-0.6-0.1-0.8-0.4c-0.3-0.4-0.2-1.1,0.2-1.4c36.5-27,173.5-240.4,174.9-242.6
			c0.3-0.5,0.9-0.6,1.4-0.3c0.5,0.3,0.6,0.9,0.3,1.4c-0.3,0.5-35,54.5-73.7,111.2c-52,76.1-86.2,120.5-101.7,132
			C1718.4,1854.1,1718.2,1854.2,1718,1854.2z"/>
	</g>
	<g>
		<defs>
			<path id="SVGID_11_" d="M1641.3,1847.7c0,0-31.3-140.6,193.6-335.6c0,0-28.5,198.4-91.1,279.9c0,0,5.7-77.9,149.4-181.7
				c0,0-8.5,146.6-106.7,206.3s-14.2,4.1-14.2,4.1s75.4-83.1,160.8-114c0,0-66.9,128.3-146.6,141.9L1641.3,1847.7z"/>
		</defs>
		<clipPath id="SVGID_12_">
			<use xlink:href="#SVGID_11_"  style="overflow:visible;"/>
		</clipPath>
		<path class="st7" d="M1751.7,1854.3c-0.4,0-0.8-0.2-0.9-0.6c-0.2-0.5,0-1.1,0.5-1.3c17.7-7.7,54.6-35.4,106.8-80.2
			c39.4-33.9,74-65.9,74.3-66.2c0.4-0.4,1-0.3,1.4,0.1c0.4,0.4,0.3,1-0.1,1.4c-0.3,0.3-34.9,32.3-74.4,66.2
			c-53,45.6-89.1,72.7-107.3,80.5C1751.9,1854.3,1751.8,1854.3,1751.7,1854.3z"/>
	</g>
</g>
<g>
	<g>
		<g>
			<path id="XMLID_356_" class="st8" d="M1734.2,964.1H884.5c0,0,15.8,91.5,14.1,109.1s-162.5,277.9-110.3,269.6
				c108.3-17.2,126.2-16.3,126.2-16.3s-38.7,211.1,0,234s302.6-12.3,302.6-12.3l-35,299.6H1692l-41.9-347.8
				c-9.1-75.1-1.9-151.2,21.1-223.3C1702.8,1177.3,1743,1033,1734.2,964.1z"/>
		</g>
		<g>
			<defs>
				<path id="SVGID_13_" d="M1734.2,964.1H884.5c0,0,15.8,91.5,14.1,109.1s-162.5,277.9-110.3,269.6
					c108.3-17.2,126.2-16.3,126.2-16.3s-38.7,211.1,0,234s302.6-12.3,302.6-12.3l-35,299.6H1692l-41.9-347.8
					c-9.1-75.1-1.9-151.2,21.1-223.3C1702.8,1177.3,1743,1033,1734.2,964.1z"/>
			</defs>
			<clipPath id="SVGID_14_">
				<use xlink:href="#SVGID_13_"  style="overflow:visible;"/>
			</clipPath>
			<path class="st9" d="M898.1,1514.1c0,0,15.2,34.6,105.4,11.3s342.9-116.2,344.3-88.8c1.4,27.3-156.8,333.7-156.8,333.7
				s9.2-191.6-0.4-195.7s-262.4,54.7-287,10.9S898.1,1514.1,898.1,1514.1"/>
		</g>
		<g>
			<defs>
				<path id="SVGID_15_" d="M1734.2,964.1H884.5c0,0,15.8,91.5,14.1,109.1s-162.5,277.9-110.3,269.6
					c108.3-17.2,126.2-16.3,126.2-16.3s-38.7,211.1,0,234s302.6-12.3,302.6-12.3l-35,299.6H1692l-41.9-347.8
					c-9.1-75.1-1.9-151.2,21.1-223.3C1702.8,1177.3,1743,1033,1734.2,964.1z"/>
			</defs>
			<clipPath id="SVGID_16_">
				<use xlink:href="#SVGID_15_"  style="overflow:visible;"/>
			</clipPath>
			<path class="st10" d="M781.3,1341.7c0,0-0.9-11.6,21.1-24.1c22-12.4,128.8-6.6,128.8,0.7s-31.9,123.2-31.2,115.1
				s8.5-89.5,1.2-92.4C893.9,1338.1,775.8,1353.6,781.3,1341.7"/>
		</g>
		<g>
			<defs>
				<path id="SVGID_17_" d="M1734.2,964.1H884.5c0,0,15.8,91.5,14.1,109.1s-162.5,277.9-110.3,269.6
					c108.3-17.2,126.2-16.3,126.2-16.3s-38.7,211.1,0,234s302.6-12.3,302.6-12.3l-35,299.6H1692l-41.9-347.8
					c-9.1-75.1-1.9-151.2,21.1-223.3C1702.8,1177.3,1743,1033,1734.2,964.1z"/>
			</defs>
			<clipPath id="SVGID_18_">
				<use xlink:href="#SVGID_17_"  style="overflow:visible;"/>
			</clipPath>
			<path class="st11" d="M1734.2,964.1c0,0-134.7,296.2-138.1,423.4s111.9,335.8,111.9,335.8s-40.7-257.8-30.5-325.6
				c10.2-67.8,91.6-433.5,91.6-433.5L1734.2,964.1"/>
		</g>
		<g>
			<defs>
				<path id="SVGID_19_" d="M1734.2,964.1H884.5c0,0,15.8,91.5,14.1,109.1s-162.5,277.9-110.3,269.6
					c108.3-17.2,126.2-16.3,126.2-16.3s-38.7,211.1,0,234s302.6-12.3,302.6-12.3l-35,299.6H1692l-41.9-347.8
					c-9.1-75.1-1.9-151.2,21.1-223.3C1702.8,1177.3,1743,1033,1734.2,964.1z"/>
			</defs>
			<clipPath id="SVGID_20_">
				<use xlink:href="#SVGID_19_"  style="overflow:visible;"/>
			</clipPath>
			<path class="st12" d="M946.1,954.8c0,0,57.7,106.1,130.3,119.8c72.6,13.7,215.7-110.4,215.7-110.4L946.1,954.8z"/>
		</g>
	</g>
	<g>
		<g>
			<path id="XMLID_355_" class="st8" d="M1912.8,1047.1l-436.6-670.6c0,0,289.6-254.1,579.5,119.7
				C2325.6,844,1912.8,1047.1,1912.8,1047.1z"/>
		</g>
		<g>
			<defs>
				<path id="SVGID_21_" d="M1912.8,1047.1l-436.6-670.6c0,0,289.6-254.1,579.5,119.7C2325.6,844,1912.8,1047.1,1912.8,1047.1z"/>
			</defs>
			<clipPath id="SVGID_22_">
				<use xlink:href="#SVGID_21_"  style="overflow:visible;"/>
			</clipPath>
			<path class="st13" d="M1735.4,883.2c0,0,221,11.1,281.4-91.2c60.4-102.3,26.3-311.7,26.3-311.7s116.6,99.1,142.2,228.1
				c25.6,129-177.8,356.6-258,377.6C1927.4,1085.9,1781.7,953.4,1735.4,883.2z"/>
		</g>
	</g>
	<g>
		<path class="st14" d="M2303.2,1794.3c0,0-1.7-15.7-1.9-30s0-35,0-35l-62.9,1.2c0,0,8.4,47,8.4,49.5s-13.9,12.1-13.9,12.1
			s22.1,20,32.8,19.3C2276.4,1810.7,2303.2,1794.3,2303.2,1794.3z"/>
		<path class="st15" d="M2303.2,1794.3l8.2,41.6c0.6,6.3-4.4,11.8-10.8,11.8h-161.4c0,0-0.7-9.2,3.5-19c4.2-9.9,86.6-33.1,90.2-36.6
			c0,0,27.5,9.3,38.6,9.3S2303.2,1794.3,2303.2,1794.3z"/>
		<path class="st14" d="M2167.9,1795.2c0,0-1.7-15.7-1.9-30s0-35,0-35l-62.9,1.2c0,0,8.4,47,8.4,49.5s-13.9,12.1-13.9,12.1
			s22.1,20,32.8,19.3C2141.1,1811.5,2167.9,1795.2,2167.9,1795.2z"/>
		<g>
			<path class="st15" d="M2255.8,1268.2c0,0,71.6,447.5,63.3,459.3s-95.5,11.7-95.5,11.7s-75.5-321.7-76.3-385.3
				C2146.5,1290.2,2255.8,1268.2,2255.8,1268.2z"/>
			<g>
				<g>
					<path id="XMLID_354_" class="st16" d="M2255.8,1104.6c0,0,42.8,50.2,0,163.5s-66.6,474.3-81.2,477.6s-83.7,4-87.6,0
						s-11.2-331.3-9.4-371.5c1.8-40.2,25.6-269.6,25.6-269.6H2255.8z"/>
				</g>
				<g>
					<defs>
						<path id="SVGID_23_" d="M2255.8,1104.6c0,0,42.8,50.2,0,163.5s-66.6,474.3-81.2,477.6s-83.7,4-87.6,0s-11.2-331.3-9.4-371.5
							c1.8-40.2,25.6-269.6,25.6-269.6H2255.8z"/>
					</defs>
					<clipPath id="SVGID_24_">
						<use xlink:href="#SVGID_23_"  style="overflow:visible;"/>
					</clipPath>
					<path class="st17" d="M2128.6,1755.6C2128.6,1755.6,2128.6,1755.6,2128.6,1755.6c-1.4,0-2.4-1.1-2.3-2.4
						c0.1-3.1,10.1-309.6,20.6-377.2c10.4-67.5,39.5-271.7,39.8-273.7c0.2-1.3,1.4-2.2,2.6-2c1.3,0.2,2.2,1.4,2,2.6
						c-0.3,2.1-29.4,206.3-39.8,273.8c-10.4,67.3-20.4,373.5-20.5,376.6C2130.9,1754.6,2129.9,1755.6,2128.6,1755.6z"/>
				</g>
			</g>
			<path class="st15" d="M2116,1154.4c0,0,9.6,54.8,47.8,69.7l3-7.8c0,0-38.5-28.7-41.3-66.5L2116,1154.4z"/>
			<path class="st15" d="M2080.8,1729.1c-0.1-1.9,1.3-3.6,3.3-3.7c18.1-0.8,99.6-4.4,99.9,0.2c0.4,5.1-0.4,20.8-4,23
				c-3.6,2.2-41.9,4.7-51.4,4.7c-9.5,0-43.3-1.4-45.2-4.7C2082.1,1746.1,2081.2,1734.9,2080.8,1729.1z"/>
			<path class="st15" d="M2210.1,1724.4c-0.4-1.9,1.1-3.8,3.3-4.1c20.4-3.2,112.4-17.2,113.2-12.7c1,5,1.9,20.7-1.9,23.3
				c-3.9,2.6-46.9,10.1-57.6,11.3c-10.7,1.2-49.3,4.2-51.7,1.1C2213.6,1741.1,2211.3,1730.1,2210.1,1724.4z"/>
		</g>
		<g>
			<g>
				<g>
					<path id="XMLID_353_" class="st14" d="M2248.8,604.8c-7.5-24.8-85.1-57-98-24.9c0,0,3,49.4-15.5,53.8s-42.1,1-33.8,8.5
						c8.4,7.5,26.8,9.7,27.8,15.8s-12.1,36.8,2.5,42.6c5.6,2.3,12.4,1.8,24.8,1.6c-3.5,18.4-10.8,56.9-11,63.5
						c-0.3,8.7,63.3,9.4,75.2,2.2s-17.8-74.5-17.8-74.5C2210.5,685,2256.3,629.6,2248.8,604.8z"/>
				</g>
				<g>
					<defs>
						<path id="SVGID_25_" d="M2248.8,604.8c-7.5-24.8-85.1-57-98-24.9c0,0,3,49.4-15.5,53.8s-42.1,1-33.8,8.5
							c8.4,7.5,26.8,9.7,27.8,15.8s-12.1,36.8,2.5,42.6c5.6,2.3,12.4,1.8,24.8,1.6c-3.5,18.4-10.8,56.9-11,63.5
							c-0.3,8.7,63.3,9.4,75.2,2.2s-17.8-74.5-17.8-74.5C2210.5,685,2256.3,629.6,2248.8,604.8z"/>
					</defs>
					<clipPath id="SVGID_26_">
						<use xlink:href="#SVGID_25_"  style="overflow:visible;"/>
					</clipPath>
					<path class="st18" d="M2156.5,702.2c0,0,13.4-0.4,22.7-6.7c0,0-11.3,20.8-28.3,19.2C2151,714.7,2151.1,704.4,2156.5,702.2"/>
				</g>
				<g>
					<defs>
						<path id="SVGID_27_" d="M2248.8,604.8c-7.5-24.8-85.1-57-98-24.9c0,0,3,49.4-15.5,53.8s-42.1,1-33.8,8.5
							c8.4,7.5,26.8,9.7,27.8,15.8s-12.1,36.8,2.5,42.6c5.6,2.3,12.4,1.8,24.8,1.6c-3.5,18.4-10.8,56.9-11,63.5
							c-0.3,8.7,63.3,9.4,75.2,2.2s-17.8-74.5-17.8-74.5C2210.5,685,2256.3,629.6,2248.8,604.8z"/>
					</defs>
					<clipPath id="SVGID_28_">
						<use xlink:href="#SVGID_27_"  style="overflow:visible;"/>
					</clipPath>
					<path class="st19" d="M2150.8,600.8c0,0,46.2,18.9,69.8,6s-66.3-27.3-66.3-27.3L2150.8,600.8z"/>
				</g>
				<g>
					<defs>
						<path id="SVGID_29_" d="M2248.8,604.8c-7.5-24.8-85.1-57-98-24.9c0,0,3,49.4-15.5,53.8s-42.1,1-33.8,8.5
							c8.4,7.5,26.8,9.7,27.8,15.8s-12.1,36.8,2.5,42.6c5.6,2.3,12.4,1.8,24.8,1.6c-3.5,18.4-10.8,56.9-11,63.5
							c-0.3,8.7,63.3,9.4,75.2,2.2s-17.8-74.5-17.8-74.5C2210.5,685,2256.3,629.6,2248.8,604.8z"/>
					</defs>
					<clipPath id="SVGID_30_">
						<use xlink:href="#SVGID_29_"  style="overflow:visible;"/>
					</clipPath>
					<path class="st20" d="M2126.3,667.5c0,0,18.9,1.5,25.9-2.8c0,0-14.1,18.2-28.5,15.8C2123.7,680.5,2123.8,672.1,2126.3,667.5z"
						/>
				</g>
			</g>
			<path class="st16" d="M2289,608.5c0.1-39.5-56.1-49.7-56.1-49.7s-17.3-28.4-67-26.2c-24.9,1.1-16.6,6.1-2.2,10.8
				c-14.7-1.6-30.9-0.2-42.1,10.1c-17.7,16.2,8.4,13.8,26,10.8c-0.2,0.5-0.4,1-0.5,1.5c-13.7,4.7-31.6,12.9-26.7,22.9
				c4.1,8.3,18.2,7,30.7,3.8c10.1,5.9,45.8,10.5,45.8,10.5s-15,36.7-14.9,40.4c0.1,3.7,9.2-16.1,18.8-6.4c3.2,3.2-1.6,20-7.9,22
				c-6.5,2-12.1-3-12.1-3s3.8,34.2,22.1,37.5c13,2.3,41.4-23.7,56.5-52.3c5.1,7.2,10.3,10.4,12.1-2.5c1.4-9.7-0.2-18-2.8-24.7
				c0.1-0.4,0.1-0.7,0.1-1.1C2278.3,623.4,2288.9,630.6,2289,608.5z"/>
		</g>
		<g>
			<path class="st16" d="M2167.9,1795.2l8.2,41.6c0.6,6.3-4.4,11.8-10.8,11.8h-161.4c0,0-0.7-9.2,3.5-19s86.6-33.1,90.2-36.6
				c0,0,27.5,9.3,38.6,9.3C2147.3,1802.3,2167.9,1795.2,2167.9,1795.2z"/>
			<path class="st15" d="M2082,1799c0,0,7.6,5.6,8,9.5c0.3,2.5-1.8,2.9-3.4,2.8c-1,0-1.9-0.4-2.6-1.1l-9.4-8.8
				C2074.6,1801.5,2077,1797.7,2082,1799z"/>
			<path class="st15" d="M2065,1804.3c0,0,7.6,5.6,8,9.5c0.3,2.5-1.8,2.9-3.4,2.8c-1,0-1.9-0.4-2.6-1.1l-9.4-8.8
				C2057.6,1806.8,2060,1803.1,2065,1804.3z"/>
			<path class="st15" d="M2049.6,1810.7c0,0,7.6,5.6,8,9.5c0.3,2.5-1.8,2.9-3.4,2.8c-1,0-1.9-0.4-2.6-1.1l-9.4-8.8
				C2042.2,1813.1,2044.6,1809.4,2049.6,1810.7z"/>
			<path class="st15" d="M2033.1,1816.9c0,0,7.6,5.6,8,9.5c0.3,2.5-1.8,2.9-3.4,2.8c-1,0-1.9-0.4-2.6-1.1l-9.4-8.8
				C2025.7,1819.4,2028.1,1815.7,2033.1,1816.9z"/>
		</g>
		<g>
			<g>
				<path id="XMLID_352_" class="st14" d="M1857.2,906.7c0,0-20.8-9.2-21.9-11.1s-11.8-46.6-17.4-49.6s3,29.6,0,32.2
					s-32.1-26.3-32.1-26.3s0,38.4,10.5,51c6,7.2,42.2,36.7,42.2,36.7L1857.2,906.7z"/>
			</g>
			<g>
				<defs>
					<path id="SVGID_31_" d="M1857.2,906.7c0,0-20.8-9.2-21.9-11.1s-11.8-46.6-17.4-49.6s3,29.6,0,32.2s-32.1-26.3-32.1-26.3
						s0,38.4,10.5,51c6,7.2,42.2,36.7,42.2,36.7L1857.2,906.7z"/>
				</defs>
				<clipPath id="SVGID_32_">
					<use xlink:href="#SVGID_31_"  style="overflow:visible;"/>
				</clipPath>
				<path class="st21" d="M1785,858.5c1,0.3,12.2,19.2,13.8,25c1.6,5.8-14-18.6-14.1-20.4C1784.5,861.3,1785,858.5,1785,858.5z"/>
			</g>
			<g>
				<defs>
					<path id="SVGID_33_" d="M1857.2,906.7c0,0-20.8-9.2-21.9-11.1s-11.8-46.6-17.4-49.6s3,29.6,0,32.2s-32.1-26.3-32.1-26.3
						s0,38.4,10.5,51c6,7.2,42.2,36.7,42.2,36.7L1857.2,906.7z"/>
				</defs>
				<clipPath id="SVGID_34_">
					<use xlink:href="#SVGID_33_"  style="overflow:visible;"/>
				</clipPath>
				<path class="st22" d="M1785.8,878.7c0,0,13,19.8,12.6,20.9c-0.4,1-14.6-12.3-14-15.6C1785,880.7,1785.8,878.7,1785.8,878.7z"/>
			</g>
		</g>
		<g>
			<path class="st23" d="M2276.8,836c-4.4-33.4-53.2-76.8-53.2-76.8c-14.8,15.7-78.1,7.3-78.1,7.3s-75.4,107.3-113.2,210.5
				c0,0-60.3-47.7-173.8-74l-23.6,41.4c0,0,171.5,154.7,226.6,137.7c12.6-3.9,27-14.8,41.3-29.2c-3.4,34.3-5.4,62.4-3,68.6
				c6.2,15.8,73.8-3.2,117.8-6.9s51.6-0.6,37.2-31.1C2240.3,1052.7,2281.2,869.4,2276.8,836z"/>
			<path class="st24" d="M2102.8,1052.7c0,0,79-96,92-140.8c0,0-43.5,156.8-95,173.9L2102.8,1052.7z"/>
		</g>
	</g>
	<g>
		<g>
			<g>
				<path id="XMLID_351_" class="st23" d="M1216.1,781.1c0,0,108.9,81,127,77c18.2-4,106.7-132.8,106.7-132.8l40.9,26.7
					c0,0-70.7,195.1-106.7,201.6s-118.2-17.1-118.2-17.1L1216.1,781.1z"/>
			</g>
			<g>
				<defs>
					<path id="SVGID_35_" d="M1216.1,781.1c0,0,108.9,81,127,77c18.2-4,106.7-132.8,106.7-132.8l40.9,26.7
						c0,0-70.7,195.1-106.7,201.6s-118.2-17.1-118.2-17.1L1216.1,781.1z"/>
				</defs>
				<clipPath id="SVGID_36_">
					<use xlink:href="#SVGID_35_"  style="overflow:visible;"/>
				</clipPath>
				<path class="st25" d="M1216.1,781.1c0,0,103.4,112.2,116.3,173.6l-84.2-9.9C1248.1,944.8,1206,807.9,1216.1,781.1"/>
			</g>
			<g>
				<defs>
					<path id="SVGID_37_" d="M1216.1,781.1c0,0,108.9,81,127,77c18.2-4,106.7-132.8,106.7-132.8l40.9,26.7
						c0,0-70.7,195.1-106.7,201.6s-118.2-17.1-118.2-17.1L1216.1,781.1z"/>
				</defs>
				<clipPath id="SVGID_38_">
					<use xlink:href="#SVGID_37_"  style="overflow:visible;"/>
				</clipPath>
				<path class="st26" d="M1483.1,743.6c0,0-48.5,51.3-62.7,82.6c0,0,11.3,15.3,6,32.5c-5.3,17.3-12,17.2-12,17.2s12,26.7-21.7,33.1
					c0,0-0.4,26.5-41.2,27.5c-40.7,1,0,0,0,0l-3.8-57.3l98.1-148.4C1446,730.8,1474.7,729.8,1483.1,743.6z"/>
			</g>
		</g>
		<path class="st14" d="M1487.2,749.7c0,0,14.4-22.2,16.5-24.3c2.1-2.2,29.3-28.7,27.8-30.5c-5.1-6.5-30,18.6-30,18.6l-28.8,26.9
			L1487.2,749.7z"/>
		<path class="st27" d="M1449.8,725.3c0,0,44.7,24.4,44.7,27.6s-6,19.8-9.2,18.7s-47.3-25.6-47.1-30.8S1449.8,725.3,1449.8,725.3z"
			/>
		<g>
			<g>
				<path id="XMLID_350_" class="st23" d="M1048.6,722c0,0-94,78.7-97.2,123.8c-3.2,45.2,48.6,118.4,48.6,118.4h292.2
					c0,0-47.6-155-76.1-183.1c-28.5-28-90.8-49.2-90.8-49.2L1048.6,722z"/>
			</g>
			<g>
				<defs>
					<path id="SVGID_39_" d="M1048.6,722c0,0-94,78.7-97.2,123.8c-3.2,45.2,48.6,118.4,48.6,118.4h292.2c0,0-47.6-155-76.1-183.1
						c-28.5-28-90.8-49.2-90.8-49.2L1048.6,722z"/>
				</defs>
				<clipPath id="SVGID_40_">
					<use xlink:href="#SVGID_39_"  style="overflow:visible;"/>
				</clipPath>
				<polyline class="st28" points="1280.8,929.1 1233.9,967.6 1296.1,966.4 1280.8,929.1 				"/>
			</g>
		</g>
		<g>
			<g>
				<g>
					<path id="XMLID_349_" class="st16" d="M1139.5,506.9c7.6-1.3,15.6-0.3,22.4,3.2c6.8,3.5,12.4,9.5,14.9,16.8
						c4,11.8-0.1,25.3,4.9,36.7c3.1,7,9.2,12.2,12.9,18.8c2.8,5,4.1,10.8,3.7,16.6c-0.9,13.9-11.2,25.4-21.8,34.5
						c-3.4-7.1-9.2-12.7-14.7-18.3c-17.3-17.4-34.2-36.4-41.1-59.9c-2.3-7.8-3.3-16.3-1.8-24.3c0.7-3.9,2.1-7.9,4.3-11.3
						c0.9-1.3,1.2-2.8,2-4.2c0.8-1.5,2-2.7,3.3-3.8C1131.6,509.1,1135.6,507.6,1139.5,506.9z"/>
				</g>
				<g>
					<defs>
						<path id="SVGID_41_" d="M1139.5,506.9c7.6-1.3,15.6-0.3,22.4,3.2c6.8,3.5,12.4,9.5,14.9,16.8c4,11.8-0.1,25.3,4.9,36.7
							c3.1,7,9.2,12.2,12.9,18.8c2.8,5,4.1,10.8,3.7,16.6c-0.9,13.9-11.2,25.4-21.8,34.5c-3.4-7.1-9.2-12.7-14.7-18.3
							c-17.3-17.4-34.2-36.4-41.1-59.9c-2.3-7.8-3.3-16.3-1.8-24.3c0.7-3.9,2.1-7.9,4.3-11.3c0.9-1.3,1.2-2.8,2-4.2
							c0.8-1.5,2-2.7,3.3-3.8C1131.6,509.1,1135.6,507.6,1139.5,506.9z"/>
					</defs>
					<clipPath id="SVGID_42_">
						<use xlink:href="#SVGID_41_"  style="overflow:visible;"/>
					</clipPath>
					<path class="st29" d="M1195.6,630.2c0,0-15.8-57.2-26.8-64.5c-11.1-7.3,5,72.4,7.3,71.7
						C1178.4,636.7,1190.8,636.2,1195.6,630.2z"/>
				</g>
			</g>
			<g>
				<g>
					<g>
						<path id="XMLID_348_" class="st14" d="M1072.9,561.9c8.8-10.4,41.2-21.9,67.3-17c14.7,2.8,26.2,14.3,29.4,28.9
							c7.2,33.1,21.5,111.2-2.1,118.4c-10.5,3.2-22.8,0.7-34.7-4.5c-2.4,20.2-11.9,66-13.7,72.2c-2.4,8.6-59.5-20.9-69.4-31.2
							c-6.4-6.7,37.1-78.2,37.1-78.2C1081.3,636.9,1060.6,576.4,1072.9,561.9z"/>
					</g>
					<g>
						<defs>
							<path id="SVGID_43_" d="M1072.9,561.9c8.8-10.4,41.2-21.9,67.3-17c14.7,2.8,26.2,14.3,29.4,28.9
								c7.2,33.1,21.5,111.2-2.1,118.4c-10.5,3.2-22.8,0.7-34.7-4.5c-2.4,20.2-11.9,66-13.7,72.2c-2.4,8.6-59.5-20.9-69.4-31.2
								c-6.4-6.7,37.1-78.2,37.1-78.2C1081.3,636.9,1060.6,576.4,1072.9,561.9z"/>
						</defs>
						<clipPath id="SVGID_44_">
							<use xlink:href="#SVGID_43_"  style="overflow:visible;"/>
						</clipPath>
						<path class="st30" d="M1132.9,687.8c0,0-15.5-10.6-28.3-23.1c0,0,0.4,56.1,26.3,60.7L1132.9,687.8"/>
					</g>
					<g>
						<defs>
							<path id="SVGID_45_" d="M1072.9,561.9c8.8-10.4,41.2-21.9,67.3-17c14.7,2.8,26.2,14.3,29.4,28.9
								c7.2,33.1,21.5,111.2-2.1,118.4c-10.5,3.2-22.8,0.7-34.7-4.5c-2.4,20.2-11.9,66-13.7,72.2c-2.4,8.6-59.5-20.9-69.4-31.2
								c-6.4-6.7,37.1-78.2,37.1-78.2C1081.3,636.9,1060.6,576.4,1072.9,561.9z"/>
						</defs>
						<clipPath id="SVGID_46_">
							<use xlink:href="#SVGID_45_"  style="overflow:visible;"/>
						</clipPath>
						<path class="st31" d="M1165.6,590.3c-4.7,3.7-11.1,5.7-16.9,4.2c-1.5-0.4-2.8-1-4.2-1.6c-0.7-0.3-1.5-0.7-2.1-1.3
							c-0.5-0.6-0.8-1.5-0.4-2.2c-6,5-14.3,7-21.9,5.3c-7.1,5.8-14.6,12.2-16.8,21c-2.3-6.8-1.5-14.4,1.2-21.1
							c2.7-6.7,7.2-12.5,12.1-17.7c2.3-2.5,4.8-4.9,7.7-6.7c6.4-4.1,14.3-5.2,21.9-5.5c5.8-0.2,11.6,0,17.2,1.7
							c4.3,1.3,8.7,3.7,11.7,7.2c0.6,0.7,1,1.5,0.8,2.4c-0.2,0.9-0.7,1.7-1.2,2.5c-1.2,2.1-2.3,4.1-3.7,6
							C1169.5,586.7,1167.6,588.7,1165.6,590.3z"/>
					</g>
				</g>
				<path class="st32" d="M1155.3,603.6c0,0,16.7,27.1,13.2,31.5s-12.5-6.2-15.2-5.5s-4.1,5-0.7,5.5s16.4,6.9,17.8,0.8
					C1171.7,629.8,1169.3,625.1,1155.3,603.6z"/>
				<path class="st27" d="M1175.4,651.2c0,0-8.8,8.8-21.9-1.2c0,0,0.8,8.5,9.8,9.9C1175.2,661.6,1175.4,651.2,1175.4,651.2z"/>
			</g>
			<path class="st16" d="M1048.6,539c11-7.1,26.9-17.7,44.1-23c-0.6-0.2-1.1-0.5-1.6-0.8c-5.5-3-9.7-8.5-11-14.6s0.1-12.9,4-17.8
				c2.9-3.6,6.9-6.2,11.2-8.1c4.1-1.8,8.4-3,12.8-3.1c9.1-0.2,18.2,4.5,23.1,12.2s5,18.2,0.1,25.9c-1.1,1.8-2.5,3.4-4.2,4.6
				c-0.2,0.1-0.4,0.2-0.5,0.3c7.4,2.2,14.6,6.3,21.3,13.2c32.3,33.2,21,37.8,21,37.8s3.8,17.7-17.9,20.5c-13.6,1.8-9.6-3.4-4.7-7.5
				c-7.8,5.5-20.8,14.2-26.6,14.2c-8.5,0,5.6-16.7,5.6-16.7s-26.6,26.3-23.7,38.3c0,0-4.1-17.8-10.8-15.8c-6.7,2-9.1,13.5-5.8,20.8
				s17.9,6.2,17.9,6.2l-17.8,27.8c0,0-19.1,7.4-36.3-19.8C1031.3,606.5,1025.8,553.8,1048.6,539z"/>
			<path class="st15" d="M1131.3,509.8c0,0-11.2,13.1-38.6,6.2l-13.2,5.1C1079.4,521.1,1113.8,541.6,1131.3,509.8z"/>
			<g>
				<path class="st27" d="M1112.7,761.2c0,0-1.3,43.4-20.5,35.9c-19.2-7.5-72.5-48.3-43.6-75.1c0,0,6.9,5.2,11,7.8
					C1063.7,732.4,1112.7,761.2,1112.7,761.2z"/>
				<path class="st27" d="M1119.2,759.9c0,0,14.4,24.7,21.7,20.8c7.3-3.9,4-38.1,2.1-39.3s-11-9.3-17.8-9.5L1119.2,759.9z"/>
			</g>
		</g>
		<g>
			<g>
				<path class="st15" d="M1292,879.2c0,0-21.7,36.5,37,55.5c0,0,45.8,12.9,59.8-30.6L1292,879.2z"/>
				<g>
					<g>
						<path id="XMLID_347_" class="st33" d="M1507.5,414.3c0,0-151.6-75.5-217,68.7c-69,152,29.2,217.9,22.7,322l91.2,24
							c0,0,22.8-50.1,86.6-102.7C1568.7,662.2,1632.5,491.2,1507.5,414.3z"/>
					</g>
					<g>
						<defs>
							<path id="SVGID_47_" d="M1507.5,414.3c0,0-151.6-75.5-217,68.7c-69,152,29.2,217.9,22.7,322l91.2,24
								c0,0,22.8-50.1,86.6-102.7C1568.7,662.2,1632.5,491.2,1507.5,414.3z"/>
						</defs>
						<clipPath id="SVGID_48_">
							<use xlink:href="#SVGID_47_"  style="overflow:visible;"/>
						</clipPath>
						<path class="st34" d="M1272.2,657.2c0,0,65,95.9,102.6,102.4c37.6,6.5,115.6-21.7,115.6-21.7s-78.1,102.8-84.8,103.1
							c-6.8,0.3-95.1-23-97.4-26.3C1305.8,811.4,1273.5,664.5,1272.2,657.2z"/>
					</g>
				</g>
				<g>
					<g>
						<path id="XMLID_346_" class="st35" d="M1419,855.2L1419,855.2c3-11.5-3.8-23.3-15.3-26.3l-92-24.2c-11.5-3-23.3,3.8-26.3,15.3
							l0,0c-1.8,6.7-0.2,13.5,3.8,18.6c-5.9,2.5-10.7,7.6-12.5,14.3c-3,11.5,3.8,23.3,15.3,26.3l92,24.2c11.5,3,23.3-3.8,26.3-15.3
							c1.8-6.7,0.2-13.5-3.8-18.6C1412.5,867,1417.2,861.9,1419,855.2z"/>
					</g>
					<g>
						<defs>
							<path id="SVGID_49_" d="M1419,855.2L1419,855.2c3-11.5-3.8-23.3-15.3-26.3l-92-24.2c-11.5-3-23.3,3.8-26.3,15.3l0,0
								c-1.8,6.7-0.2,13.5,3.8,18.6c-5.9,2.5-10.7,7.6-12.5,14.3c-3,11.5,3.8,23.3,15.3,26.3l92,24.2c11.5,3,23.3-3.8,26.3-15.3
								c1.8-6.7,0.2-13.5-3.8-18.6C1412.5,867,1417.2,861.9,1419,855.2z"/>
						</defs>
						<clipPath id="SVGID_50_">
							<use xlink:href="#SVGID_49_"  style="overflow:visible;"/>
						</clipPath>
						<path class="st36" d="M1282.3,822.9c0,0,12.8,8.9,29.7,14.5s99.6,17.9,107,17.7s0,0,0,0s-0.9,12.3-12.5,14.3c-11.5,2,0,0,0,0
							s7.4,6,5,13.9c-2.4,8,0,0,0,0s-86.2-21.8-89-22.2c-2.8-0.4-50.1-6.8-50.1-6.8s5.3-18.8,11-17.3
							C1283.5,837.1,1279.2,825.8,1282.3,822.9z"/>
					</g>
				</g>
			</g>
			<g>
				<path class="st37" d="M1407.1,629.1c-26.8-7-42.8-34.6-35.8-61.3s34.6-42.8,61.3-35.8c26.8,7,42.8,34.6,35.8,61.3
					C1461.4,620.1,1433.8,636.1,1407.1,629.1z M1508.1,589.6l-13.2-3.5c0.8-10.5-0.6-21-4.2-31l11.8-6.9c1.5-0.9,2-2.8,1.1-4.3
					l-10.7-18.3c-0.9-1.5-2.8-2-4.3-1.1l-11.8,6.9c-6.9-8-15.3-14.4-24.9-18.9l3.5-13.2c0.4-1.7-0.6-3.4-2.2-3.8l-20.5-5.4
					c-1.7-0.4-3.4,0.6-3.8,2.2l-3.5,13.2c-10.5-0.8-21,0.6-30.9,4.2l-6.9-11.8c-0.9-1.5-2.8-2-4.3-1.1l-18.3,10.7
					c-1.5,0.9-2,2.8-1.1,4.3l6.9,11.8c-8,6.9-14.4,15.3-18.9,24.9l-13.2-3.5c-1.7-0.4-3.4,0.6-3.8,2.2l-5.4,20.5
					c-0.4,1.7,0.6,3.4,2.2,3.8l13.2,3.5c-0.8,10.5,0.6,21,4.2,31l-11.8,6.9c-1.5,0.9-2,2.8-1.1,4.3l10.7,18.3c0.9,1.5,2.8,2,4.3,1.1
					l11.8-6.9c6.9,8,15.3,14.4,24.9,18.9l-3.5,13.2c-0.4,1.7,0.6,3.4,2.2,3.8l20.5,5.4c1.7,0.4,3.4-0.6,3.8-2.2l3.5-13.2
					c10.5,0.8,21-0.6,30.9-4.2l6.9,11.8c0.9,1.5,2.8,2,4.3,1.1l18.3-10.7c1.5-0.9,2-2.8,1.1-4.3l-6.9-11.8
					c8-6.9,14.4-15.3,18.9-24.9l13.2,3.5c1.7,0.4,3.4-0.6,3.8-2.2l5.4-20.5C1510.7,591.7,1509.7,590,1508.1,589.6z"/>
			</g>
		</g>
		<path class="st23" d="M1000,964.2c0,0,39.2,85.9,112.7,71.9c73.5-13.9,207.1-142.1,207.1-142.1l-15.2-50.9c0,0-175,77.4-182.9,69
			s-53.9-69-53.9-69S979.5,920.1,1000,964.2z"/>
		<path class="st24" d="M1257.4,863.5c0,0-110.6,47.4-135.7,48.6s-52.5-58-52.5-58s34.4,45.9,50,43.6
			c15.6-2.3,132.9-47.7,132.9-47.7L1257.4,863.5z"/>
		<path class="st14" d="M1307.3,852.2c0,0,10.2-5.9,12.4-7.2c2.2-1.4,26.3-31.3,30.5-30.2c8.9,2.3-13.4,28-3.6,28.3
			c0,0,57.1-8.2,57.3-4.7c0.3,3.6-22.2,10.7-42.8,15.6c0,0,50.6-7.4,58.5-4.1c7.9,3.3-49.7,18.1-52.2,18.1c-2.5,0,42-3.3,45.3,0
			c3.3,3.3-50.2,11.2-50.2,11.2s24.8,8.8,26.3,11.6s-41.9-4.9-49-4.9s-21.9,1.9-21.9,1.9L1307.3,852.2z"/>
		<path class="st27" d="M1304.6,843.1c0,0,17.5,50.8,17,53.6s-16.6,14.6-17.7,12c-1.1-2.5-18.2-53.9-17.7-57.5
			C1286.7,847.5,1302.7,841.5,1304.6,843.1z"/>
	</g>
</g>
<path class="st15" d="M2725.1,1852.6H407.6c-2.2,0-4-1.8-4-4s1.8-4,4-4H2725c2.2,0,4,1.8,4,4S2727.3,1852.6,2725.1,1852.6z"/>
<g>
	<path class="st35" d="M2621.2,285.7c-6.4-12.9-302.6-2.9-306.5,0c-17.7,12.9-1.6,172.6,0,179.1c0.4,1.5,16.9,2.5,42.2,3.1
		c-11.9,32.4-27,73.7-24.2,75.6c8.4,5.5,47.3-43,78.1-75c86.9,0.3,202.4-1.7,210.4-3.7C2634.1,461.5,2627.7,298.6,2621.2,285.7z"/>
	<g>
		<path class="st1" d="M2383.8,374.1c0.2,8.1-6.3,14.8-14.4,15c-8.1,0.2-14.8-6.3-15-14.4c-0.2-8.1,6.3-14.8,14.4-15
			C2376.9,359.6,2383.6,366,2383.8,374.1z"/>
		
			<ellipse transform="matrix(0.7071 -0.7071 0.7071 0.7071 450.9267 1834.5759)" class="st1" cx="2440" cy="373" rx="14.7" ry="14.7"/>
		
			<ellipse transform="matrix(0.5466 -0.8374 0.8374 0.5466 827.3353 2271.179)" class="st1" cx="2511" cy="371.6" rx="14.7" ry="14.7"/>
		
			<ellipse transform="matrix(0.7071 -0.7071 0.7071 0.7071 494.5087 1933.9835)" class="st1" cx="2581.8" cy="370.1" rx="14.7" ry="14.7"/>
	</g>
</g>
<g>
	<path class="st33" d="M1388.1,357.6c0,0-14.2-122.5,0-177.1C1388.1,180.5,1397.2,327.3,1388.1,357.6z"/>
	<path class="st33" d="M1319.2,388.9c0,0-34-84-96.1-134.1C1223.1,254.8,1270.2,338,1319.2,388.9z"/>
	<path class="st33" d="M1148.6,377.7c0,0,42.1,45.4,114.6,61C1263.2,438.7,1195.5,397.8,1148.6,377.7z"/>
	<path class="st33" d="M1355.7,364.4c0,0-15.3-65.4-26.4-83.8C1329.3,280.6,1327.8,311.5,1355.7,364.4z"/>
	<path class="st33" d="M1283.2,408.2c0,0-44-50.7-62.3-61.9C1220.8,346.3,1233.8,374.3,1283.2,408.2z"/>
	<path class="st33" d="M1256.4,473.1c0,0-66.6-8.4-87.7-4.5C1168.6,468.6,1197.1,480.8,1256.4,473.1z"/>
</g>
</svg>
